<svg width="260" height="206" viewBox="0 0 260 206" fill="none" xmlns="http://www.w3.org/2000/svg">
<path d="M129.055 1C129.055 1 128.274 5.70166 142.795 5.77422C144.551 5.57241 146.33 5.81453 147.969 6.47856C149.609 7.14259 151.056 8.20744 152.181 9.57619C156.361 14.1327 179.964 50.2079 193.804 71.1332C196.87 76.3137 191.143 83.1776 189.711 84.6722L150.561 125.797C150.561 125.797 145.138 131.355 139.107 122.169C136.691 119.862 133.206 122.764 133.206 122.764C132.116 123.435 130.901 123.877 129.636 124.064C128.371 124.251 127.081 124.179 125.844 123.853C121.997 122.648 129.07 120.109 129.07 120.109C131.306 119.004 133.665 118.17 136.098 117.627C139.107 117.149 131.687 115.944 130.183 116.844C128.763 117.94 127.085 118.65 125.311 118.904C123.538 119.159 121.728 118.949 120.059 118.295C114.882 116.234 126.568 115.088 126.756 114.841C127.553 113.778 128.593 112.921 129.788 112.343C130.983 111.765 132.299 111.482 133.625 111.518C138.383 111.402 130.603 109.399 127.84 110.488C125.078 111.576 123.617 114.478 117.528 112.07C116.082 110.938 119.452 109.98 123.834 108.558C130.791 100.693 138.6 106.918 138.6 106.918C138.6 106.918 133.857 104.016 130.096 104.204C127.594 105.656 124.456 106.222 123.198 105.772C120.305 104.756 121.202 103.9 124.644 102.086C128.086 100.272 128.983 98.0371 131.398 99.6769C133.813 101.317 142.476 111.155 143.257 112.49C144.038 113.825 145.919 114.304 148.146 111.881" stroke="#273159" stroke-miterlimit="10"/>
<path d="M148.131 111.823C148.131 111.823 174.916 80.8702 175.336 79.2014C176.579 77.3875 177.78 75.3124 172.443 68.4195C167.106 61.5267 152.282 41.1093 142.52 39.1647C132.758 37.2202 122.822 38.5262 117.572 40.5288C112.322 42.5314 107 47.5958 101.576 47.6974C96.1528 47.799 84.5827 36.5382 76.2667 36.6253C67.9507 36.7123 62.4404 42.067 62.2524 48.8293C62.0644 55.5915 73.4609 75.3995 72.839 91.5361C72.2171 107.673 60.4445 114.029 60.7193 138.524C60.9941 163.019 74.5456 194.392 74.0973 205" stroke="#273159" stroke-miterlimit="10"/>
<path d="M119.481 141.513C119.234 141.585 119.007 141.713 118.816 141.886C118.626 142.06 118.477 142.275 118.382 142.515C118.153 143.301 118.056 144.12 118.093 144.938V162.351C118.054 163.165 118.152 163.979 118.382 164.76C118.475 165.003 118.622 165.222 118.813 165.398C119.003 165.574 119.232 165.704 119.481 165.776C120.313 165.995 121.167 166.112 122.027 166.124V167.01C120.58 166.923 118.483 166.865 115.866 166.865C113.248 166.865 111.021 166.865 109.661 167.01V166.124C110.521 166.112 111.375 165.995 112.207 165.776C112.456 165.704 112.684 165.574 112.875 165.398C113.066 165.222 113.213 165.003 113.306 164.76C113.536 163.979 113.634 163.165 113.595 162.351V143.051L101.909 167.169H101.143L89.9052 143.095V161.858C89.8671 162.716 89.9697 163.573 90.2089 164.398C90.3157 164.677 90.4824 164.93 90.6973 165.139C90.9122 165.347 91.1701 165.505 91.4527 165.602C92.3843 165.918 93.362 166.075 94.3452 166.066V166.952C93.1882 166.865 91.5395 166.806 89.4135 166.806C87.2875 166.806 85.9714 166.806 84.9011 166.952V166.066C85.7611 166.066 86.6139 165.909 87.4176 165.602C87.6802 165.489 87.9164 165.323 88.1107 165.113C88.305 164.903 88.4532 164.654 88.5457 164.383C88.7676 163.561 88.8652 162.71 88.835 161.858V144.938C88.8721 144.12 88.7744 143.301 88.5457 142.515C88.4504 142.275 88.3019 142.06 88.1114 141.886C87.9209 141.713 87.6936 141.585 87.4465 141.513C86.6152 141.295 85.7605 141.178 84.9011 141.165V140.28C85.9714 140.367 87.4755 140.41 89.4135 140.41C90.9658 140.41 92.3397 140.367 93.5353 140.28L103.269 161.64L113.638 140.41H115.851C118.474 140.41 120.527 140.367 122.012 140.28V141.165C121.158 141.179 120.308 141.296 119.481 141.513Z" fill="#273159"/>
<path d="M154.047 166.066V166.951C152.745 166.864 151.024 166.806 148.855 166.806C146.078 166.806 144.01 166.806 142.665 166.951V166.066C143.559 166.061 144.448 165.914 145.297 165.631C145.549 165.552 145.768 165.394 145.922 165.179C146.076 164.964 146.156 164.705 146.15 164.441C146.067 163.715 145.835 163.013 145.47 162.38L142.997 157.389H131.225L129.576 160.668C129.104 161.537 128.823 162.497 128.752 163.483C128.74 163.83 128.817 164.174 128.973 164.484C129.13 164.794 129.362 165.058 129.648 165.254C130.529 165.764 131.524 166.043 132.541 166.066V166.951C131.572 166.864 130.111 166.806 128.202 166.806C126.293 166.806 124.818 166.806 123.979 166.951V166.066C124.842 165.866 125.621 165.399 126.206 164.731C126.918 163.906 127.508 162.983 127.956 161.989L138.659 140.062H139.44L150.778 163.28C151.574 165.08 152.687 166.008 154.047 166.066ZM142.607 156.503L137.14 145.373L131.615 156.503H142.607Z" fill="#273159"/>
<path d="M184.519 165.109C183.935 165.837 183.206 166.435 182.379 166.864C181.483 167.317 180.489 167.536 179.486 167.503C176.782 167.503 175.148 166.386 174.497 164.165L173.051 158.68C172.813 157.373 172.096 156.203 171.04 155.4C169.825 154.766 168.46 154.475 167.092 154.559H164.33V162.235C164.291 163.049 164.388 163.863 164.619 164.644C164.711 164.887 164.859 165.105 165.05 165.282C165.24 165.458 165.469 165.587 165.718 165.66C166.549 165.879 167.404 165.996 168.264 166.008V166.893C166.817 166.806 164.72 166.748 162.102 166.748C159.485 166.748 157.257 166.748 155.898 166.893V166.008C156.757 165.996 157.612 165.879 158.443 165.66C158.692 165.587 158.921 165.458 159.112 165.282C159.303 165.105 159.45 164.887 159.543 164.644C159.773 163.863 159.871 163.049 159.832 162.235V144.822C159.869 144.003 159.771 143.185 159.543 142.398C159.447 142.159 159.299 141.944 159.108 141.77C158.918 141.597 158.69 141.469 158.443 141.397C157.612 141.178 156.757 141.061 155.898 141.049V140.164C157.257 140.251 159.224 140.294 161.813 140.294H166.759C167.309 140.294 167.931 140.294 168.64 140.294C171.528 140.124 174.407 140.762 176.956 142.137C177.82 142.603 178.544 143.294 179.053 144.136C179.561 144.978 179.836 145.941 179.848 146.926C179.821 147.816 179.607 148.69 179.218 149.491C178.829 150.292 178.274 151 177.592 151.569C175.475 153.216 172.893 154.151 170.216 154.24L171.865 154.414C173.314 154.57 174.707 155.067 175.929 155.865C177.014 156.704 177.767 157.902 178.055 159.246L179.125 163.237C179.277 164.003 179.566 164.736 179.978 165.399C180.11 165.594 180.286 165.754 180.493 165.865C180.699 165.976 180.93 166.035 181.164 166.037C182.206 165.922 183.162 165.401 183.825 164.586L184.519 165.109ZM165.501 141.47C165.281 141.574 165.087 141.726 164.932 141.914C164.777 142.102 164.666 142.322 164.604 142.558C164.415 143.336 164.332 144.137 164.359 144.938V153.804H167.613C170.505 153.804 172.4 153.253 173.398 152.164C174.519 150.878 175.086 149.197 174.974 147.492C175.04 146.624 174.916 145.753 174.611 144.938C174.306 144.124 173.828 143.386 173.21 142.776C171.526 141.586 169.476 141.035 167.425 141.223C166.773 141.174 166.119 141.258 165.501 141.47Z" fill="#273159"/>
<path d="M198.52 141.165C197.66 141.178 196.805 141.295 195.974 141.513C195.728 141.583 195.501 141.71 195.313 141.884C195.124 142.058 194.979 142.274 194.889 142.515C194.647 143.298 194.545 144.118 194.586 144.938V162.351C194.543 163.166 194.646 163.982 194.889 164.76C194.976 165.004 195.12 165.224 195.309 165.4C195.498 165.577 195.726 165.706 195.974 165.776C196.805 165.995 197.66 166.112 198.52 166.124V167.01C197.073 166.923 194.976 166.865 192.358 166.865C189.741 166.865 187.513 166.865 186.168 167.01V166.124C187.028 166.111 187.882 165.994 188.714 165.776C188.96 165.702 189.186 165.571 189.374 165.395C189.562 165.219 189.708 165.002 189.799 164.76C190.029 163.979 190.127 163.165 190.088 162.351V144.938C190.125 144.12 190.027 143.301 189.799 142.515C189.705 142.276 189.558 142.063 189.371 141.889C189.183 141.716 188.958 141.587 188.714 141.513C187.882 141.296 187.028 141.179 186.168 141.165V140.28C187.513 140.367 189.582 140.41 192.358 140.41C195.135 140.41 197.001 140.41 198.52 140.28V141.165Z" fill="#273159"/>
<path d="M226.765 166.952C224.668 166.864 221.125 166.806 216.149 166.806C210.176 166.806 205.65 166.806 202.583 166.952V166.066C203.443 166.054 204.298 165.937 205.129 165.718C205.377 165.648 205.605 165.519 205.794 165.342C205.983 165.165 206.127 164.946 206.214 164.702C206.457 163.924 206.56 163.108 206.517 162.293V144.88C206.559 144.06 206.456 143.24 206.214 142.456C206.124 142.216 205.979 142 205.79 141.826C205.602 141.652 205.375 141.525 205.129 141.455C204.298 141.237 203.443 141.12 202.583 141.107V140.222C205.65 140.309 210.172 140.352 216.149 140.352C220.671 140.352 223.887 140.309 225.796 140.222C225.578 141.794 225.462 143.379 225.449 144.967C225.441 145.874 225.489 146.78 225.594 147.68H224.48C224.47 145.872 223.887 144.114 222.817 142.66C222.23 142.135 221.542 141.735 220.796 141.486C220.05 141.236 219.261 141.142 218.478 141.208H214.935C214.084 141.174 213.233 141.252 212.404 141.441C212.156 141.507 211.928 141.631 211.737 141.803C211.546 141.974 211.398 142.188 211.304 142.427C211.076 143.214 210.978 144.033 211.015 144.851V153.006H215.036C215.888 153.063 216.732 152.805 217.408 152.281C217.914 151.863 218.299 151.317 218.521 150.699C218.757 149.989 218.936 149.261 219.056 148.522H220.17C220.083 149.523 220.025 150.597 220.025 151.773V153.441C220.025 154.573 220.127 156.213 220.315 158.346H219.201C219.092 157.18 218.711 156.057 218.087 155.067C217.716 154.631 217.243 154.294 216.711 154.086C216.178 153.879 215.603 153.807 215.036 153.877H211.015V162.206C210.976 163.02 211.074 163.834 211.304 164.615C211.396 164.856 211.543 165.071 211.734 165.243C211.926 165.414 212.155 165.538 212.404 165.602C213.231 165.805 214.084 165.888 214.935 165.849H218.536C219.849 165.908 221.159 165.67 222.368 165.152C223.312 164.661 224.062 163.863 224.494 162.888C225.062 161.501 225.403 160.031 225.507 158.535H226.62C226.516 159.586 226.468 160.642 226.476 161.698C226.467 163.454 226.564 165.208 226.765 166.952Z" fill="#273159"/>
<path d="M260 165.109C259.43 165.854 258.711 166.472 257.888 166.922C256.993 167.375 255.998 167.595 254.996 167.561C252.277 167.561 250.657 166.444 250.006 164.223L248.56 158.738C248.322 157.431 247.605 156.261 246.55 155.459C245.334 154.824 243.969 154.533 242.601 154.617H239.839V162.293C239.8 163.107 239.898 163.921 240.128 164.702C240.221 164.945 240.368 165.163 240.559 165.34C240.75 165.516 240.978 165.645 241.227 165.718C242.059 165.937 242.913 166.054 243.773 166.066V166.952C242.327 166.864 240.229 166.806 237.612 166.806C234.994 166.806 232.767 166.806 231.407 166.952V166.066C232.267 166.054 233.121 165.937 233.953 165.718C234.202 165.645 234.43 165.516 234.621 165.34C234.812 165.163 234.959 164.945 235.052 164.702C235.282 163.921 235.38 163.107 235.341 162.293V144.88C235.378 144.062 235.28 143.243 235.052 142.456C234.957 142.217 234.808 142.002 234.618 141.828C234.427 141.655 234.2 141.527 233.953 141.455C233.121 141.237 232.267 141.12 231.407 141.107V140.222C232.767 140.309 234.734 140.352 237.322 140.352H242.269C242.818 140.352 243.44 140.352 244.149 140.352C247.037 140.183 249.916 140.821 252.465 142.195C253.329 142.662 254.053 143.352 254.562 144.194C255.071 145.036 255.345 145.999 255.357 146.984C255.331 147.874 255.116 148.749 254.727 149.549C254.338 150.35 253.784 151.058 253.101 151.628C250.984 153.274 248.403 154.209 245.725 154.298L247.36 154.472C248.814 154.626 250.212 155.123 251.438 155.923C252.523 156.762 253.277 157.96 253.564 159.304L254.634 163.295C254.786 164.061 255.075 164.794 255.488 165.457C255.619 165.652 255.795 165.812 256.002 165.923C256.209 166.034 256.439 166.093 256.673 166.095C257.716 165.98 258.671 165.459 259.335 164.644L260 165.109ZM240.982 141.47C240.762 141.574 240.568 141.726 240.413 141.914C240.258 142.102 240.146 142.322 240.085 142.558C239.895 143.336 239.812 144.137 239.839 144.938V153.804H243.122C246.014 153.804 247.909 153.253 248.907 152.164C250.028 150.878 250.595 149.197 250.483 147.492C250.549 146.624 250.425 145.753 250.12 144.938C249.816 144.124 249.337 143.386 248.719 142.776C247.035 141.586 244.985 141.035 242.934 141.223C242.273 141.17 241.609 141.254 240.982 141.47Z" fill="#273159"/>
<path d="M13.0216 138.698C13.8733 138.971 14.6928 139.336 15.4658 139.786C15.9447 140.081 16.4833 140.265 17.0422 140.323C17.1784 140.327 17.3128 140.291 17.4286 140.218C17.5443 140.146 17.6363 140.041 17.693 139.917C17.8949 139.508 18.0223 139.065 18.069 138.611H19.1393C18.9946 140.062 18.9079 142.79 18.9079 146.592H17.8376C17.7066 144.624 16.9457 142.751 15.6682 141.252C14.9751 140.505 14.1249 139.922 13.1793 139.546C12.2337 139.169 11.2165 139.008 10.2014 139.075C8.73014 139.007 7.28172 139.459 6.10844 140.352C5.59524 140.731 5.18023 141.228 4.89834 141.801C4.61646 142.374 4.47594 143.007 4.48862 143.646C4.46623 144.576 4.75664 145.486 5.31299 146.229C5.87355 146.987 6.57606 147.628 7.38115 148.116C8.21998 148.638 9.40592 149.306 10.9679 150.118L12.3129 150.815C13.9047 151.63 15.4542 152.526 16.9554 153.5C18.0168 154.204 18.9387 155.099 19.6744 156.141C20.3669 157.173 20.7254 158.394 20.7012 159.638C20.7441 160.718 20.5099 161.79 20.0212 162.753C19.5324 163.716 18.8055 164.537 17.9099 165.138C15.8032 166.501 13.3286 167.181 10.8233 167.082C8.60669 167.174 6.40564 166.673 4.44524 165.631C3.96243 165.331 3.41892 165.142 2.85435 165.08C2.71952 165.083 2.58798 165.122 2.47348 165.193C2.35898 165.265 2.26573 165.366 2.20353 165.486C2.01433 165.904 1.89229 166.35 1.84196 166.806H0.771729C0.88743 165.365 0.945279 162.231 0.945279 157.403H2.02998C2.131 159.732 2.93832 161.975 4.344 163.832C5.11394 164.689 6.06994 165.357 7.1382 165.785C8.20646 166.213 9.3584 166.388 10.5051 166.299C12.0579 166.358 13.5857 165.893 14.8439 164.978C15.4323 164.519 15.8986 163.921 16.2014 163.237C16.5042 162.554 16.634 161.806 16.5794 161.06C16.586 160.346 16.4321 159.64 16.1291 158.995C15.8261 158.349 15.3818 157.78 14.8294 157.331C13.1332 155.972 11.2838 154.817 9.31914 153.891C7.48239 152.948 6.0072 152.106 4.86465 151.381C3.78062 150.69 2.84212 149.793 2.10229 148.74C1.37644 147.673 1.00216 146.404 1.03206 145.112C0.990989 144.127 1.20046 143.148 1.64073 142.267C2.08099 141.387 2.73756 140.633 3.54855 140.077C5.39672 138.863 7.57463 138.255 9.78195 138.335C10.8736 138.299 11.9647 138.421 13.0216 138.698Z" fill="#273159"/>
<path d="M49.1348 166.502C47.0233 166.425 43.4703 166.386 38.4759 166.386C32.5173 166.386 28.0049 166.386 24.9678 166.502V165.718C25.7918 165.703 26.6115 165.596 27.412 165.399C27.6438 165.342 27.8589 165.231 28.0398 165.074C28.2208 164.918 28.3624 164.721 28.4533 164.499C28.6832 163.808 28.7813 163.08 28.7425 162.352V142.921C28.7797 142.189 28.6817 141.456 28.4533 140.759C28.3577 140.54 28.2146 140.346 28.0344 140.19C27.8542 140.035 27.6415 139.922 27.412 139.859C26.6115 139.662 25.7918 139.555 24.9678 139.54V138.756C28.0049 138.843 32.5173 138.872 38.4759 138.872C43.0316 138.872 46.2857 138.872 48.2092 138.756C48.0031 140.291 47.892 141.837 47.8766 143.385C47.8607 144.196 47.9091 145.006 48.0212 145.809H46.951C46.8236 144.522 46.542 143.255 46.1121 142.036C45.7879 141.238 45.1723 140.594 44.3911 140.237C43.2146 139.791 41.9591 139.593 40.7031 139.656H36.8416C36.021 139.626 35.1999 139.699 34.3974 139.874C34.1795 139.937 33.9783 140.048 33.8082 140.198C33.6381 140.349 33.5035 140.535 33.4139 140.744C33.1992 141.444 33.1063 142.175 33.1392 142.907V152.15H36.2197C37.1062 152.204 37.987 151.976 38.7362 151.497C39.2663 151.142 39.6791 150.637 39.9221 150.046C40.1529 149.323 40.3175 148.579 40.4139 147.826L40.544 147.042H41.6143C41.5275 148.145 41.4841 149.379 41.4841 150.728V152.615C41.4841 153.95 41.5709 155.793 41.7589 158.172H40.6453C40.6453 157.998 40.5151 157.36 40.3705 156.272C40.272 155.308 39.7992 154.421 39.0544 153.805C38.2061 153.221 37.189 152.935 36.1618 152.992H33.0668V162.395C33.0336 163.122 33.1266 163.848 33.3416 164.543C33.4305 164.767 33.5736 164.965 33.7579 165.12C33.9422 165.274 34.162 165.38 34.3974 165.428C35.1999 165.603 36.021 165.676 36.8416 165.646H40.2403C41.7148 165.708 43.1876 165.486 44.5791 164.993C45.5516 164.607 46.3423 163.865 46.7919 162.918C47.3653 161.582 47.7123 160.16 47.8187 158.709H48.889C48.7908 159.644 48.7473 160.584 48.7588 161.525C48.7887 163.19 48.9143 164.851 49.1348 166.502Z" fill="#273159"/>
<path d="M5.03847 189.893C4.37039 189.917 3.7046 189.801 3.08423 189.551C2.46387 189.301 1.90276 188.923 1.43727 188.442C0.512456 187.421 0 186.091 0 184.712C0 183.333 0.512456 182.003 1.43727 180.983C1.89495 180.482 2.45464 180.085 3.07845 179.819C3.70225 179.554 4.37561 179.426 5.05293 179.445C5.77916 179.426 6.50039 179.57 7.16447 179.865C7.81436 180.193 8.41355 180.613 8.94338 181.113L8.45165 181.621C8.00695 181.165 7.4762 180.801 6.89025 180.552C6.3043 180.303 5.67484 180.173 5.03847 180.17C4.46636 180.157 3.89798 180.266 3.37159 180.491C2.8452 180.717 2.37303 181.052 1.98685 181.476C1.17477 182.365 0.7391 183.536 0.771991 184.741C0.73749 185.945 1.17947 187.114 2.00131 187.992C2.38557 188.419 2.85705 188.758 3.38364 188.986C3.91024 189.214 4.47959 189.325 5.05293 189.312C5.69608 189.322 6.33335 189.188 6.91861 188.921C7.51828 188.613 8.06512 188.211 8.53842 187.731L9.04462 188.224C8.5114 188.759 7.89616 189.205 7.22232 189.545C6.52923 189.822 5.78317 189.941 5.03847 189.893Z" fill="#273159"/>
<path d="M10.2739 189.719L14.9887 179.488H15.7119L20.3978 189.719H19.5734L18.2862 186.816H12.3276L11.0404 189.719H10.2739ZM12.6603 186.193H17.997L15.3358 180.388L12.6603 186.193Z" fill="#273159"/>
<path d="M22.2632 189.821C21.8458 189.822 21.4326 189.738 21.0483 189.575L21.2797 188.951C21.5853 189.082 21.9167 189.142 22.2487 189.125C22.3688 189.14 22.4903 189.14 22.6103 189.125C22.7576 189.078 22.8949 189.004 23.0153 188.907C23.1851 188.767 23.3316 188.6 23.4491 188.414C23.6023 188.13 23.7328 187.834 23.8396 187.529C23.9878 187.089 24.0991 186.637 24.1723 186.179C24.259 185.657 24.3314 185.004 24.3892 184.206C24.4471 183.407 24.476 182.537 24.476 181.55V179.605H30.6805V189.763H29.9284V180.302H25.1991V181.579C25.2087 182.805 25.1508 184.031 25.0256 185.25C24.9492 186.074 24.8041 186.889 24.5917 187.688C24.4664 188.214 24.2351 188.707 23.9119 189.139C23.7072 189.416 23.4395 189.64 23.131 189.792C22.846 189.856 22.5518 189.865 22.2632 189.821Z" fill="#273159"/>
<path d="M41.9905 188.341C41.5247 188.849 40.9557 189.25 40.3219 189.518C39.6881 189.786 39.0044 189.914 38.317 189.894C37.6313 189.917 36.9489 189.79 36.3171 189.522C35.6852 189.254 35.1191 188.851 34.6579 188.341C33.7402 187.329 33.2317 186.009 33.2317 184.641C33.2317 183.272 33.7402 181.953 34.6579 180.94C35.1349 180.449 35.705 180.059 36.3347 179.793C36.9644 179.526 37.6408 179.389 38.3242 179.389C39.0076 179.389 39.684 179.526 40.3137 179.793C40.9433 180.059 41.5135 180.449 41.9905 180.94C42.9082 181.953 43.4167 183.272 43.4167 184.641C43.4167 186.009 42.9082 187.329 41.9905 188.341ZM35.2509 187.877C35.6416 188.308 36.1201 188.651 36.654 188.881C37.1879 189.111 37.7649 189.224 38.3459 189.212C38.9216 189.227 39.4938 189.116 40.023 188.888C40.5523 188.66 41.0261 188.32 41.412 187.891C42.2078 187 42.6479 185.845 42.6479 184.648C42.6479 183.451 42.2078 182.296 41.412 181.405C41.0234 180.974 40.5474 180.632 40.016 180.402C39.4846 180.172 38.9102 180.058 38.3314 180.07C37.7533 180.053 37.1783 180.162 36.6464 180.39C36.1145 180.618 35.6383 180.959 35.2509 181.39C34.4639 182.286 34.0296 183.439 34.0296 184.633C34.0296 185.828 34.4639 186.981 35.2509 187.877Z" fill="#273159"/>
<path d="M45.9822 189.72V179.562H46.7342V184.278H53.2135V179.577H53.9655V189.734H53.2135V184.975H46.7342V189.734L45.9822 189.72Z" fill="#273159"/>
<path d="M91.4523 189.893C90.7842 189.918 90.1184 189.802 89.4981 189.552C88.8777 189.302 88.3166 188.924 87.8511 188.442C86.9263 187.422 86.4138 186.092 86.4138 184.713C86.4138 183.333 86.9263 182.004 87.8511 180.983C88.3088 180.482 88.8685 180.085 89.4923 179.82C90.1161 179.554 90.7894 179.427 91.4667 179.445C92.193 179.427 92.9142 179.57 93.5783 179.866C94.2282 180.194 94.8274 180.614 95.3572 181.114L94.8655 181.622C94.4208 181.165 93.89 180.802 93.3041 180.552C92.7181 180.303 92.0887 180.174 91.4523 180.171C90.8802 180.157 90.3118 180.267 89.7854 180.492C89.259 180.717 88.7868 181.053 88.4007 181.477C87.5886 182.366 87.1529 183.536 87.1858 184.742C87.1513 185.946 87.5933 187.114 88.4151 187.992C88.7994 188.419 89.2709 188.758 89.7975 188.986C90.3241 189.214 90.8934 189.326 91.4667 189.313C92.1099 189.323 92.7472 189.189 93.3324 188.921C93.9321 188.613 94.4789 188.212 94.9522 187.731L95.4584 188.224C94.9252 188.759 94.31 189.205 93.6361 189.545C92.943 189.823 92.197 189.942 91.4523 189.893Z" fill="#273159"/>
<path d="M97.5413 189.72V179.562H101.721C102.569 179.524 103.406 179.763 104.107 180.244C104.393 180.456 104.624 180.734 104.78 181.055C104.937 181.376 105.013 181.73 105.004 182.087C105.018 182.622 104.858 183.147 104.547 183.582C104.236 184.016 103.792 184.337 103.283 184.496C104.729 184.887 105.568 185.715 105.568 186.948C105.578 187.34 105.492 187.729 105.318 188.081C105.145 188.432 104.888 188.736 104.57 188.965C103.801 189.504 102.875 189.77 101.938 189.72H97.5413ZM98.2933 184.249H101.634C102.305 184.28 102.966 184.086 103.514 183.698C103.752 183.515 103.943 183.276 104.068 183.003C104.194 182.73 104.252 182.431 104.237 182.13C104.243 181.866 104.186 181.604 104.07 181.367C103.954 181.13 103.784 180.924 103.572 180.766C103.021 180.4 102.367 180.222 101.707 180.258H98.2933V184.249ZM98.2933 189.023H101.967C102.699 189.06 103.423 188.862 104.035 188.457C104.28 188.284 104.478 188.054 104.611 187.785C104.745 187.517 104.811 187.219 104.802 186.919C104.809 186.628 104.74 186.34 104.6 186.085C104.46 185.83 104.255 185.617 104.006 185.468C103.309 185.08 102.517 184.899 101.721 184.945H98.2933V189.023Z" fill="#273159"/>
<path d="M107.173 189.719L111.888 179.488H112.611L117.326 189.719H116.502L115.215 186.816H109.241L107.954 189.719H107.173ZM109.56 186.193H114.896L112.235 180.388L109.56 186.193Z" fill="#273159"/>
<path d="M118.049 192.042V189.023H119.134C119.727 188.111 120.135 187.09 120.334 186.019C120.627 184.587 120.768 183.128 120.754 181.666V179.518H126.958V188.98H128.332L128.188 191.998H127.551V189.676H118.874L118.729 191.998L118.049 192.042ZM120.002 189.023H126.206V180.316H121.491V182.319C121.493 183.631 121.357 184.939 121.086 186.223C120.903 187.216 120.535 188.166 120.002 189.023Z" fill="#273159"/>
<path d="M130.314 189.72V179.562H137.545V180.259H131.095V184.278H136.88V184.975H131.095V189.052H137.545V189.749L130.314 189.72Z" fill="#273159"/>
<path d="M139.96 189.72V179.562H147.018V180.259H140.712V183.857H144.125C145.063 183.81 145.992 184.053 146.787 184.554C147.121 184.797 147.388 185.122 147.563 185.498C147.738 185.874 147.814 186.288 147.784 186.702C147.809 187.121 147.737 187.541 147.574 187.929C147.411 188.316 147.161 188.661 146.844 188.936C146.097 189.5 145.174 189.777 144.241 189.72H139.96ZM140.712 189.023H144.097C146.035 189.023 146.989 188.254 146.989 186.702C147.006 186.391 146.944 186.08 146.807 185.801C146.67 185.521 146.464 185.282 146.208 185.105C145.549 184.701 144.781 184.508 144.01 184.554H140.698L140.712 189.023Z" fill="#273159"/>
<path d="M150.2 189.72V179.562H150.952V184.278H157.431V179.577H158.183V189.734H157.431V184.975H150.952V189.734L150.2 189.72Z" fill="#273159"/>
<path d="M161.191 189.72V179.562H161.943V183.64H164.937C165.867 183.61 166.785 183.863 167.569 184.365C167.917 184.61 168.196 184.939 168.381 185.323C168.566 185.707 168.65 186.131 168.625 186.556C168.642 186.992 168.561 187.425 168.388 187.824C168.215 188.224 167.955 188.579 167.627 188.864C166.887 189.459 165.957 189.763 165.009 189.72H161.191ZM161.943 189.023H164.836C165.613 189.072 166.384 188.851 167.02 188.399C167.284 188.181 167.493 187.903 167.629 187.587C167.765 187.272 167.823 186.928 167.801 186.585C167.817 186.259 167.752 185.934 167.61 185.64C167.469 185.346 167.256 185.092 166.991 184.902C166.319 184.488 165.536 184.291 164.749 184.336H161.856L161.943 189.023ZM170.013 189.72V179.562H170.809V189.72H170.013Z" fill="#273159"/>
<path d="M173.008 189.72L177.043 184.539L173.152 179.562H174.049L177.505 184.031L180.948 179.562H181.83L177.954 184.525L181.974 189.72H181.078L177.477 185.033L173.89 189.72H173.008Z" fill="#273159"/>
<path d="M188.554 189.72V179.562H196.393V189.72H195.641V180.259H189.306V189.72H188.554Z" fill="#273159"/>
<path d="M199.113 189.821C198.695 189.822 198.282 189.738 197.898 189.575L198.129 188.951C198.435 189.082 198.766 189.142 199.098 189.125C199.218 189.14 199.34 189.14 199.46 189.125C199.607 189.078 199.744 189.004 199.865 188.907C200.034 188.767 200.181 188.6 200.299 188.414C200.452 188.13 200.582 187.834 200.689 187.529C200.837 187.089 200.948 186.637 201.022 186.179C201.108 185.657 201.181 185.004 201.239 184.206C201.296 183.407 201.325 182.537 201.325 181.55V179.605H207.53V189.763H206.778V180.302H202.048V181.579C202.058 182.805 202 184.031 201.875 185.25C201.799 186.074 201.653 186.889 201.441 187.688C201.316 188.214 201.084 188.707 200.761 189.139C200.557 189.416 200.289 189.64 199.98 189.792C199.695 189.856 199.401 189.865 199.113 189.821Z" fill="#273159"/>
<path d="M209.67 189.719L214.385 179.488H215.108L219.823 189.719H218.999L217.711 186.816H211.738L210.451 189.719H209.67ZM212.057 186.193H217.393L214.732 180.388L212.057 186.193Z" fill="#273159"/>
<path d="M224.769 189.72V180.259H221.24V179.562H229.05V180.259H225.521V189.72H224.769Z" fill="#273159"/>
<path d="M231.335 189.72V179.562H232.073V183.64H235.081C236.011 183.61 236.929 183.863 237.713 184.365C238.061 184.61 238.34 184.939 238.525 185.323C238.71 185.707 238.794 186.131 238.769 186.556C238.786 186.992 238.705 187.425 238.532 187.824C238.359 188.224 238.099 188.579 237.771 188.864C237.031 189.459 236.1 189.763 235.153 189.72H231.335ZM232.073 189.023H234.965C235.738 189.074 236.505 188.854 237.134 188.399C237.402 188.183 237.613 187.905 237.749 187.589C237.885 187.273 237.942 186.929 237.915 186.585C237.934 186.261 237.871 185.936 237.732 185.642C237.593 185.348 237.382 185.094 237.12 184.902C236.448 184.488 235.666 184.291 234.878 184.336H231.986L232.073 189.023Z" fill="#273159"/>
<path d="M240.996 189.72V179.562H248.227V180.259H241.777V184.278H247.562V184.975H241.777V189.052H248.299V189.749L240.996 189.72Z" fill="#273159"/>
<path d="M250.686 189.72V179.562H254.851C255.704 179.522 256.547 179.761 257.252 180.244C257.538 180.456 257.769 180.735 257.925 181.055C258.081 181.376 258.158 181.73 258.149 182.087C258.162 182.624 258 183.15 257.686 183.585C257.373 184.02 256.925 184.34 256.413 184.496C257.946 184.888 258.713 185.715 258.713 186.948C258.723 187.341 258.637 187.729 258.463 188.081C258.289 188.432 258.032 188.736 257.715 188.965C256.946 189.504 256.019 189.77 255.083 189.72H250.686ZM251.424 184.249H254.779C255.449 184.28 256.111 184.086 256.659 183.698C256.897 183.515 257.087 183.277 257.213 183.004C257.339 182.731 257.397 182.431 257.382 182.13C257.388 181.866 257.331 181.605 257.215 181.367C257.099 181.13 256.928 180.924 256.717 180.766C256.165 180.401 255.511 180.223 254.851 180.258H251.424V184.249ZM251.424 189.023H255.097C255.834 189.062 256.564 188.864 257.18 188.457C257.423 188.284 257.619 188.052 257.75 187.784C257.881 187.515 257.944 187.218 257.932 186.919C257.943 186.628 257.874 186.339 257.734 186.083C257.594 185.828 257.387 185.615 257.136 185.468C256.441 185.077 255.647 184.895 254.851 184.946H251.424V189.023Z" fill="#273159"/>
</svg>
