<svg width="137" height="108" viewBox="0 0 137 108" fill="none" xmlns="http://www.w3.org/2000/svg">
<path d="M68.0021 0.448242C68.0021 0.448242 67.5906 2.91735 75.2417 2.95545C76.1672 2.84947 77.1045 2.97662 77.9683 3.32534C78.8321 3.67406 79.595 4.23327 80.1876 4.95207C82.3899 7.34497 94.8269 26.29 102.12 37.2791C103.735 39.9996 100.718 43.6042 99.9633 44.3892L79.334 65.9862C79.334 65.9862 76.4763 68.9049 73.2984 64.081C72.0258 62.8693 70.1892 64.3935 70.1892 64.3935C69.6147 64.7456 68.9749 64.9778 68.3082 65.0761C67.6416 65.1743 66.9619 65.1365 66.3103 64.965C64.2832 64.3325 68.0097 62.9989 68.0097 62.9989C69.1879 62.4184 70.4313 61.981 71.7133 61.6958C73.2984 61.4443 69.389 60.8118 68.5965 61.2842C67.8483 61.8601 66.964 62.2328 66.0294 62.3664C65.0948 62.4999 64.1415 62.3896 63.262 62.0463C60.5338 60.9642 66.6913 60.3621 66.7904 60.2326C67.2108 59.674 67.7587 59.2242 68.3884 58.9206C69.0182 58.617 69.7114 58.4685 70.4102 58.4874C72.9174 58.4265 68.8175 57.3748 67.3619 57.9464C65.9064 58.5179 65.1367 60.0421 61.9284 58.777C61.1663 58.1826 62.9419 57.6796 65.251 56.9328C68.9166 52.8024 73.0317 56.0717 73.0317 56.0717C73.0317 56.0717 70.5321 54.5475 68.5508 54.6466C67.2324 55.4087 65.5787 55.7059 64.9157 55.4696C63.3915 54.9362 63.864 54.4866 65.6778 53.534C67.4915 52.5814 67.964 51.4078 69.2366 52.269C70.5093 53.1301 75.0741 58.2969 75.4856 58.998C75.8971 59.6991 76.8878 59.9506 78.0614 58.678" stroke="#273159" stroke-miterlimit="10"/>
<path d="M78.0539 58.6474C78.0539 58.6474 92.1674 42.3925 92.3884 41.5161C93.0438 40.5635 93.6763 39.4738 90.8643 35.8539C88.0523 32.2341 80.2411 21.5118 75.0971 20.4906C69.9531 19.4695 64.7177 20.1553 61.9514 21.207C59.1851 22.2586 56.3807 24.9182 53.5229 24.9716C50.6651 25.0249 44.5686 19.1113 40.1867 19.157C35.8048 19.2027 32.9013 22.0148 32.8022 25.566C32.7032 29.1172 38.7083 39.5195 38.3806 47.9937C38.0529 56.4679 31.8496 59.8058 31.9944 72.6695C32.1392 85.5332 39.2798 102.009 39.0436 107.58" stroke="#273159" stroke-miterlimit="10"/>
<path d="M62.9574 74.2394C62.8272 74.2773 62.7074 74.3443 62.6071 74.4354C62.5067 74.5266 62.4285 74.6394 62.3782 74.7653C62.2578 75.1782 62.2063 75.6082 62.2258 76.0379V85.1827C62.2053 85.61 62.2568 86.0377 62.3782 86.4478C62.427 86.5754 62.5047 86.69 62.6051 86.7826C62.7056 86.8751 62.8262 86.9431 62.9574 86.9812C63.3955 87.096 63.8458 87.1575 64.2987 87.1641V87.629C63.5366 87.5833 62.4316 87.5528 61.0522 87.5528C59.6729 87.5528 58.4993 87.5528 57.783 87.629V87.1641C58.2358 87.1575 58.6861 87.096 59.1242 86.9812C59.2554 86.9431 59.376 86.8751 59.4765 86.7826C59.577 86.69 59.6546 86.5754 59.7034 86.4478C59.8248 86.0377 59.8763 85.61 59.8558 85.1827V75.0472L53.6983 87.7128H53.2944L47.3731 75.0701V84.9236C47.353 85.374 47.4071 85.8245 47.5331 86.2573C47.5894 86.4043 47.6772 86.5371 47.7905 86.6464C47.9037 86.7557 48.0396 86.8388 48.1885 86.8898C48.6794 87.0556 49.1945 87.138 49.7126 87.1336V87.5985C49.103 87.5528 48.2342 87.5223 47.114 87.5223C45.9937 87.5223 45.3003 87.5223 44.7363 87.5985V87.1336C45.1895 87.1337 45.6388 87.051 46.0623 86.8898C46.2007 86.8307 46.3251 86.7431 46.4275 86.6329C46.5299 86.5226 46.608 86.392 46.6567 86.2496C46.7737 85.8178 46.8251 85.3708 46.8092 84.9236V76.0379C46.8287 75.6082 46.7772 75.1782 46.6567 74.7653C46.6065 74.6394 46.5283 74.5266 46.4279 74.4354C46.3275 74.3443 46.2077 74.2773 46.0776 74.2394C45.6395 74.1246 45.1891 74.0632 44.7363 74.0565V73.5917C45.3003 73.6374 46.0928 73.6603 47.114 73.6603C47.9319 73.6603 48.6559 73.6374 49.2859 73.5917L54.4146 84.8093L59.8786 73.6603H61.0446C62.4265 73.6603 63.5086 73.6374 64.291 73.5917V74.0565C63.8408 74.0638 63.393 74.1252 62.9574 74.2394Z" fill="#273159"/>
<path d="M81.1708 87.1337V87.5986C80.485 87.5528 79.5781 87.5224 78.435 87.5224C76.9718 87.5224 75.8821 87.5224 75.1733 87.5986V87.1337C75.6448 87.1307 76.1128 87.0535 76.5603 86.9051C76.6929 86.8638 76.8084 86.7805 76.8895 86.6678C76.9706 86.5551 77.0129 86.419 77.0099 86.2802C76.9659 85.8988 76.844 85.5304 76.6517 85.198L75.3486 82.5765H69.1454L68.2766 84.2988C68.028 84.755 67.8799 85.2591 67.8422 85.7772C67.8363 85.9594 67.8765 86.1402 67.9591 86.3028C68.0417 86.4653 68.164 86.6043 68.3147 86.7069C68.7789 86.9749 69.303 87.1216 69.8388 87.1337V87.5986C69.3283 87.5528 68.5586 87.5224 67.5526 87.5224C66.5467 87.5224 65.7694 87.5224 65.3274 87.5986V87.1337C65.7823 87.0284 66.1927 86.7832 66.501 86.4326C66.8761 85.9994 67.1867 85.5143 67.4231 84.9923L73.0624 73.4774H73.4739L79.4485 85.6705C79.8677 86.6155 80.4545 87.1032 81.1708 87.1337ZM75.1428 82.1117L72.2622 76.2666L69.3511 82.1117H75.1428Z" fill="#273159"/>
<path d="M97.2276 86.6307C96.9197 87.0131 96.5356 87.3271 96.0997 87.5528C95.6278 87.7905 95.1037 87.9058 94.5756 87.8882C93.1505 87.8882 92.2894 87.3014 91.9465 86.1354L91.1844 83.2548C91.0591 82.5684 90.6812 81.9539 90.1251 81.5325C89.4845 81.1994 88.7654 81.0467 88.0446 81.0905H86.5891V85.1218C86.5685 85.5491 86.6201 85.9767 86.7415 86.3869C86.7903 86.5145 86.8679 86.6291 86.9684 86.7216C87.0689 86.8142 87.1895 86.8822 87.3207 86.9203C87.7588 87.0351 88.2091 87.0966 88.6619 87.1032V87.5681C87.8999 87.5224 86.7949 87.4919 85.4155 87.4919C84.0362 87.4919 82.8626 87.4919 82.1462 87.5681V87.1032C82.5991 87.0966 83.0494 87.0351 83.4875 86.9203C83.6187 86.8822 83.7393 86.8142 83.8397 86.7216C83.9402 86.6291 84.0179 86.5145 84.0667 86.3869C84.1881 85.9767 84.2396 85.5491 84.2191 85.1218V75.977C84.2386 75.5473 84.1871 75.1173 84.0667 74.7043C84.0164 74.5784 83.9382 74.4656 83.8378 74.3745C83.7375 74.2834 83.6176 74.2164 83.4875 74.1785C83.0494 74.0637 82.5991 74.0023 82.1462 73.9956V73.5308C82.8626 73.5765 83.899 73.5994 85.2631 73.5994H87.8694C88.159 73.5994 88.4867 73.5994 88.8601 73.5994C90.3822 73.5098 91.8992 73.8449 93.242 74.5672C93.6974 74.8121 94.079 75.1745 94.347 75.6167C94.615 76.059 94.7597 76.5649 94.7661 77.082C94.7521 77.5495 94.6389 78.0087 94.4339 78.4291C94.2289 78.8496 93.937 79.2216 93.5773 79.5206C92.4616 80.3854 91.1015 80.8761 89.6907 80.9228L90.5595 81.0143C91.3233 81.0964 92.0569 81.3575 92.7009 81.7764C93.2728 82.2169 93.6698 82.8461 93.8211 83.552L94.3851 85.6477C94.465 86.0503 94.6173 86.435 94.8347 86.7832C94.9039 86.8855 94.9969 86.9695 95.1058 87.0279C95.2146 87.0863 95.3361 87.1174 95.4596 87.1185C96.0087 87.0577 96.5121 86.7841 96.8618 86.3564L97.2276 86.6307ZM87.2064 74.2166C87.0906 74.2716 86.9883 74.3512 86.9067 74.45C86.8251 74.5487 86.7661 74.6642 86.7339 74.7882C86.634 75.1969 86.5904 75.6174 86.6043 76.038V80.6942H88.319C89.8431 80.6942 90.8414 80.4046 91.3673 79.8331C91.958 79.1573 92.2567 78.2749 92.1979 77.3792C92.2325 76.9236 92.1672 76.4659 92.0067 76.0382C91.8461 75.6104 91.5941 75.2228 91.2682 74.9025C90.3811 74.2776 89.3006 73.9886 88.2199 74.0871C87.8768 74.0615 87.532 74.1056 87.2064 74.2166Z" fill="#273159"/>
<path d="M104.605 74.0565C104.152 74.0632 103.701 74.1246 103.263 74.2394C103.133 74.2762 103.014 74.3429 102.915 74.4343C102.816 74.5256 102.739 74.639 102.692 74.7653C102.564 75.1768 102.51 75.6076 102.532 76.0379V85.1827C102.509 85.6106 102.563 86.039 102.692 86.4478C102.738 86.5758 102.813 86.691 102.913 86.7838C103.012 86.8766 103.132 86.9443 103.263 86.9812C103.701 87.096 104.152 87.1575 104.605 87.1641V87.629C103.842 87.5833 102.737 87.5528 101.358 87.5528C99.9787 87.5528 98.8052 87.5528 98.0964 87.629V87.1641C98.5492 87.1569 98.9995 87.0955 99.4377 86.9812C99.5675 86.9421 99.6865 86.8736 99.7856 86.7811C99.8847 86.6886 99.9613 86.5746 100.009 86.4478C100.131 86.0377 100.182 85.61 100.162 85.1827V76.0379C100.181 75.6082 100.13 75.1782 100.009 74.7653C99.9598 74.6402 99.8827 74.5279 99.7837 74.4368C99.6847 74.3458 99.5664 74.2783 99.4377 74.2394C98.9995 74.1252 98.5492 74.0638 98.0964 74.0565V73.5917C98.8052 73.6374 99.8949 73.6603 101.358 73.6603C102.821 73.6603 103.804 73.6603 104.605 73.5917V74.0565Z" fill="#273159"/>
<path d="M119.488 87.5985C118.383 87.5527 116.516 87.5223 113.894 87.5223C110.747 87.5223 108.361 87.5223 106.746 87.5985V87.1336C107.199 87.1269 107.649 87.0655 108.087 86.9507C108.218 86.9138 108.338 86.8461 108.438 86.7533C108.537 86.6605 108.613 86.5453 108.659 86.4173C108.787 86.0085 108.841 85.5801 108.819 85.1522V76.0074C108.84 75.5771 108.786 75.1463 108.659 74.7347C108.611 74.6085 108.535 74.4951 108.436 74.4037C108.336 74.3124 108.217 74.2457 108.087 74.2089C107.649 74.0941 107.199 74.0327 106.746 74.026V73.5612C108.361 73.6069 110.744 73.6297 113.894 73.6297C116.277 73.6297 117.971 73.6069 118.977 73.5612C118.862 74.387 118.801 75.2194 118.794 76.0531C118.79 76.5293 118.815 77.0052 118.87 77.4782H118.284C118.278 76.5286 117.971 75.6053 117.407 74.8414C117.098 74.5657 116.736 74.3559 116.343 74.2249C115.95 74.0939 115.534 74.0443 115.121 74.0794H113.254C112.806 74.0611 112.358 74.1021 111.92 74.2013C111.79 74.2362 111.67 74.3013 111.569 74.3914C111.468 74.4814 111.39 74.5938 111.341 74.7195C111.221 75.1325 111.169 75.5624 111.189 75.9922V80.275H113.307C113.756 80.3048 114.201 80.1692 114.557 79.894C114.824 79.6748 115.026 79.3879 115.144 79.0633C115.268 78.6904 115.363 78.3082 115.426 77.9202H116.013C115.967 78.446 115.936 79.01 115.936 79.6272V80.5036C115.936 81.098 115.99 81.9592 116.089 83.0794H115.502C115.445 82.4671 115.244 81.8771 114.915 81.3571C114.72 81.1282 114.471 80.9513 114.19 80.8422C113.909 80.7332 113.606 80.6954 113.307 80.7322H111.189V85.1065C111.168 85.5337 111.22 85.9614 111.341 86.3715C111.389 86.4979 111.467 86.6109 111.568 86.7011C111.668 86.7913 111.789 86.856 111.92 86.8898C112.356 86.9963 112.805 87.0399 113.254 87.0193H115.151C115.844 87.0504 116.534 86.9254 117.171 86.6535C117.668 86.3958 118.063 85.9766 118.291 85.4647C118.59 84.736 118.77 83.9642 118.825 83.1785H119.411C119.357 83.7305 119.331 84.2851 119.335 84.8398C119.331 85.7616 119.382 86.6828 119.488 87.5985Z" fill="#273159"/>
<path d="M137 86.6306C136.7 87.0223 136.321 87.3468 135.887 87.5832C135.415 87.8209 134.891 87.9362 134.363 87.9185C132.931 87.9185 132.077 87.3317 131.734 86.1658L130.972 83.2852C130.847 82.5988 130.469 81.9843 129.913 81.5629C129.272 81.2298 128.553 81.077 127.832 81.1209H126.377V85.1522C126.356 85.5795 126.408 86.0071 126.529 86.4173C126.578 86.5449 126.656 86.6595 126.756 86.752C126.857 86.8446 126.977 86.9126 127.108 86.9507C127.546 87.0655 127.997 87.1269 128.45 87.1336V87.5985C127.687 87.5527 126.582 87.5223 125.203 87.5223C123.824 87.5223 122.65 87.5223 121.934 87.5985V87.1336C122.387 87.1269 122.837 87.0655 123.275 86.9507C123.406 86.9126 123.527 86.8446 123.627 86.752C123.728 86.6595 123.806 86.5449 123.854 86.4173C123.976 86.0071 124.027 85.5795 124.007 85.1522V76.0074C124.026 75.5777 123.975 75.1477 123.854 74.7347C123.804 74.6088 123.726 74.496 123.625 74.4049C123.525 74.3138 123.405 74.2468 123.275 74.2089C122.837 74.0941 122.387 74.0327 121.934 74.026V73.5612C122.65 73.6069 123.687 73.6297 125.051 73.6297H127.657C127.947 73.6297 128.274 73.6297 128.648 73.6297C130.17 73.541 131.687 73.8761 133.03 74.5976C133.485 74.8425 133.867 75.2049 134.135 75.6471C134.403 76.0894 134.547 76.5953 134.554 77.1124C134.54 77.5799 134.426 78.0391 134.222 78.4595C134.017 78.88 133.725 79.252 133.365 79.551C132.249 80.4158 130.889 80.9065 129.478 80.9532L130.339 81.0447C131.106 81.1256 131.842 81.3868 132.489 81.8067C133.06 82.2473 133.457 82.8765 133.609 83.5824L134.173 85.6781C134.253 86.0806 134.405 86.4654 134.622 86.8135C134.691 86.9159 134.785 86.9999 134.893 87.0583C135.002 87.1167 135.124 87.1478 135.247 87.1489C135.796 87.0881 136.3 86.8145 136.649 86.3868L137 86.6306ZM126.979 74.2165C126.863 74.2715 126.761 74.3511 126.679 74.4499C126.597 74.5486 126.538 74.6641 126.506 74.7881C126.406 75.1968 126.363 75.6173 126.377 76.0379V80.6941H128.107C129.631 80.6941 130.629 80.4045 131.155 79.833C131.746 79.1572 132.044 78.2748 131.986 77.3791C132.02 76.9235 131.955 76.4658 131.794 76.0381C131.634 75.6103 131.382 75.2227 131.056 74.9024C130.169 74.2775 129.088 73.9885 128.008 74.087C127.659 74.0593 127.309 74.1034 126.979 74.2165Z" fill="#273159"/>
<path d="M6.86147 72.761C7.31025 72.9042 7.7421 73.0958 8.14936 73.3326C8.4017 73.4874 8.68554 73.5838 8.98002 73.6145C9.05182 73.6166 9.12262 73.5974 9.18361 73.5595C9.24459 73.5215 9.29305 73.4665 9.32295 73.4012C9.42935 73.1862 9.49646 72.9539 9.52109 72.7153H10.085C10.0088 73.4774 9.96309 74.9101 9.96309 76.9067H9.39916C9.33012 75.8732 8.92919 74.8896 8.25605 74.1023C7.8908 73.7099 7.44281 73.4038 6.94456 73.2061C6.44632 73.0084 5.91032 72.924 5.37543 72.9592C4.60021 72.9234 3.837 73.1607 3.21877 73.6298C2.94836 73.8287 2.72968 74.0896 2.58115 74.3907C2.43261 74.6917 2.35857 75.0241 2.36526 75.3597C2.35345 75.8478 2.50648 76.3257 2.79964 76.7162C3.095 77.1141 3.46517 77.4506 3.88939 77.7069C4.3314 77.9812 4.95629 78.3317 5.77933 78.7585L6.48805 79.1243C7.32679 79.5526 8.14326 80.0231 8.9343 80.5341C9.49355 80.9038 9.97934 81.3741 10.367 81.9211C10.7319 82.4631 10.9208 83.1044 10.9081 83.7577C10.9306 84.3247 10.8072 84.8881 10.5497 85.3938C10.2922 85.8995 9.90914 86.3307 9.43726 86.6459C8.32715 87.3622 7.02322 87.7188 5.70312 87.6671C4.53516 87.7152 3.37538 87.4522 2.3424 86.905C2.08799 86.7473 1.8016 86.6484 1.50412 86.6154C1.43308 86.617 1.36376 86.6376 1.30343 86.6752C1.2431 86.7127 1.19396 86.7658 1.16119 86.8288C1.06149 87.0485 0.99719 87.2825 0.970668 87.5223H0.406738C0.467704 86.7653 0.498186 85.1192 0.498186 82.5841H1.06974C1.12297 83.8073 1.54837 84.9851 2.28905 85.9601C2.69475 86.4103 3.19849 86.7613 3.76138 86.9859C4.32427 87.2105 4.93125 87.3028 5.53546 87.2556C6.35367 87.2868 7.1587 87.0426 7.82167 86.5621C8.13174 86.3209 8.37745 86.0069 8.53698 85.648C8.69652 85.2891 8.76493 84.8963 8.73616 84.5045C8.73963 84.1297 8.65853 83.759 8.49888 83.4199C8.33922 83.0808 8.10514 82.7821 7.81405 82.546C6.9203 81.8323 5.94579 81.2261 4.91057 80.7399C3.94274 80.2445 3.16543 79.8025 2.56339 79.4215C1.99219 79.0588 1.49768 78.5876 1.10784 78.0345C0.725372 77.474 0.528157 76.8078 0.543911 76.1294C0.522272 75.6123 0.632646 75.0982 0.864633 74.6355C1.09662 74.1729 1.44258 73.7769 1.86991 73.485C2.84375 72.8477 3.99134 72.5281 5.15443 72.5705C5.72964 72.5516 6.30458 72.6157 6.86147 72.761Z" fill="#273159"/>
<path d="M25.8902 87.3623C24.7776 87.3216 22.9054 87.3013 20.2737 87.3013C17.134 87.3013 14.7564 87.3013 13.156 87.3623V86.9508C13.5902 86.9427 14.0221 86.8865 14.4439 86.7831C14.5661 86.753 14.6794 86.6946 14.7747 86.6125C14.8701 86.5304 14.9447 86.427 14.9926 86.3106C15.1138 85.9476 15.1655 85.5649 15.145 85.1828V74.9786C15.1646 74.594 15.1129 74.209 14.9926 73.8432C14.9423 73.7284 14.8668 73.6264 14.7719 73.5446C14.6769 73.4629 14.5649 73.4034 14.4439 73.3707C14.0221 73.2673 13.5902 73.2111 13.156 73.203V72.7915C14.7564 72.8372 17.134 72.8525 20.2737 72.8525C22.6742 72.8525 24.3889 72.8525 25.4025 72.7915C25.2939 73.5974 25.2353 74.4093 25.2272 75.2225C25.2188 75.6481 25.2443 76.0736 25.3034 76.4952H24.7395C24.6723 75.8193 24.5239 75.1541 24.2975 74.5138C24.1266 74.0947 23.8022 73.7567 23.3906 73.5688C22.7707 73.3346 22.1091 73.2308 21.4473 73.264H19.4126C18.9802 73.2483 18.5476 73.2867 18.1247 73.3783C18.0099 73.4114 17.9038 73.4696 17.8142 73.5487C17.7246 73.6278 17.6537 73.7257 17.6065 73.8355C17.4933 74.2029 17.4444 74.587 17.4617 74.971V79.8254H19.0849C19.552 79.8539 20.0162 79.7338 20.4109 79.4825C20.6902 79.2961 20.9077 79.0308 21.0358 78.7204C21.1574 78.3404 21.2441 77.9502 21.2949 77.5544L21.3635 77.1429H21.9274C21.8817 77.7221 21.8588 78.3699 21.8588 79.0786V80.0693C21.8588 80.7704 21.9046 81.7382 22.0036 82.988H21.4168C21.4168 82.8965 21.3482 82.5612 21.272 81.9897C21.2202 81.4835 20.971 81.0181 20.5786 80.6942C20.1316 80.3875 19.5957 80.2374 19.0544 80.2674H17.4236V85.2056C17.4061 85.5871 17.4551 85.9688 17.5684 86.3335C17.6152 86.4511 17.6906 86.5551 17.7877 86.6363C17.8848 86.7175 18.0007 86.7731 18.1247 86.7983C18.5476 86.89 18.9802 86.9284 19.4126 86.9127H21.2035C21.9804 86.9452 22.7564 86.8288 23.4897 86.5697C24.0021 86.367 24.4187 85.9776 24.6556 85.48C24.9578 84.7786 25.1406 84.0316 25.1967 83.27H25.7606C25.7089 83.761 25.686 84.2547 25.692 84.7484C25.7078 85.6228 25.774 86.4955 25.8902 87.3623Z" fill="#273159"/>
<path d="M2.65488 99.6466C2.30286 99.6596 1.95204 99.5984 1.62515 99.4672C1.29827 99.3359 1.00261 99.1374 0.757331 98.8846C0.270025 98.3487 0 97.6504 0 96.926C0 96.2017 0.270025 95.5034 0.757331 94.9675C0.998491 94.7043 1.29341 94.4959 1.6221 94.3565C1.9508 94.2172 2.30561 94.15 2.6625 94.1597C3.04517 94.1501 3.4252 94.2256 3.77512 94.3807C4.11757 94.5528 4.43329 94.7736 4.71247 95.0361L4.45337 95.3028C4.21905 95.063 3.93938 94.8721 3.63063 94.7412C3.32188 94.6104 2.99021 94.5423 2.65488 94.5408C2.35343 94.5336 2.05393 94.5911 1.77657 94.7094C1.4992 94.8277 1.2504 95.0041 1.04692 95.2266C0.619014 95.6934 0.389449 96.3083 0.40678 96.9413C0.3886 97.5736 0.621491 98.1873 1.05454 98.6483C1.25701 98.8726 1.50544 99.0507 1.78292 99.1704C2.0604 99.29 2.3604 99.3485 2.6625 99.3418C3.00139 99.3469 3.33719 99.2767 3.64557 99.136C3.96156 98.9745 4.2497 98.7636 4.49909 98.5112L4.76582 98.7703C4.48485 99.0512 4.16067 99.2854 3.80561 99.4637C3.4404 99.6095 3.04729 99.672 2.65488 99.6466Z" fill="#273159"/>
<path d="M5.41357 99.5553L7.89792 94.1827H8.27895L10.7481 99.5553H10.3137L9.63544 98.0312H6.49571L5.81747 99.5553H5.41357ZM6.67099 97.7035H9.48302L8.08082 94.6552L6.67099 97.7035Z" fill="#273159"/>
<path d="M11.731 99.6087C11.511 99.6092 11.2933 99.5651 11.0908 99.4792L11.2128 99.1515C11.3738 99.2204 11.5484 99.2517 11.7233 99.2429C11.7866 99.2509 11.8506 99.2509 11.9139 99.2429C11.9915 99.2184 12.0638 99.1797 12.1272 99.1286C12.2167 99.055 12.2939 98.9675 12.3559 98.8695C12.4365 98.7202 12.5053 98.5648 12.5616 98.4047C12.6397 98.1737 12.6983 97.9367 12.7369 97.6959C12.7826 97.4216 12.8207 97.0787 12.8512 96.6595C12.8817 96.2404 12.8969 95.7832 12.8969 95.2649V94.2438H16.1662V99.5783H15.7699V94.6096H13.278V95.2802C13.283 95.9241 13.2525 96.5677 13.1865 97.2082C13.1463 97.6406 13.0698 98.0689 12.9579 98.4885C12.8919 98.7644 12.77 99.0237 12.5997 99.2506C12.4919 99.3961 12.3508 99.5136 12.1882 99.5935C12.038 99.6267 11.883 99.6318 11.731 99.6087Z" fill="#273159"/>
<path d="M22.1257 98.8314C21.8803 99.098 21.5804 99.3088 21.2465 99.4495C20.9125 99.5902 20.5523 99.6574 20.19 99.6468C19.8288 99.6589 19.4692 99.5922 19.1363 99.4514C18.8033 99.3106 18.505 99.099 18.262 98.8314C17.7785 98.2997 17.5105 97.6068 17.5105 96.8881C17.5105 96.1694 17.7785 95.4765 18.262 94.9448C18.5133 94.687 18.8138 94.4821 19.1455 94.3421C19.4773 94.2022 19.8338 94.1301 20.1939 94.1301C20.5539 94.1301 20.9104 94.2022 21.2422 94.3421C21.5739 94.4821 21.8744 94.687 22.1257 94.9448C22.6093 95.4765 22.8772 96.1694 22.8772 96.8881C22.8772 97.6068 22.6093 98.2997 22.1257 98.8314ZM18.5745 98.5875C18.7804 98.8142 19.0325 98.9941 19.3138 99.115C19.5951 99.236 19.8991 99.2952 20.2053 99.2886C20.5087 99.2964 20.8101 99.2385 21.089 99.1188C21.3679 98.9991 21.6176 98.8205 21.8209 98.5952C22.2402 98.127 22.4721 97.5205 22.4721 96.8919C22.4721 96.2634 22.2402 95.6569 21.8209 95.1887C21.6161 94.9626 21.3653 94.7831 21.0853 94.6621C20.8053 94.5412 20.5026 94.4817 20.1977 94.4876C19.893 94.4787 19.5901 94.5361 19.3098 94.6558C19.0295 94.7756 18.7786 94.9548 18.5745 95.1811C18.1598 95.6516 17.931 96.2572 17.931 96.8843C17.931 97.5115 18.1598 98.1171 18.5745 98.5875Z" fill="#273159"/>
<path d="M24.229 99.5554V94.2209H24.6253V96.6977H28.0394V94.2286H28.4356V99.563H28.0394V97.0635H24.6253V99.563L24.229 99.5554Z" fill="#273159"/>
<path d="M48.1883 99.6469C47.8363 99.6598 47.4855 99.5987 47.1586 99.4674C46.8317 99.3361 46.5361 99.1376 46.2908 98.8848C45.8035 98.3489 45.5334 97.6506 45.5334 96.9263C45.5334 96.202 45.8035 95.5037 46.2908 94.9678C46.5319 94.7045 46.8269 94.4961 47.1556 94.3568C47.4843 94.2174 47.8391 94.1503 48.196 94.16C48.5786 94.1503 48.9587 94.2258 49.3086 94.381C49.651 94.5531 49.9667 94.7738 50.2459 95.0364L49.9868 95.3031C49.7525 95.0632 49.4728 94.8723 49.1641 94.7415C48.8553 94.6107 48.5237 94.5425 48.1883 94.541C47.8869 94.5339 47.5874 94.5914 47.31 94.7097C47.0326 94.828 46.7838 95.0043 46.5804 95.2269C46.1525 95.6936 45.9229 96.3086 45.9402 96.9415C45.922 97.5738 46.1549 98.1875 46.588 98.6486C46.7905 98.8729 47.0389 99.0509 47.3164 99.1706C47.5938 99.2903 47.8938 99.3487 48.196 99.342C48.5348 99.3472 48.8706 99.2769 49.179 99.1363C49.495 98.9748 49.7831 98.7638 50.0325 98.5114L50.2993 98.7705C50.0183 99.0515 49.6941 99.2856 49.3391 99.464C48.9738 99.6097 48.5807 99.6722 48.1883 99.6469Z" fill="#273159"/>
<path d="M51.3967 99.5554V94.2209H53.5991C54.046 94.201 54.4872 94.3267 54.8565 94.5791C55.0073 94.6905 55.129 94.8367 55.2112 95.0052C55.2935 95.1737 55.3339 95.3595 55.329 95.5469C55.3366 95.8279 55.252 96.1035 55.0883 96.3319C54.9246 96.5603 54.6906 96.7289 54.4221 96.812C55.1842 97.0177 55.6262 97.4521 55.6262 98.0999C55.6315 98.3059 55.5863 98.5101 55.4947 98.6947C55.4031 98.8793 55.2677 99.0388 55.1004 99.1591C54.6951 99.4421 54.207 99.5816 53.7134 99.5554H51.3967ZM51.793 96.6824H53.5534C53.9066 96.6985 54.2551 96.5966 54.5441 96.3928C54.6695 96.2968 54.7697 96.1716 54.8361 96.0283C54.9024 95.8849 54.933 95.7276 54.9251 95.5698C54.9281 95.4311 54.8979 95.2936 54.8369 95.169C54.7759 95.0444 54.686 94.9362 54.5746 94.8534C54.284 94.6614 53.9393 94.5678 53.5915 94.5867H51.793V96.6824ZM51.793 99.1896H53.7287C54.1143 99.2091 54.4961 99.105 54.8184 98.8924C54.9473 98.8017 55.0517 98.6804 55.1222 98.5394C55.1927 98.3984 55.2271 98.2422 55.2223 98.0846C55.2264 97.9318 55.1897 97.7807 55.116 97.6468C55.0424 97.5129 54.9344 97.401 54.8032 97.3226C54.4359 97.1189 54.0184 97.0238 53.5991 97.0482H51.793V99.1896Z" fill="#273159"/>
<path d="M56.4722 99.5553L58.9565 94.1827H59.3375L61.8219 99.5553H61.3875L60.7093 98.0312H57.5619L56.8837 99.5553H56.4722ZM57.7296 97.7035H60.5416L59.1394 94.6552L57.7296 97.7035Z" fill="#273159"/>
<path d="M62.2029 100.775V99.1896H62.7744C63.0867 98.7103 63.3017 98.1743 63.407 97.6121C63.5613 96.86 63.6354 96.0936 63.6279 95.3259V94.198H66.8972V99.1667H67.6212L67.545 100.752H67.2097V99.5325H62.6373L62.5611 100.752L62.2029 100.775ZM63.2317 99.1896H66.501V94.6171H64.0166V95.6688C64.0175 96.3577 63.946 97.0448 63.8032 97.7188C63.7067 98.2405 63.5128 98.7395 63.2317 99.1896Z" fill="#273159"/>
<path d="M68.6653 99.5554V94.2209H72.4756V94.5867H69.0768V96.6977H72.1251V97.0635H69.0768V99.2049H72.4756V99.5707L68.6653 99.5554Z" fill="#273159"/>
<path d="M73.7483 99.5554V94.2209H77.4672V94.5867H74.1446V96.4767H75.9431C76.4369 96.4517 76.9265 96.5795 77.3453 96.8425C77.5216 96.9702 77.6624 97.1409 77.7544 97.3382C77.8464 97.5356 77.8866 97.7531 77.8711 97.9703C77.884 98.1908 77.8461 98.4114 77.7602 98.6149C77.6743 98.8184 77.5428 98.9994 77.3757 99.1439C76.9819 99.4397 76.4956 99.5856 76.004 99.5554H73.7483ZM74.1446 99.1896H75.9278C76.949 99.1896 77.4519 98.7857 77.4519 97.9703C77.4611 97.807 77.428 97.6441 77.356 97.4973C77.2839 97.3505 77.1752 97.2247 77.0404 97.1321C76.6929 96.9196 76.2887 96.8186 75.8821 96.8425H74.1369L74.1446 99.1896Z" fill="#273159"/>
<path d="M79.1438 99.5554V94.2209H79.5401V96.6977H82.9541V94.2286H83.3504V99.563H82.9541V97.0635H79.5401V99.563L79.1438 99.5554Z" fill="#273159"/>
<path d="M84.9353 99.5554V94.2209H85.3316V96.3624H86.9091C87.3992 96.3466 87.8827 96.4794 88.296 96.7434C88.4792 96.8718 88.6266 97.0449 88.7239 97.2464C88.8213 97.4478 88.8655 97.6708 88.8523 97.8941C88.8612 98.1226 88.8185 98.3501 88.7275 98.5599C88.6365 98.7696 88.4994 98.9562 88.3265 99.1058C87.9366 99.4182 87.4463 99.578 86.9472 99.5554H84.9353ZM85.3316 99.1896H86.8557C87.2654 99.2149 87.6715 99.0993 88.0064 98.8619C88.1458 98.7473 88.2558 98.6011 88.3274 98.4354C88.3989 98.2697 88.43 98.0894 88.418 97.9094C88.4268 97.738 88.3924 97.5672 88.3178 97.4127C88.2432 97.2582 88.1309 97.125 87.9912 97.0254C87.637 96.808 87.2248 96.7043 86.81 96.7282H85.2858L85.3316 99.1896ZM89.5839 99.5554V94.2209H90.0031V99.5554H89.5839Z" fill="#273159"/>
<path d="M91.1616 99.5554L93.2878 96.8348L91.2378 94.2209H91.7103L93.5317 96.5681L95.3454 94.2209H95.8102L93.7679 96.8272L95.8864 99.5554H95.414L93.5164 97.094L91.6265 99.5554H91.1616Z" fill="#273159"/>
<path d="M99.3538 99.5554V94.2209H103.484V99.5554H103.088V94.5867H99.75V99.5554H99.3538Z" fill="#273159"/>
<path d="M104.917 99.6087C104.697 99.6092 104.479 99.5651 104.277 99.4792L104.399 99.1515C104.56 99.2204 104.734 99.2517 104.909 99.2429C104.973 99.2509 105.037 99.2509 105.1 99.2429C105.177 99.2184 105.25 99.1797 105.313 99.1286C105.403 99.055 105.48 98.9675 105.542 98.8695C105.623 98.7202 105.691 98.5648 105.748 98.4047C105.826 98.1737 105.884 97.9367 105.923 97.6959C105.969 97.4216 106.007 97.0787 106.037 96.6595C106.068 96.2404 106.083 95.7832 106.083 95.2649V94.2438H109.352V99.5783H108.956V94.6096H106.464V95.2802C106.469 95.9241 106.439 96.5677 106.373 97.2082C106.332 97.6406 106.256 98.0689 106.144 98.4885C106.078 98.7644 105.956 99.0237 105.786 99.2506C105.678 99.3961 105.537 99.5136 105.374 99.5935C105.224 99.6267 105.069 99.6318 104.917 99.6087Z" fill="#273159"/>
<path d="M110.48 99.5553L112.964 94.1827H113.345L115.83 99.5553H115.395L114.717 98.0312H111.57L110.892 99.5553H110.48ZM111.737 97.7035H114.549L113.147 94.6552L111.737 97.7035Z" fill="#273159"/>
<path d="M118.436 99.5554V94.5867H116.576V94.2209H120.692V94.5867H118.832V99.5554H118.436Z" fill="#273159"/>
<path d="M121.896 99.5554V94.2209H122.284V96.3624H123.87C124.36 96.3466 124.843 96.4794 125.256 96.7434C125.44 96.8718 125.587 97.0449 125.684 97.2464C125.782 97.4478 125.826 97.6708 125.813 97.8941C125.822 98.1226 125.779 98.3501 125.688 98.5599C125.597 98.7696 125.46 98.9562 125.287 99.1058C124.897 99.4182 124.407 99.578 123.908 99.5554H121.896ZM122.284 99.1896H123.809C124.216 99.2163 124.62 99.1005 124.952 98.8619C125.092 98.7486 125.204 98.6026 125.275 98.4366C125.347 98.2706 125.377 98.0896 125.363 97.9094C125.373 97.7387 125.34 97.5684 125.266 97.4139C125.193 97.2595 125.082 97.1259 124.944 97.0254C124.59 96.808 124.178 96.7043 123.763 96.7282H122.239L122.284 99.1896Z" fill="#273159"/>
<path d="M126.986 99.5554V94.2209H130.797V94.5867H127.398V96.6977H130.446V97.0635H127.398V99.2049H130.835V99.5707L126.986 99.5554Z" fill="#273159"/>
<path d="M132.092 99.5554V94.2209H134.287C134.736 94.1999 135.18 94.3256 135.552 94.5791C135.703 94.6905 135.825 94.8367 135.907 95.0052C135.989 95.1736 136.029 95.3595 136.025 95.5469C136.032 95.8288 135.946 96.1052 135.781 96.3338C135.616 96.5623 135.38 96.7303 135.11 96.8119C135.918 97.0177 136.322 97.4521 136.322 98.0998C136.327 98.3059 136.282 98.5101 136.19 98.6947C136.099 98.8793 135.963 99.0387 135.796 99.1591C135.391 99.4421 134.903 99.5815 134.409 99.5554H132.092ZM132.481 96.6824H134.249C134.602 96.6985 134.951 96.5966 135.24 96.3928C135.365 96.2967 135.465 96.1716 135.532 96.0283C135.598 95.8849 135.629 95.7276 135.621 95.5698C135.624 95.431 135.593 95.2936 135.532 95.169C135.471 95.0444 135.382 94.9361 135.27 94.8534C134.98 94.6613 134.635 94.5678 134.287 94.5867H132.481V96.6824ZM132.481 99.1896H134.417C134.805 99.2102 135.189 99.106 135.514 98.8924C135.642 98.8013 135.745 98.6797 135.814 98.5387C135.884 98.3976 135.917 98.2416 135.91 98.0846C135.916 97.9315 135.88 97.7798 135.806 97.6456C135.732 97.5113 135.623 97.3997 135.491 97.3225C135.125 97.1169 134.706 97.0216 134.287 97.0482H132.481V99.1896Z" fill="#273159"/>
</svg>
