<svg width="30" height="30" viewBox="0 0 30 30" fill="none" xmlns="http://www.w3.org/2000/svg">
<circle cx="15" cy="15" r="14.5" fill="white" stroke="#273159"/>
<path d="M23.2458 11.4128C23.1726 11.437 23.1053 11.4797 23.0488 11.5378C22.9924 11.5958 22.9484 11.6677 22.9201 11.748C22.8524 12.0112 22.8234 12.2852 22.8344 12.5591V18.3875C22.8229 18.6598 22.8518 18.9323 22.9201 19.1937C22.9476 19.2751 22.9912 19.3481 23.0477 19.4071C23.1042 19.4661 23.172 19.5094 23.2458 19.5337C23.4921 19.6069 23.7454 19.646 24 19.6503V19.9466C23.5715 19.9174 22.9501 19.898 22.1745 19.898C21.3989 19.898 20.739 19.898 20.3362 19.9466V19.6503C20.5908 19.646 20.844 19.6069 21.0904 19.5337C21.1641 19.5094 21.2319 19.4661 21.2885 19.4071C21.345 19.3481 21.3886 19.2751 21.4161 19.1937C21.4843 18.9323 21.5133 18.6598 21.5018 18.3875V11.9277L18.0393 20H17.8122L14.4827 11.9423V18.2223C14.4714 18.5093 14.5018 18.7965 14.5727 19.0723C14.6043 19.166 14.6537 19.2507 14.7174 19.3203C14.781 19.39 14.8574 19.4429 14.9412 19.4754C15.2172 19.5811 15.5069 19.6336 15.7982 19.6309V19.9271C15.4554 19.898 14.9669 19.8786 14.337 19.8786C13.7071 19.8786 13.3171 19.8786 13 19.9271V19.6309C13.2548 19.6309 13.5075 19.5782 13.7456 19.4754C13.8234 19.4378 13.8934 19.382 13.951 19.3117C14.0085 19.2414 14.0525 19.1582 14.0799 19.0675C14.1456 18.7922 14.1745 18.5073 14.1656 18.2223V12.5591C14.1766 12.2852 14.1476 12.0112 14.0799 11.748C14.0516 11.6677 14.0076 11.5958 13.9512 11.5378C13.8947 11.4797 13.8274 11.437 13.7542 11.4128C13.5079 11.3397 13.2546 11.3005 13 11.2963V11C13.3171 11.0291 13.7628 11.0437 14.337 11.0437C14.7969 11.0437 15.204 11.0291 15.5582 11L18.4422 18.1495L21.5146 11.0437H22.1702C22.9473 11.0437 23.5558 11.0291 23.9957 11V11.2963C23.7425 11.3009 23.4907 11.3401 23.2458 11.4128Z" fill="#273159"/>
<path d="M9.68703 11.1157C9.94338 11.201 10.1901 11.3152 10.4227 11.4563C10.5668 11.5485 10.729 11.6059 10.8972 11.6243C10.9382 11.6255 10.9786 11.6141 11.0135 11.5914C11.0483 11.5688 11.076 11.536 11.0931 11.4971C11.1538 11.369 11.1922 11.2306 11.2062 11.0885H11.5284C11.4848 11.5425 11.4587 12.3961 11.4587 13.5857H11.1366C11.0972 12.9699 10.8681 12.3839 10.4836 11.9148C10.275 11.6811 10.0191 11.4987 9.7345 11.3809C9.4499 11.2631 9.14372 11.2128 8.83819 11.2338C8.39537 11.2125 7.95942 11.3539 7.60627 11.6333C7.45181 11.7518 7.3269 11.9073 7.24205 12.0867C7.15721 12.266 7.11492 12.464 7.11873 12.664C7.11199 12.9548 7.1994 13.2395 7.36686 13.4722C7.53558 13.7093 7.74702 13.9098 7.98934 14.0624C8.24182 14.2259 8.59877 14.4347 9.0689 14.689L9.47373 14.9069C9.95284 15.1621 10.4192 15.4424 10.8711 15.7469C11.1905 15.9672 11.468 16.2474 11.6894 16.5732C11.8979 16.8962 12.0058 17.2783 11.9985 17.6675C12.0114 18.0053 11.9409 18.341 11.7938 18.6423C11.6467 18.9436 11.4279 19.2004 11.1584 19.3883C10.5243 19.815 9.77943 20.0274 9.02537 19.9967C8.35821 20.0253 7.69573 19.8686 7.10567 19.5426C6.96035 19.4487 6.79677 19.3897 6.62684 19.3701C6.58626 19.371 6.54666 19.3833 6.5122 19.4057C6.47774 19.4281 6.44967 19.4597 6.43095 19.4972C6.374 19.6281 6.33727 19.7676 6.32212 19.9104H6C6.03482 19.4594 6.05224 18.4787 6.05224 16.9683H6.37871C6.40912 17.697 6.65212 18.3988 7.0752 18.9796C7.30694 19.2479 7.59469 19.457 7.91622 19.5908C8.23775 19.7247 8.58447 19.7796 8.9296 19.7515C9.39697 19.7701 9.85682 19.6246 10.2355 19.3383C10.4126 19.1946 10.553 19.0076 10.6441 18.7937C10.7352 18.5798 10.7743 18.3458 10.7579 18.1124C10.7599 17.8891 10.7135 17.6682 10.6223 17.4662C10.5312 17.2642 10.3974 17.0862 10.2312 16.9456C9.72064 16.5203 9.16399 16.1592 8.57265 15.8695C8.01981 15.5744 7.5758 15.311 7.23191 15.084C6.90563 14.8679 6.62316 14.5872 6.40048 14.2577C6.18201 13.9237 6.06936 13.5268 6.07836 13.1226C6.06599 12.8145 6.12904 12.5082 6.26156 12.2326C6.39407 11.9569 6.59169 11.721 6.83578 11.5471C7.39206 11.1673 8.04758 10.977 8.71195 11.0022C9.04052 10.9909 9.36893 11.0292 9.68703 11.1157Z" fill="#273159"/>
</svg>
