<svg width="51" height="42" viewBox="0 0 51 42" fill="none" xmlns="http://www.w3.org/2000/svg">
<path d="M25.3147 1C25.3147 1 25.1615 1.92187 28.0097 1.9361C28.3543 1.89653 28.7032 1.944 29.0248 2.0742C29.3463 2.2044 29.6303 2.41318 29.8509 2.68156C30.6708 3.57498 35.3006 10.6483 38.0155 14.7512C38.6169 15.767 37.4935 17.1128 37.2127 17.4059L29.5332 25.4694C29.5332 25.4694 28.4693 26.5591 27.2863 24.7581C26.8126 24.3057 26.1289 24.8747 26.1289 24.8747C25.915 25.0062 25.6768 25.0929 25.4287 25.1296C25.1805 25.1663 24.9275 25.1522 24.6849 25.0881C23.9303 24.852 25.3175 24.354 25.3175 24.354C25.7561 24.1373 26.219 23.974 26.6963 23.8675C27.2863 23.7736 25.831 23.5375 25.536 23.7139C25.2574 23.9289 24.9283 24.068 24.5803 24.1179C24.2324 24.1677 23.8775 24.1266 23.5501 23.9984C22.5345 23.5944 24.8267 23.3696 24.8636 23.3212C25.0201 23.1127 25.2241 22.9447 25.4585 22.8314C25.6929 22.718 25.951 22.6626 26.2111 22.6696C27.1445 22.6469 25.6182 22.2542 25.0764 22.4676C24.5345 22.681 24.248 23.2501 23.0537 22.7778C22.77 22.5558 23.431 22.368 24.2906 22.0892C25.6551 20.5471 27.187 21.7677 27.187 21.7677C27.187 21.7677 26.2565 21.1986 25.5189 21.2356C25.0282 21.5201 24.4126 21.6311 24.1657 21.5429C23.5984 21.3437 23.7742 21.1759 24.4494 20.8202C25.1246 20.4646 25.3005 20.0264 25.7743 20.3479C26.248 20.6694 27.9473 22.5985 28.1005 22.8603C28.2537 23.122 28.6225 23.2159 29.0594 22.7408" stroke="#273159" stroke-width="0.3" stroke-miterlimit="10"/>
<path d="M29.0567 22.7307C29.0567 22.7307 34.3107 16.6617 34.3929 16.3345C34.6369 15.9788 34.8724 15.5719 33.8255 14.2204C32.7787 12.8689 29.8709 8.86562 27.956 8.48435C26.0411 8.10308 24.0921 8.35916 23.0623 8.75181C22.0325 9.14445 20.9886 10.1375 19.9247 10.1574C18.8609 10.1773 16.5914 7.96935 14.9601 7.98643C13.3289 8.0035 12.2481 9.05341 12.2112 10.3793C12.1743 11.7052 14.4098 15.589 14.2878 18.753C14.1658 21.9169 11.8566 23.1631 11.9105 27.966C11.9644 32.7688 14.6226 38.9203 14.5346 41.0002" stroke="#273159" stroke-width="0.3" stroke-miterlimit="10"/>
<path d="M23.4365 28.5495C23.3881 28.5636 23.3435 28.5886 23.3061 28.6226C23.2688 28.6567 23.2396 28.6988 23.2209 28.7458C23.1761 28.9 23.1569 29.0605 23.1642 29.221V32.6353C23.1565 32.7948 23.1757 32.9545 23.2209 33.1076C23.2391 33.1553 23.268 33.198 23.3054 33.2326C23.3428 33.2671 23.3877 33.2925 23.4365 33.3068C23.5996 33.3496 23.7673 33.3726 23.9358 33.3751V33.5486C23.6521 33.5315 23.2408 33.5202 22.7273 33.5202C22.2138 33.5202 21.7769 33.5202 21.5103 33.5486V33.3751C21.6788 33.3726 21.8465 33.3496 22.0096 33.3068C22.0584 33.2925 22.1033 33.2671 22.1407 33.2326C22.1781 33.198 22.207 33.1553 22.2252 33.1076C22.2704 32.9545 22.2896 32.7948 22.2819 32.6353V28.8511L19.9897 33.5799H19.8393L17.6351 28.8596V32.5385C17.6276 32.7067 17.6477 32.8749 17.6946 33.0365C17.7156 33.0914 17.7483 33.1409 17.7905 33.1818C17.8326 33.2226 17.8832 33.2536 17.9386 33.2726C18.1214 33.3345 18.3131 33.3653 18.506 33.3637V33.5372C18.279 33.5202 17.9556 33.5088 17.5386 33.5088C17.1216 33.5088 16.8634 33.5088 16.6535 33.5372V33.3637C16.8222 33.3637 16.9895 33.3328 17.1471 33.2726C17.1986 33.2506 17.245 33.2179 17.2831 33.1767C17.3212 33.1355 17.3503 33.0868 17.3684 33.0336C17.4119 32.8724 17.4311 32.7055 17.4251 32.5385V29.221C17.4324 29.0605 17.4133 28.9 17.3684 28.7458C17.3497 28.6988 17.3206 28.6567 17.2832 28.6226C17.2459 28.5886 17.2013 28.5636 17.1528 28.5495C16.9897 28.5066 16.8221 28.4837 16.6535 28.4812V28.3076C16.8634 28.3247 17.1585 28.3332 17.5386 28.3332C17.8431 28.3332 18.1126 28.3247 18.3471 28.3076L20.2564 32.4959L22.2904 28.3332H22.7245C23.2389 28.3332 23.6417 28.3247 23.933 28.3076V28.4812C23.7654 28.4839 23.5987 28.5068 23.4365 28.5495Z" fill="#273159"/>
<path d="M30.2168 33.3653V33.5389C29.9614 33.5218 29.6239 33.5105 29.1983 33.5105C28.6536 33.5105 28.248 33.5104 27.9841 33.5389V33.3653C28.1596 33.3642 28.3339 33.3354 28.5004 33.28C28.5498 33.2646 28.5928 33.2335 28.623 33.1914C28.6532 33.1493 28.6689 33.0985 28.6678 33.0467C28.6514 32.9043 28.606 32.7667 28.5345 32.6426L28.0494 31.6639H25.7401L25.4167 32.3069C25.3242 32.4772 25.2691 32.6654 25.255 32.8589C25.2528 32.9269 25.2678 32.9944 25.2985 33.0551C25.3293 33.1158 25.3748 33.1677 25.4309 33.206C25.6037 33.306 25.7988 33.3608 25.9983 33.3653V33.5389C25.8082 33.5218 25.5217 33.5105 25.1472 33.5105C24.7728 33.5105 24.4834 33.5104 24.3188 33.5389V33.3653C24.4882 33.326 24.641 33.2345 24.7557 33.1036C24.8954 32.9418 25.011 32.7607 25.099 32.5658L27.1983 28.2666H27.3515L29.5756 32.819C29.7317 33.1719 29.9501 33.354 30.2168 33.3653ZM27.9728 31.4903L26.9004 29.308L25.8167 31.4903H27.9728Z" fill="#273159"/>
<path d="M36.1942 33.1772C36.0796 33.3199 35.9366 33.4372 35.7743 33.5214C35.5986 33.6102 35.4035 33.6532 35.2069 33.6466C34.6764 33.6466 34.3559 33.4276 34.2282 32.9922L33.9445 31.9167C33.8979 31.6604 33.7572 31.431 33.5502 31.2737C33.3117 31.1493 33.044 31.0923 32.7757 31.1086H32.2339V32.6138C32.2262 32.7733 32.2454 32.933 32.2906 33.0861C32.3088 33.1338 32.3377 33.1765 32.3751 33.2111C32.4125 33.2457 32.4574 33.2711 32.5062 33.2853C32.6693 33.3282 32.8369 33.3511 33.0055 33.3536V33.5271C32.7218 33.5101 32.3105 33.4987 31.797 33.4987C31.2835 33.4987 30.8466 33.4987 30.58 33.5271V33.3536C30.7485 33.3511 30.9162 33.3282 31.0792 33.2853C31.1281 33.2711 31.173 33.2457 31.2104 33.2111C31.2478 33.1765 31.2767 33.1338 31.2949 33.0861C31.3401 32.933 31.3592 32.7733 31.3516 32.6138V29.1995C31.3589 29.039 31.3397 28.8785 31.2949 28.7243C31.2762 28.6773 31.247 28.6352 31.2097 28.6012C31.1723 28.5671 31.1277 28.5421 31.0792 28.528C30.9162 28.4851 30.7485 28.4622 30.58 28.4597V28.2861C30.8466 28.3032 31.2324 28.3117 31.7402 28.3117H32.7105C32.8183 28.3117 32.9403 28.3117 33.0793 28.3117C33.6459 28.2783 34.2106 28.4034 34.7105 28.6731C34.88 28.7645 35.0221 28.8998 35.1218 29.065C35.2216 29.2301 35.2755 29.419 35.2779 29.612C35.2727 29.7866 35.2305 29.958 35.1542 30.115C35.0779 30.272 34.9692 30.4109 34.8353 30.5225C34.42 30.8454 33.9137 31.0286 33.3885 31.0461L33.7119 31.0802C33.9962 31.1109 34.2693 31.2083 34.5091 31.3647C34.722 31.5292 34.8697 31.7641 34.9261 32.0277L35.136 32.8101C35.1658 32.9604 35.2225 33.1041 35.3034 33.2341C35.3291 33.2723 35.3638 33.3037 35.4043 33.3255C35.4448 33.3473 35.49 33.3589 35.536 33.3593C35.7404 33.3366 35.9278 33.2344 36.058 33.0747L36.1942 33.1772ZM32.4637 28.5422C32.4206 28.5627 32.3825 28.5925 32.3521 28.6293C32.3217 28.6662 32.2998 28.7093 32.2878 28.7556C32.2506 28.9082 32.2343 29.0652 32.2395 29.2222V30.9607H32.8778C33.4452 30.9607 33.8169 30.8526 34.0126 30.6392C34.2325 30.3869 34.3437 30.0574 34.3218 29.723C34.3347 29.5529 34.3104 29.382 34.2506 29.2223C34.1908 29.0626 34.097 28.9179 33.9757 28.7983C33.6455 28.565 33.2433 28.4571 32.841 28.4938C32.7132 28.4843 32.5849 28.5007 32.4637 28.5422Z" fill="#273159"/>
<path d="M38.9404 28.4812C38.7718 28.4837 38.6041 28.5066 38.4411 28.5495C38.3927 28.5632 38.3483 28.5881 38.3114 28.6222C38.2744 28.6563 38.2459 28.6986 38.2283 28.7458C38.1808 28.8994 38.1606 29.0603 38.1687 29.221V32.6353C38.1603 32.795 38.1805 32.955 38.2283 33.1076C38.2454 33.1554 38.2736 33.1984 38.3106 33.2331C38.3476 33.2677 38.3923 33.293 38.4411 33.3068C38.6041 33.3496 38.7718 33.3726 38.9404 33.3751V33.5486C38.6567 33.5315 38.2453 33.5202 37.7318 33.5202C37.2184 33.5202 36.7815 33.5202 36.5176 33.5486V33.3751C36.6862 33.3723 36.8538 33.3494 37.0169 33.3068C37.0653 33.2922 37.1096 33.2666 37.1465 33.2321C37.1834 33.1975 37.2118 33.1549 37.2297 33.1076C37.2749 32.9545 37.2941 32.7948 37.2864 32.6353V29.221C37.2937 29.0605 37.2746 28.9 37.2297 28.7458C37.2113 28.6991 37.1826 28.6572 37.1458 28.6232C37.1089 28.5892 37.0649 28.564 37.0169 28.5495C36.8538 28.5068 36.6862 28.4839 36.5176 28.4812V28.3076C36.7815 28.3247 37.1871 28.3332 37.7318 28.3332C38.2765 28.3332 38.6425 28.3332 38.9404 28.3076V28.4812Z" fill="#273159"/>
<path d="M44.4808 33.5379C44.0695 33.5208 43.3745 33.5094 42.3986 33.5094C41.2269 33.5094 40.339 33.5094 39.7375 33.5379V33.3643C39.9061 33.3618 40.0738 33.3389 40.2368 33.296C40.2856 33.2822 40.3303 33.257 40.3673 33.2223C40.4043 33.1877 40.4325 33.1447 40.4496 33.0969C40.4974 32.9442 40.5176 32.7843 40.5092 32.6245V29.2102C40.5173 29.0495 40.4971 28.8887 40.4496 28.735C40.432 28.6879 40.4035 28.6456 40.3665 28.6115C40.3296 28.5774 40.2852 28.5524 40.2368 28.5387C40.0738 28.4959 39.9061 28.4729 39.7375 28.4704V28.2969C40.339 28.3139 41.226 28.3225 42.3986 28.3225C43.2856 28.3225 43.9163 28.3139 44.2908 28.2969C44.248 28.6052 44.2252 28.916 44.2227 29.2273C44.2211 29.4051 44.2306 29.5828 44.2511 29.7593H44.0326C44.0306 29.4048 43.9164 29.0601 43.7064 28.7749C43.5912 28.6719 43.4564 28.5936 43.3101 28.5447C43.1637 28.4958 43.009 28.4773 42.8553 28.4904H42.1603C41.9935 28.4835 41.8266 28.4988 41.6638 28.5359C41.6153 28.5489 41.5705 28.5732 41.533 28.6068C41.4956 28.6404 41.4665 28.6824 41.4482 28.7294C41.4034 28.8835 41.3842 29.0441 41.3915 29.2045V30.8036H42.1801C42.3473 30.8147 42.5128 30.7641 42.6454 30.6613C42.7447 30.5795 42.8201 30.4724 42.8638 30.3512C42.9101 30.2119 42.9452 30.0692 42.9688 29.9244H43.1872C43.1702 30.1207 43.1589 30.3312 43.1589 30.5617V30.8889C43.1589 31.1109 43.1787 31.4324 43.2156 31.8506H42.9972C42.9758 31.622 42.9009 31.4017 42.7787 31.2076C42.7059 31.1221 42.6132 31.0561 42.5087 31.0154C42.4042 30.9746 42.2913 30.9605 42.1801 30.9743H41.3915V32.6075C41.3838 32.767 41.403 32.9267 41.4482 33.0798C41.4661 33.127 41.495 33.1692 41.5325 33.2028C41.5701 33.2365 41.6151 33.2607 41.6638 33.2733C41.8261 33.313 41.9933 33.3293 42.1603 33.3216H42.8667C43.1243 33.3332 43.3812 33.2866 43.6184 33.1851C43.8036 33.0888 43.9507 32.9323 44.0355 32.7412C44.1467 32.4691 44.2137 32.181 44.234 31.8876H44.4525C44.432 32.0937 44.4226 32.3008 44.4241 32.5079C44.4224 32.852 44.4414 33.196 44.4808 33.5379Z" fill="#273159"/>
<path d="M51 33.1765C50.8882 33.3228 50.7472 33.4439 50.5859 33.5322C50.4102 33.6209 50.2151 33.664 50.0185 33.6574C49.4851 33.6574 49.1674 33.4383 49.0397 33.003L48.756 31.9275C48.7094 31.6712 48.5687 31.4418 48.3617 31.2844C48.1232 31.1601 47.8555 31.103 47.5872 31.1194H47.0454V32.6245C47.0377 32.7841 47.0569 32.9437 47.1021 33.0969C47.1203 33.1445 47.1492 33.1873 47.1866 33.2219C47.224 33.2564 47.2689 33.2818 47.3177 33.296C47.4808 33.3389 47.6485 33.3618 47.817 33.3643V33.5379C47.5333 33.5208 47.122 33.5094 46.6085 33.5094C46.095 33.5094 45.6581 33.5094 45.3915 33.5379V33.3643C45.56 33.3618 45.7277 33.3389 45.8908 33.296C45.9396 33.2818 45.9845 33.2564 46.0219 33.2219C46.0593 33.1873 46.0882 33.1445 46.1064 33.0969C46.1516 32.9437 46.1708 32.7841 46.1631 32.6245V29.2102C46.1704 29.0498 46.1512 28.8892 46.1064 28.735C46.0877 28.688 46.0586 28.6459 46.0212 28.6119C45.9838 28.5779 45.9392 28.5529 45.8908 28.5387C45.7277 28.4959 45.56 28.4729 45.3915 28.4704V28.2969C45.6581 28.3139 46.044 28.3225 46.5518 28.3225H47.522C47.6298 28.3225 47.7518 28.3225 47.8908 28.3225C48.4574 28.2894 49.022 28.4144 49.522 28.6838C49.6916 28.7753 49.8336 28.9106 49.9334 29.0757C50.0331 29.2408 50.087 29.4297 50.0894 29.6228C50.0842 29.7973 50.042 29.9688 49.9657 30.1257C49.8894 30.2827 49.7807 30.4216 49.6468 30.5333C49.2315 30.8561 48.7252 31.0394 48.2 31.0568L48.5206 31.0909C48.8059 31.1212 49.08 31.2187 49.3206 31.3755C49.5335 31.54 49.6813 31.7749 49.7376 32.0384L49.9475 32.8209C49.9773 32.9712 50.034 33.1148 50.1149 33.2448C50.1407 33.283 50.1753 33.3144 50.2158 33.3362C50.2564 33.358 50.3016 33.3696 50.3475 33.37C50.552 33.3473 50.7394 33.2452 50.8695 33.0855L51 33.1765ZM47.2695 28.5416C47.2264 28.5621 47.1883 28.5918 47.158 28.6287C47.1276 28.6656 47.1056 28.7087 47.0936 28.755C47.0564 28.9076 47.0402 29.0646 47.0454 29.2216V30.9601H47.6894C48.2568 30.9601 48.6284 30.8519 48.8241 30.6385C49.044 30.3862 49.1552 30.0568 49.1334 29.7224C49.1462 29.5523 49.1219 29.3814 49.0622 29.2217C49.0024 29.0619 48.9086 28.9172 48.7873 28.7976C48.457 28.5643 48.0548 28.4564 47.6525 28.4932C47.5229 28.4829 47.3925 28.4993 47.2695 28.5416Z" fill="#273159"/>
<path d="M2.55337 27.9983C2.72043 28.0518 2.88119 28.1233 3.0328 28.2117C3.12674 28.2695 3.23241 28.3055 3.34203 28.317C3.36875 28.3177 3.39511 28.3106 3.41782 28.2964C3.44052 28.2823 3.45856 28.2617 3.46969 28.2373C3.5093 28.157 3.53428 28.0703 3.54345 27.9812H3.75338C3.72501 28.2658 3.70799 28.8007 3.70799 29.5461H3.49806C3.47236 29.1603 3.32311 28.793 3.07252 28.4991C2.93655 28.3526 2.76978 28.2383 2.5843 28.1645C2.39882 28.0907 2.19929 28.0592 2.00017 28.0723C1.71159 28.0589 1.42747 28.1475 1.19733 28.3227C1.09666 28.3969 1.01526 28.4944 0.959964 28.6068C0.904671 28.7192 0.877109 28.8432 0.879596 28.9685C0.875203 29.1508 0.932169 29.3292 1.0413 29.475C1.15125 29.6236 1.28905 29.7492 1.44698 29.8449C1.61152 29.9473 1.84414 30.0782 2.15053 30.2375L2.41436 30.3741C2.72659 30.534 3.03053 30.7097 3.32501 30.9005C3.5332 31.0385 3.71404 31.2141 3.85834 31.4183C3.99417 31.6207 4.06451 31.8601 4.05976 32.104C4.06816 32.3158 4.02223 32.5261 3.92637 32.7149C3.8305 32.9037 3.6879 33.0647 3.51224 33.1824C3.09899 33.4498 2.61359 33.583 2.12216 33.5637C1.68737 33.5816 1.25563 33.4834 0.871086 33.2791C0.77638 33.2203 0.66977 33.1833 0.559026 33.171C0.53258 33.1716 0.506777 33.1793 0.484317 33.1933C0.461857 33.2073 0.443568 33.2272 0.431365 33.2507C0.394253 33.3327 0.370316 33.4201 0.360443 33.5096H0.150513C0.173208 33.227 0.184555 32.6124 0.184555 31.6659H0.397323C0.417139 32.1226 0.575499 32.5623 0.851228 32.9263C1.00225 33.0944 1.18978 33.2255 1.39932 33.3093C1.60886 33.3932 1.83482 33.4277 2.05975 33.41C2.36434 33.4217 2.66402 33.3305 2.91082 33.1511C3.02624 33.0611 3.11771 32.9438 3.1771 32.8098C3.23649 32.6758 3.26196 32.5291 3.25125 32.3829C3.25254 32.243 3.22235 32.1045 3.16292 31.9779C3.10348 31.8513 3.01634 31.7398 2.90798 31.6516C2.57527 31.3852 2.2125 31.1589 1.82712 30.9773C1.46684 30.7924 1.17747 30.6273 0.953355 30.4851C0.740719 30.3497 0.556628 30.1737 0.411507 29.9672C0.269128 29.758 0.195713 29.5092 0.201577 29.2559C0.193522 29.0629 0.23461 28.8709 0.32097 28.6982C0.40733 28.5255 0.536117 28.3776 0.695197 28.2686C1.05772 28.0307 1.48493 27.9114 1.9179 27.9272C2.13203 27.9201 2.34606 27.9441 2.55337 27.9983Z" fill="#273159"/>
<path d="M9.63792 33.4509C9.22374 33.4357 8.5268 33.4282 7.54713 33.4282C6.37832 33.4282 5.49321 33.4282 4.89746 33.4509V33.2973C5.05909 33.2943 5.21989 33.2733 5.3769 33.2347C5.42237 33.2234 5.46457 33.2016 5.50006 33.171C5.53555 33.1403 5.56333 33.1017 5.58115 33.0583C5.62626 32.9227 5.6455 32.7799 5.63789 32.6372V28.8273C5.64519 28.6837 5.62596 28.54 5.58115 28.4034C5.56242 28.3605 5.53434 28.3225 5.499 28.2919C5.46365 28.2614 5.42192 28.2392 5.3769 28.227C5.21989 28.1884 5.05909 28.1674 4.89746 28.1644V28.0107C5.49321 28.0278 6.37832 28.0335 7.54713 28.0335C8.44075 28.0335 9.07905 28.0335 9.45636 28.0107C9.41594 28.3116 9.39415 28.6148 9.39111 28.9184C9.388 29.0773 9.39749 29.2362 9.41948 29.3935H9.20955C9.18457 29.1412 9.12932 28.8928 9.04501 28.6538C8.98142 28.4973 8.86066 28.3711 8.70742 28.301C8.47666 28.2135 8.23038 28.1748 7.98401 28.1872H7.22656C7.0656 28.1813 6.90453 28.1956 6.74712 28.2298C6.70438 28.2422 6.6649 28.2639 6.63154 28.2935C6.59819 28.323 6.57177 28.3596 6.55421 28.4005C6.51209 28.5377 6.49386 28.6811 6.50031 28.8245V30.6369H7.10457C7.27846 30.6476 7.45124 30.6027 7.59819 30.5089C7.70217 30.4393 7.78315 30.3403 7.83082 30.2244C7.87608 30.0825 7.90837 29.9368 7.92727 29.789L7.9528 29.6354H8.16273C8.14571 29.8516 8.1372 30.0935 8.1372 30.3581V30.728C8.1372 30.9897 8.15422 31.3511 8.1911 31.8177H7.97266C7.97266 31.7836 7.94713 31.6584 7.91876 31.445C7.89944 31.256 7.8067 31.0822 7.6606 30.9613C7.49421 30.8468 7.2947 30.7908 7.09322 30.802H6.48613V32.6457C6.4796 32.7881 6.49784 32.9306 6.54003 33.0668C6.55746 33.1107 6.58552 33.1496 6.62168 33.1799C6.65783 33.2102 6.70095 33.231 6.74712 33.2404C6.90453 33.2746 7.0656 33.2889 7.22656 33.283H7.89323C8.18246 33.2952 8.47135 33.2517 8.7443 33.155C8.93507 33.0793 9.09016 32.9339 9.17834 32.7481C9.29082 32.4863 9.3589 32.2074 9.37976 31.923H9.58969C9.57044 32.1063 9.56191 32.2907 9.56416 32.475C9.57004 32.8014 9.59467 33.1273 9.63792 33.4509Z" fill="#273159"/>
<path d="M0.988315 38.0362C0.85727 38.0411 0.726672 38.0183 0.604984 37.9692C0.483297 37.9202 0.373234 37.8461 0.281926 37.7517C0.10052 37.5516 0 37.2909 0 37.0205C0 36.7501 0.10052 36.4893 0.281926 36.2892C0.371701 36.191 0.481487 36.1132 0.603849 36.0611C0.726211 36.0091 0.858294 35.984 0.991152 35.9876C1.1336 35.984 1.27508 36.0122 1.40534 36.0702C1.53282 36.1344 1.65035 36.2168 1.75428 36.3149L1.65782 36.4144C1.5706 36.3249 1.46649 36.2536 1.35155 36.2048C1.23661 36.1559 1.11314 36.1305 0.988315 36.1299C0.876093 36.1272 0.764603 36.1487 0.66135 36.1929C0.558097 36.2371 0.465478 36.3029 0.389729 36.386C0.230436 36.5603 0.144977 36.7898 0.151429 37.0262C0.144662 37.2622 0.231358 37.4914 0.392565 37.6635C0.467939 37.7473 0.560421 37.8137 0.663715 37.8584C0.767009 37.9031 0.878689 37.9249 0.991152 37.9224C1.11731 37.9244 1.24231 37.8981 1.35711 37.8456C1.47474 37.7853 1.582 37.7066 1.67484 37.6123L1.77414 37.709C1.66954 37.8139 1.54886 37.9014 1.41669 37.968C1.28073 38.0224 1.13439 38.0457 0.988315 38.0362Z" fill="#273159"/>
<path d="M2.01526 38.003L2.94009 35.9971H3.08193L4.00109 38.003H3.83939L3.5869 37.4339H2.4181L2.16561 38.003H2.01526ZM2.48335 37.3116H3.53016L3.00817 36.1735L2.48335 37.3116Z" fill="#273159"/>
<path d="M4.36696 38.0226C4.28509 38.0228 4.20403 38.0063 4.12866 37.9742L4.17405 37.8519C4.23399 37.8776 4.299 37.8893 4.36413 37.886C4.38767 37.889 4.4115 37.889 4.43505 37.886C4.46394 37.8769 4.49088 37.8624 4.51448 37.8434C4.5478 37.8159 4.57653 37.7832 4.59959 37.7466C4.62963 37.6909 4.65524 37.6328 4.67618 37.5731C4.70525 37.4868 4.72707 37.3983 4.74143 37.3084C4.75846 37.206 4.77264 37.078 4.78399 36.9215C4.79534 36.765 4.80101 36.5943 4.80101 36.4008V36.0195H6.01804V38.0112H5.87052V36.1561H4.94285V36.4065C4.94473 36.6469 4.93337 36.8872 4.90881 37.1263C4.89383 37.2878 4.86536 37.4477 4.8237 37.6044C4.79914 37.7073 4.75376 37.8042 4.69037 37.8889C4.65022 37.9432 4.59769 37.9871 4.53718 38.0169C4.48127 38.0293 4.42357 38.0312 4.36696 38.0226Z" fill="#273159"/>
<path d="M8.2365 37.7328C8.14514 37.8324 8.03352 37.9111 7.9092 37.9636C7.78489 38.0161 7.65077 38.0412 7.51593 38.0373C7.38144 38.0418 7.24758 38.0169 7.12364 37.9643C6.9997 37.9117 6.88865 37.8327 6.79819 37.7328C6.61818 37.5343 6.51843 37.2756 6.51843 37.0073C6.51843 36.7389 6.61818 36.4802 6.79819 36.2817C6.89176 36.1855 7.00359 36.1089 7.1271 36.0567C7.25061 36.0045 7.3833 35.9775 7.51735 35.9775C7.65139 35.9775 7.78408 36.0045 7.90759 36.0567C8.0311 36.1089 8.14294 36.1855 8.2365 36.2817C8.41651 36.4802 8.51626 36.7389 8.51626 37.0073C8.51626 37.2756 8.41651 37.5343 8.2365 37.7328ZM6.9145 37.6418C6.99115 37.7264 7.08501 37.7936 7.18974 37.8387C7.29446 37.8839 7.40763 37.906 7.5216 37.9035C7.63454 37.9064 7.74677 37.8848 7.85058 37.8401C7.9544 37.7954 8.04734 37.7287 8.12303 37.6446C8.27913 37.4698 8.36545 37.2434 8.36545 37.0087C8.36545 36.774 8.27913 36.5476 8.12303 36.3728C8.04681 36.2884 7.95344 36.2213 7.8492 36.1762C7.74496 36.131 7.63229 36.1088 7.51877 36.111C7.40536 36.1077 7.29258 36.1291 7.18824 36.1738C7.08391 36.2185 6.99051 36.2854 6.9145 36.3699C6.76013 36.5456 6.67495 36.7717 6.67495 37.0058C6.67495 37.24 6.76013 37.4661 6.9145 37.6418Z" fill="#273159"/>
<path d="M9.01941 38.0024V36.0107H9.16693V36.9355H10.4379V36.0136H10.5854V38.0053H10.4379V37.072H9.16693V38.0053L9.01941 38.0024Z" fill="#273159"/>
<path d="M17.9385 38.0372C17.8075 38.0421 17.6769 38.0192 17.5552 37.9702C17.4335 37.9212 17.3234 37.8471 17.2321 37.7527C17.0507 37.5526 16.9502 37.2919 16.9502 37.0215C16.9502 36.751 17.0507 36.4903 17.2321 36.2902C17.3219 36.1919 17.4317 36.1141 17.554 36.0621C17.6764 36.0101 17.8085 35.985 17.9413 35.9886C18.0838 35.985 18.2253 36.0132 18.3555 36.0711C18.483 36.1354 18.6005 36.2178 18.7045 36.3158L18.608 36.4154C18.5208 36.3259 18.4167 36.2546 18.3017 36.2057C18.1868 36.1569 18.0633 36.1314 17.9385 36.1309C17.8263 36.1282 17.7148 36.1497 17.6115 36.1939C17.5083 36.238 17.4157 36.3039 17.3399 36.387C17.1806 36.5612 17.0952 36.7908 17.1016 37.0272C17.0949 37.2632 17.1816 37.4924 17.3428 37.6645C17.4181 37.7482 17.5106 37.8147 17.6139 37.8594C17.7172 37.9041 17.8289 37.9259 17.9413 37.9234C18.0675 37.9253 18.1925 37.8991 18.3073 37.8466C18.4249 37.7863 18.5322 37.7075 18.625 37.6133L18.7243 37.71C18.6197 37.8149 18.4991 37.9023 18.3669 37.9689C18.2309 38.0234 18.0846 38.0467 17.9385 38.0372Z" fill="#273159"/>
<path d="M19.1331 38.0032V36.0115H19.9529C20.1193 36.0041 20.2835 36.051 20.421 36.1452C20.4771 36.1868 20.5224 36.2414 20.553 36.3043C20.5837 36.3672 20.5987 36.4366 20.5969 36.5066C20.5997 36.6115 20.5682 36.7144 20.5073 36.7997C20.4463 36.885 20.3593 36.9479 20.2593 36.9789C20.543 37.0557 20.7075 37.2179 20.7075 37.4598C20.7095 37.5367 20.6927 37.6129 20.6586 37.6819C20.6245 37.7508 20.5741 37.8103 20.5118 37.8552C20.3609 37.9609 20.1792 38.013 19.9955 38.0032H19.1331ZM19.2806 36.9305H19.9359C20.0674 36.9365 20.1971 36.8985 20.3047 36.8224C20.3514 36.7865 20.3887 36.7398 20.4134 36.6863C20.4381 36.6328 20.4495 36.574 20.4465 36.5151C20.4477 36.4633 20.4364 36.412 20.4137 36.3655C20.391 36.319 20.3575 36.2786 20.316 36.2477C20.2079 36.1759 20.0796 36.141 19.9501 36.1481H19.2806V36.9305ZM19.2806 37.8666H20.0012C20.1447 37.8739 20.2868 37.835 20.4068 37.7557C20.4548 37.7218 20.4937 37.6765 20.5199 37.6239C20.5461 37.5712 20.559 37.5129 20.5572 37.4541C20.5587 37.397 20.545 37.3406 20.5176 37.2906C20.4902 37.2406 20.45 37.1988 20.4012 37.1695C20.2644 37.0935 20.109 37.058 19.9529 37.0671H19.2806V37.8666Z" fill="#273159"/>
<path d="M21.0223 38.003L21.9472 35.9971H22.089L23.0138 38.003H22.8521L22.5997 37.4339H21.428L21.1755 38.003H21.0223ZM21.4904 37.3116H22.5372L22.0153 36.1735L21.4904 37.3116Z" fill="#273159"/>
<path d="M23.1559 38.4584V37.8666H23.3687C23.485 37.6877 23.565 37.4875 23.6042 37.2776C23.6616 36.9968 23.6892 36.7107 23.6864 36.424V36.0029H24.9035V37.8581H25.173L25.1446 38.4499H25.0198V37.9946H23.3176L23.2893 38.4499L23.1559 38.4584ZM23.5389 37.8666H24.756V36.1594H23.8311V36.5521C23.8315 36.8093 23.8048 37.0658 23.7517 37.3174C23.7157 37.5123 23.6436 37.6985 23.5389 37.8666Z" fill="#273159"/>
<path d="M25.5615 38.0024V36.0107H26.98V36.1473H25.7147V36.9355H26.8495V37.072H25.7147V37.8716H26.98V38.0081L25.5615 38.0024Z" fill="#273159"/>
<path d="M27.4536 38.0024V36.0107H28.838V36.1473H27.6011V36.8529H28.2706C28.4544 36.8436 28.6367 36.8913 28.7926 36.9895C28.8582 37.0372 28.9106 37.1009 28.9449 37.1746C28.9791 37.2483 28.9941 37.3295 28.9883 37.4106C28.9931 37.4929 28.979 37.5753 28.947 37.6513C28.9151 37.7272 28.8661 37.7948 28.8039 37.8488C28.6573 37.9592 28.4763 38.0137 28.2933 38.0024H27.4536ZM27.6011 37.8659H28.2649C28.6451 37.8659 28.8323 37.7151 28.8323 37.4106C28.8357 37.3496 28.8234 37.2888 28.7966 37.234C28.7697 37.1792 28.7293 37.1322 28.6791 37.0976C28.5497 37.0183 28.3993 36.9806 28.2479 36.9895H27.5982L27.6011 37.8659Z" fill="#273159"/>
<path d="M29.4623 38.0024V36.0107H29.6098V36.9355H30.8807V36.0136H31.0283V38.0053H30.8807V37.072H29.6098V38.0053L29.4623 38.0024Z" fill="#273159"/>
<path d="M31.6182 38.0024V36.0107H31.7657V36.8103H32.3529C32.5354 36.8044 32.7154 36.854 32.8692 36.9525C32.9374 37.0005 32.9923 37.0651 33.0285 37.1403C33.0648 37.2155 33.0812 37.2988 33.0763 37.3822C33.0796 37.4675 33.0637 37.5524 33.0299 37.6307C32.996 37.7091 32.945 37.7787 32.8806 37.8346C32.7354 37.9512 32.5529 38.0109 32.3671 38.0024H31.6182ZM31.7657 37.8659H32.3331C32.4856 37.8753 32.6368 37.8321 32.7614 37.7435C32.8133 37.7007 32.8543 37.6461 32.8809 37.5843C32.9076 37.5224 32.9191 37.4551 32.9146 37.3879C32.9179 37.3239 32.9051 37.2601 32.8773 37.2024C32.8496 37.1447 32.8078 37.095 32.7558 37.0578C32.6239 36.9766 32.4705 36.9379 32.316 36.9468H31.7487L31.7657 37.8659ZM33.3487 38.0024V36.0107H33.5047V38.0024H33.3487Z" fill="#273159"/>
<path d="M33.9359 38.0024L34.7274 36.9867L33.9643 36.0107H34.1402L34.8182 36.8871L35.4934 36.0107H35.6664L34.9061 36.9838L35.6948 38.0024H35.5189L34.8125 37.0834L34.109 38.0024H33.9359Z" fill="#273159"/>
<path d="M36.9857 38.0024V36.0107H38.5233V38.0024H38.3758V36.1473H37.1332V38.0024H36.9857Z" fill="#273159"/>
<path d="M39.0568 38.0226C38.9749 38.0228 38.8939 38.0063 38.8185 37.9742L38.8639 37.8519C38.9238 37.8776 38.9888 37.8893 39.0539 37.886C39.0775 37.889 39.1013 37.889 39.1249 37.886C39.1538 37.8769 39.1807 37.8624 39.2043 37.8434C39.2376 37.8159 39.2663 37.7832 39.2894 37.7466C39.3194 37.6909 39.3451 37.6328 39.366 37.5731C39.3951 37.4868 39.4169 37.3983 39.4313 37.3084C39.4483 37.206 39.4625 37.078 39.4738 36.9215C39.4852 36.765 39.4908 36.5943 39.4908 36.4008V36.0195H40.7079V38.0112H40.5603V36.1561H39.6327V36.4065C39.6346 36.6469 39.6232 36.8872 39.5986 37.1263C39.5837 37.2878 39.5552 37.4477 39.5135 37.6044C39.489 37.7073 39.4436 37.8042 39.3802 37.8889C39.34 37.9432 39.2875 37.9871 39.227 38.0169C39.1711 38.0293 39.1134 38.0312 39.0568 38.0226Z" fill="#273159"/>
<path d="M41.1275 38.003L42.0523 35.9971H42.1942L43.119 38.003H42.9573L42.7048 37.4339H41.5332L41.2807 38.003H41.1275ZM41.5956 37.3116H42.6424L42.1204 36.1735L41.5956 37.3116Z" fill="#273159"/>
<path d="M44.0892 38.0024V36.1473H43.397V36.0107H44.9289V36.1473H44.2367V38.0024H44.0892Z" fill="#273159"/>
<path d="M45.3771 38.0024V36.0107H45.5218V36.8103H46.1119C46.2944 36.8044 46.4743 36.854 46.6282 36.9525C46.6964 37.0005 46.7513 37.0651 46.7875 37.1403C46.8238 37.2155 46.8402 37.2988 46.8353 37.3822C46.8386 37.4675 46.8227 37.5524 46.7888 37.6307C46.7549 37.7091 46.7039 37.7787 46.6396 37.8346C46.4944 37.9512 46.3119 38.0109 46.1261 38.0024H45.3771ZM45.5218 37.8659H46.0892C46.2409 37.8758 46.3913 37.8326 46.5147 37.7435C46.5672 37.7012 46.6085 37.6467 46.6352 37.5847C46.6619 37.5227 46.6731 37.4552 46.6679 37.3879C46.6715 37.3241 46.6591 37.2605 46.6319 37.2029C46.6046 37.1452 46.5634 37.0953 46.5119 37.0578C46.3801 36.9766 46.2266 36.9379 46.0722 36.9468H45.5048L45.5218 37.8659Z" fill="#273159"/>
<path d="M47.2722 38.0024V36.0107H48.6906V36.1473H47.4254V36.9355H48.5601V37.072H47.4254V37.8716H48.7048V38.0081L47.2722 38.0024Z" fill="#273159"/>
<path d="M49.173 38.0033V36.0116H49.9901C50.1573 36.0037 50.3226 36.0507 50.461 36.1453C50.5171 36.1869 50.5624 36.2415 50.593 36.3044C50.6236 36.3673 50.6387 36.4367 50.6369 36.5067C50.6395 36.6119 50.6076 36.7151 50.5461 36.8004C50.4846 36.8858 50.3969 36.9485 50.2964 36.979C50.5972 37.0558 50.7475 37.218 50.7475 37.4598C50.7495 37.5368 50.7327 37.613 50.6986 37.6819C50.6644 37.7509 50.6141 37.8104 50.5518 37.8553C50.4009 37.961 50.2192 38.0131 50.0355 38.0033H49.173ZM49.3177 36.9306H49.9759C50.1074 36.9366 50.2371 36.8986 50.3447 36.8225C50.3914 36.7866 50.4287 36.7399 50.4534 36.6864C50.4781 36.6329 50.4895 36.5741 50.4865 36.5152C50.4876 36.4634 50.4764 36.4121 50.4537 36.3656C50.431 36.319 50.3975 36.2786 50.356 36.2477C50.2478 36.176 50.1195 36.1411 49.9901 36.1482H49.3177V36.9306ZM49.3177 37.8667H50.0383C50.1828 37.8744 50.3259 37.8355 50.4468 37.7557C50.4945 37.7217 50.5329 37.6763 50.5587 37.6237C50.5844 37.571 50.5967 37.5128 50.5943 37.4541C50.5964 37.397 50.583 37.3403 50.5556 37.2902C50.5281 37.2401 50.4876 37.1984 50.4383 37.1696C50.3019 37.0928 50.1462 37.0573 49.9901 37.0672H49.3177V37.8667Z" fill="#273159"/>
</svg>
