<svg width="172" height="20" viewBox="0 0 172 20" fill="none" xmlns="http://www.w3.org/2000/svg">
<path d="M171.462 9.6841C171.568 9.93926 171.446 10.2317 171.191 10.3373L167.033 12.058C166.778 12.1635 166.486 12.0423 166.38 11.7871C166.274 11.532 166.396 11.2395 166.651 11.1339L170.347 9.60447L168.817 5.90843C168.712 5.65327 168.833 5.36083 169.088 5.25524C169.343 5.14965 169.636 5.2709 169.741 5.52606L171.462 9.6841ZM1.21632 9.4245C1.5227 9.57153 1.82828 9.71649 2.13307 9.8594L1.70855 10.7648C1.40103 10.6206 1.09274 10.4744 0.783675 10.3261L1.21632 9.4245ZM3.95246 10.6924C4.55582 10.962 5.15611 11.2236 5.75339 11.4773L5.36246 12.3977C4.75944 12.1416 4.15348 11.8775 3.54452 11.6054L3.95246 10.6924ZM7.55485 12.2223C8.18156 12.4745 8.80497 12.718 9.42515 12.953L9.07078 13.8881C8.44421 13.6507 7.8145 13.4047 7.18155 13.15L7.55485 12.2223ZM11.2761 13.6328C11.8912 13.8515 12.5031 14.0618 13.112 14.2641L12.7968 15.2131C12.1813 15.0087 11.5627 14.796 10.9411 14.575L11.2761 13.6328ZM15.024 14.8756C15.658 15.0706 16.2887 15.2568 16.9162 15.4344L16.6438 16.3966C16.0091 16.2169 15.3712 16.0286 14.73 15.8314L15.024 14.8756ZM18.7948 15.9431C19.4458 16.1115 20.0935 16.2706 20.7379 16.4209L20.5108 17.3948C19.8586 17.2427 19.2032 17.0816 18.5444 16.9113L18.7948 15.9431ZM22.6612 16.845C23.3049 16.9789 23.9455 17.1039 24.5829 17.2203L24.4032 18.2041C23.7578 18.0862 23.1093 17.9596 22.4576 17.8241L22.6612 16.845ZM26.5459 17.5536C27.197 17.6557 27.8449 17.749 28.4897 17.8336L28.3594 18.8251C27.7064 18.7394 27.0503 18.6449 26.3909 18.5415L26.5459 17.5536ZM30.4476 18.0658C31.1081 18.1356 31.7654 18.1966 32.4197 18.2491L32.3398 19.2459C31.6771 19.1927 31.0114 19.131 30.3424 19.0602L30.4476 18.0658ZM34.3738 18.381C35.0374 18.4175 35.698 18.4454 36.3557 18.4649L36.326 19.4645C35.6599 19.4447 34.9909 19.4165 34.3189 19.3795L34.3738 18.381ZM38.3276 18.499C38.9861 18.5023 39.6418 18.4974 40.2949 18.4847L40.3143 19.4845C39.6532 19.4974 38.9893 19.5023 38.3226 19.499L38.3276 18.499ZM42.2744 18.4225C42.9317 18.394 43.5865 18.3579 44.2389 18.3144L44.3053 19.3122C43.6454 19.3562 42.9829 19.3928 42.3178 19.4216L42.2744 18.4225ZM46.2112 18.1606C46.8684 18.1019 47.5233 18.036 48.1761 17.9634L48.2867 18.9573C47.6268 19.0307 46.9647 19.0972 46.3001 19.1566L46.2112 18.1606ZM50.134 17.7249C50.7889 17.6382 51.4419 17.5451 52.093 17.4457L52.2438 18.4343C51.5863 18.5346 50.9268 18.6287 50.2652 18.7162L50.134 17.7249ZM54.0412 17.1297C54.6917 17.018 55.3407 16.9005 55.9881 16.7775L56.1747 17.7599C55.5217 17.884 54.867 18.0026 54.2104 18.1153L54.0412 17.1297ZM57.9278 16.3924C58.5735 16.2587 59.2179 16.12 59.8612 15.9765L60.0788 16.9526C59.4308 17.0971 58.7814 17.2369 58.1305 17.3716L57.9278 16.3924ZM61.7899 15.5321C62.4319 15.3796 63.0728 15.2227 63.7129 15.062L63.9565 16.0318C63.3125 16.1936 62.6674 16.3515 62.0212 16.505L61.7899 15.5321ZM65.6302 14.5686C66.2685 14.4005 66.9063 14.2288 67.5436 14.0541L67.808 15.0185C67.1677 15.1941 66.5267 15.3666 65.8848 15.5356L65.6302 14.5686ZM69.452 13.5215C70.087 13.3413 70.7218 13.1584 71.3565 12.9732L71.6367 13.9331C70.9998 14.119 70.3626 14.3026 69.7249 14.4835L69.452 13.5215ZM73.2598 12.411C73.8921 12.2221 74.5245 12.0313 75.157 11.839L75.4479 12.7957C74.814 12.9885 74.18 13.1798 73.5459 13.3691L73.2598 12.411ZM77.0556 11.2577C77.6869 11.0632 78.3187 10.8676 78.951 10.6711L79.2476 11.6261C78.6148 11.8227 77.9823 12.0186 77.35 12.2134L77.0556 11.2577ZM80.8464 10.0809C81.4782 9.88387 82.111 9.68631 82.7443 9.48886L83.042 10.4435C82.4086 10.641 81.7763 10.8384 81.1441 11.0356L80.8464 10.0809ZM84.639 8.89937C85.2715 8.70311 85.905 8.50721 86.5397 8.31207L86.8336 9.26791C86.1999 9.46274 85.5672 9.65838 84.9353 9.85445L84.639 8.89937ZM88.4395 7.73163C89.0728 7.53951 89.7075 7.34849 90.3436 7.15894L90.6291 8.1173C89.9948 8.30632 89.3618 8.49687 88.7298 8.68857L88.4395 7.73163ZM92.2538 6.59586C92.8885 6.41094 93.5248 6.22783 94.1629 6.04691L94.4357 7.00898C93.8001 7.1892 93.1661 7.37163 92.5336 7.55594L92.2538 6.59586ZM96.0825 5.51105C96.7206 5.33586 97.3606 5.16318 98.0026 4.99337L98.2583 5.96013C97.6195 6.12909 96.9825 6.30095 96.3473 6.47536L96.0825 5.51105ZM99.9297 4.49424C100.573 4.3312 101.219 4.17137 101.867 4.01509L102.102 4.98722C101.457 5.14256 100.815 5.30147 100.175 5.46361L99.9297 4.49424ZM103.802 3.56112C104.449 3.41352 105.098 3.26976 105.751 3.13019L105.96 4.10805C105.312 4.24665 104.667 4.38944 104.024 4.53608L103.802 3.56112ZM107.701 2.72724C108.35 2.59794 109.002 2.47305 109.657 2.35292L109.837 3.3365C109.187 3.4557 108.54 3.57964 107.896 3.70799L107.701 2.72724ZM111.629 2.0071C112.28 1.89848 112.933 1.79478 113.589 1.69634L113.737 2.68527C113.087 2.78288 112.439 2.8857 111.794 2.99343L111.629 2.0071ZM115.567 1.41705C116.224 1.33002 116.885 1.24849 117.549 1.17274L117.662 2.1663C117.004 2.24135 116.35 2.32215 115.698 2.40841L115.567 1.41705ZM119.526 0.965492C120.188 0.902269 120.854 0.845005 121.523 0.793997L121.599 1.7911C120.936 1.84162 120.277 1.89834 119.621 1.96097L119.526 0.965492ZM123.507 0.661875C124.167 0.624359 124.831 0.593098 125.498 0.568371L125.535 1.56768C124.875 1.59216 124.218 1.62312 123.564 1.66026L123.507 0.661875ZM127.509 0.514076C128.165 0.502996 128.825 0.498379 129.488 0.500483L129.485 1.50048C128.828 1.4984 128.175 1.50297 127.526 1.51393L127.509 0.514076ZM131.485 0.527138C132.151 0.54283 132.821 0.56542 133.494 0.595161L133.45 1.59419C132.784 1.56475 132.121 1.54239 131.461 1.52686L131.485 0.527138ZM135.468 0.702332C136.129 0.744959 136.794 0.794569 137.463 0.851391L137.378 1.8478C136.716 1.79156 136.058 1.74245 135.404 1.70026L135.468 0.702332ZM139.463 1.04203C140.114 1.11071 140.768 1.18629 141.425 1.26897L141.3 2.26116C140.649 2.17931 140.002 2.10449 139.358 2.0365L139.463 1.04203ZM143.408 1.53852C144.068 1.63485 144.73 1.73837 145.397 1.84929L145.233 2.83573C144.573 2.7259 143.916 2.62339 143.264 2.52802L143.408 1.53852ZM147.337 2.19125C147.988 2.31224 148.641 2.4403 149.299 2.5756L149.097 3.55506C148.446 3.42104 147.798 3.2942 147.155 3.17438L147.337 2.19125ZM151.279 3.003C151.912 3.1459 152.549 3.29555 153.188 3.45208L152.951 4.42343C152.317 4.26831 151.686 4.12004 151.059 3.97846L151.279 3.003ZM155.118 3.94254C155.764 4.11303 156.414 4.29056 157.067 4.4753L156.795 5.43758C156.147 5.25443 155.503 5.07846 154.863 4.90948L155.118 3.94254ZM158.967 5.0299C159.593 5.2185 160.223 5.41372 160.855 5.6157L160.551 6.56834C159.924 6.36803 159.3 6.17444 158.679 5.98743L158.967 5.0299ZM162.763 6.24201C163.396 6.45525 164.031 6.67521 164.67 6.90204L164.335 7.84439C163.701 7.61932 163.071 7.40109 162.444 7.18957L162.763 6.24201ZM166.51 7.57131C167.127 7.80075 167.746 8.03656 168.369 8.27886L168.006 9.21077C167.388 8.97026 166.773 8.73621 166.161 8.50851L166.51 7.57131ZM170.246 9.02535C170.56 9.15305 170.876 9.2824 171.191 9.41341L170.809 10.3372C170.495 10.2071 170.182 10.0786 169.87 9.95185L170.246 9.02535ZM171.924 9.49291C172.135 10.0032 171.893 10.5881 171.382 10.7993L163.066 14.2406C162.556 14.4518 161.971 14.2093 161.76 13.699C161.549 13.1887 161.791 12.6038 162.302 12.3926L169.694 9.33365L166.635 1.94157C166.423 1.43126 166.666 0.846373 167.176 0.635195C167.687 0.424017 168.271 0.666517 168.483 1.17683L171.924 9.49291ZM1.43265 8.97372C1.73768 9.1201 2.0419 9.26442 2.34533 9.40669L1.49628 11.2175C1.1874 11.0727 0.877758 10.9258 0.567351 10.7768L1.43265 8.97372ZM4.15643 10.2359C4.757 10.5043 5.35445 10.7646 5.94885 11.017L5.167 12.8579C4.56111 12.6005 3.95231 12.3353 3.34055 12.0619L4.15643 10.2359ZM7.7415 11.7584C8.36509 12.0094 8.98534 12.2516 9.60233 12.4854L8.8936 14.3557C8.26384 14.117 7.63097 13.8698 6.9949 13.6139L7.7415 11.7584ZM11.4436 13.1617C12.0554 13.3792 12.664 13.5884 13.2696 13.7896L12.6392 15.6876C12.0203 15.4821 11.3985 15.2683 10.7736 15.0461L11.4436 13.1617ZM15.171 14.3977C15.8014 14.5916 16.4285 14.7767 17.0523 14.9533L16.5077 16.8777C15.8693 16.697 15.2278 16.5076 14.5831 16.3093L15.171 14.3977ZM18.9199 15.459C19.5672 15.6264 20.2109 15.7846 20.8514 15.9339L20.3973 17.8817C19.7412 17.7287 19.0819 17.5667 18.4192 17.3954L18.9199 15.459ZM22.7629 16.3555C23.4028 16.4885 24.0393 16.6128 24.6727 16.7285L24.3134 18.6959C23.664 18.5773 23.0115 18.45 22.3558 18.3136L22.7629 16.3555ZM26.6234 17.0596C27.2703 17.1611 27.9141 17.2538 28.5548 17.3379L28.2943 19.3209C27.6372 19.2346 26.9769 19.1395 26.3135 19.0354L26.6234 17.0596ZM30.5002 17.5685C31.1564 17.6379 31.8095 17.6986 32.4597 17.7507L32.2999 19.7443C31.633 19.6908 30.963 19.6286 30.2898 19.5574L30.5002 17.5685ZM34.4012 17.8818C35.0606 17.918 35.717 17.9457 36.3705 17.9651L36.3111 19.9643C35.6409 19.9443 34.9677 19.916 34.2914 19.8788L34.4012 17.8818ZM38.33 17.999C38.9844 18.0023 39.6361 17.9974 40.2852 17.9848L40.324 19.9845C39.6589 19.9973 38.991 20.0023 38.3202 19.999L38.33 17.999ZM42.2528 17.923C42.9061 17.8947 43.557 17.8587 44.2056 17.8155L44.3386 19.8111C43.6748 19.8553 43.0085 19.8921 42.3394 19.9211L42.2528 17.923ZM46.1667 17.6625C46.8202 17.6042 47.4715 17.5387 48.1208 17.4665L48.3419 19.4542C47.6786 19.528 47.0128 19.5949 46.3446 19.6546L46.1667 17.6625ZM50.0685 17.2292C50.72 17.143 51.3696 17.0503 52.0176 16.9515L52.3192 18.9286C51.6585 19.0294 50.9958 19.1239 50.3308 19.2119L50.0685 17.2292ZM53.9565 16.6369C54.6041 16.5257 55.2502 16.4087 55.8948 16.2863L56.268 18.2512C55.6122 18.3757 54.9546 18.4948 54.295 18.6081L53.9565 16.6369ZM57.8264 15.9027C58.4696 15.7696 59.1115 15.6314 59.7524 15.4885L60.1876 17.4406C59.5372 17.5856 58.8853 17.7259 58.2319 17.8612L57.8264 15.9027ZM61.6743 15.0457C62.3141 14.8936 62.9529 14.7373 63.5911 14.577L64.0783 16.5168C63.4323 16.679 62.7852 16.8374 62.1368 16.9915L61.6743 15.0457ZM65.5028 14.085C66.1395 13.9174 66.7756 13.7462 67.4114 13.5719L67.9403 15.5007C67.2984 15.6767 66.6557 15.8496 66.0121 16.0191L65.5028 14.085ZM69.3155 13.0405C69.9493 12.8607 70.5828 12.6781 71.2164 12.4932L71.7768 14.4131C71.1388 14.5993 70.5004 14.7832 69.8614 14.9645L69.3155 13.0405ZM73.1167 11.9319C73.7481 11.7433 74.3797 11.5527 75.0116 11.3606L75.5934 13.2741C74.9588 13.4671 74.324 13.6586 73.689 13.8482L73.1167 11.9319ZM76.9084 10.7799C77.5393 10.5855 78.1706 10.39 78.8026 10.1937L79.396 12.1036C78.7629 12.3003 78.13 12.4963 77.4972 12.6912L76.9084 10.7799ZM80.6975 9.6036C81.3291 9.40661 81.9622 9.20897 82.5955 9.01153L83.1908 10.9209C82.5574 11.1183 81.9254 11.3156 81.293 11.5129L80.6975 9.6036ZM84.4908 8.42182C85.1236 8.22547 85.7576 8.02945 86.3928 7.83415L86.9806 9.74582C86.3474 9.94051 85.7151 10.136 85.0835 10.332L84.4908 8.42182ZM88.2944 7.25317C88.9284 7.06083 89.5638 6.86957 90.2008 6.67977L90.7719 8.59648C90.1385 8.78524 89.5062 8.97554 88.875 9.16704L88.2944 7.25317ZM92.114 6.11582C92.7497 5.93059 93.3872 5.74715 94.0265 5.56588L94.5721 7.49002C93.9378 7.66988 93.3049 7.85198 92.6734 8.03598L92.114 6.11582ZM95.9501 5.02889C96.5896 4.85331 97.2311 4.68022 97.8747 4.50999L98.3861 6.44351C97.7489 6.61204 97.1135 6.78349 96.4796 6.95752L95.9501 5.02889ZM99.807 4.00955C100.452 3.84606 101.1 3.68577 101.75 3.52902L102.219 5.47329C101.576 5.62816 100.936 5.78661 100.298 5.9483L99.807 4.00955ZM103.69 3.07363C104.34 2.92556 104.991 2.78131 105.646 2.64126L106.064 4.59697C105.419 4.73509 104.776 4.8774 104.135 5.02357L103.69 3.07363ZM107.603 2.23687C108.255 2.10709 108.909 1.98173 109.566 1.86113L109.927 3.82829C109.28 3.94702 108.636 4.07049 107.994 4.19836L107.603 2.23687ZM111.547 1.51393C112.2 1.40486 112.856 1.30074 113.515 1.20187L113.812 3.17974C113.164 3.27692 112.519 3.37932 111.876 3.4866L111.547 1.51393ZM115.501 0.921371C116.161 0.833961 116.825 0.752054 117.492 0.675964L117.719 2.66307C117.064 2.73778 116.412 2.81822 115.763 2.90409L115.501 0.921371ZM119.478 0.467756C120.144 0.404234 120.813 0.346697 121.485 0.295444L121.637 2.28966C120.978 2.33993 120.322 2.39637 119.669 2.4587L119.478 0.467756ZM123.479 0.162682C124.142 0.124979 124.809 0.0935631 125.479 0.0687141L125.553 2.06734C124.896 2.0917 124.243 2.12249 123.592 2.15946L123.479 0.162682ZM127.5 0.0141487C128.16 0.0030117 128.823 -0.00162888 129.489 0.000484467L129.483 2.00047C128.83 1.9984 128.18 2.00295 127.534 2.01386L127.5 0.0141487ZM131.496 0.027277C132.166 0.043047 132.839 0.0657539 133.516 0.0956478L133.428 2.0937C132.765 2.06442 132.105 2.04217 131.449 2.02672L131.496 0.027277ZM135.5 0.203367C136.165 0.246212 136.833 0.296076 137.505 0.353188L137.336 2.346C136.677 2.29005 136.023 2.2412 135.372 2.19922L135.5 0.203367ZM139.516 0.544792C140.169 0.613825 140.827 0.689787 141.487 0.772881L141.238 2.75725C140.59 2.67581 139.946 2.60138 139.306 2.53373L139.516 0.544792ZM143.48 1.04377C144.143 1.14058 144.809 1.24461 145.479 1.35607L145.151 3.32895C144.494 3.21966 143.841 3.11766 143.191 3.02276L143.48 1.04377ZM147.429 1.69969C148.082 1.82126 148.739 1.94993 149.399 2.08587L148.996 4.04479C148.348 3.91141 147.704 3.78518 147.063 3.66594L147.429 1.69969ZM151.389 2.51527C152.025 2.65884 152.664 2.80916 153.307 2.96641L152.832 4.9091C152.201 4.75469 151.573 4.60711 150.949 4.46619L151.389 2.51527ZM155.245 3.45907C155.894 3.63031 156.547 3.80863 157.203 3.99417L156.659 5.91871C156.014 5.73637 155.373 5.56117 154.735 5.39296L155.245 3.45907ZM159.111 4.55114C159.74 4.74053 160.372 4.93657 161.007 5.13938L160.399 7.04466C159.774 6.84518 159.153 6.6524 158.534 6.46619L159.111 4.55114ZM162.923 5.76824C163.558 5.98232 164.196 6.20316 164.837 6.43087L164.168 8.31556C163.537 8.09138 162.909 7.87402 162.284 7.66335L162.923 5.76824ZM166.685 7.10271C167.303 7.33302 167.925 7.56971 168.55 7.8129L167.825 9.67673C167.209 9.4371 166.596 9.20394 165.987 8.97711L166.685 7.10271ZM170.434 8.5621C170.75 8.69025 171.066 8.82006 171.383 8.95153L170.617 10.799C170.304 10.6694 169.992 10.5414 169.681 10.4151L170.434 8.5621Z" fill="#8E99C5"/>
</svg>
