<svg width="68" height="68" viewBox="0 0 68 68" fill="none" xmlns="http://www.w3.org/2000/svg">
<circle cx="34" cy="34" r="34" fill="#8E99C5"/>
<mask id="path-2-inside-1" fill="white">
<path fill-rule="evenodd" clip-rule="evenodd" d="M49.9821 21.5421C49.9821 23.6426 48.2693 25.3516 46.164 25.3516C44.0588 25.3516 42.346 23.6426 42.346 21.5421C42.346 20.6733 42.6468 19.8241 43.1933 19.1492V19.149L45.3332 16.4013C45.5315 16.1469 45.8298 16.0008 46.1519 16H46.1544C46.4755 16 46.7735 16.1447 46.9723 16.3974L49.1213 19.1303L49.1405 19.1558C49.6835 19.8298 49.9821 20.6752 49.9821 21.5421ZM44.3123 20.0009C44.306 20.0095 44.2997 20.0177 44.2928 20.0259C43.9393 20.4588 43.7523 20.9831 43.7523 21.5423C43.7523 22.8673 44.8341 23.9453 46.164 23.9453C47.4939 23.9453 48.5758 22.8673 48.5758 21.5423C48.5758 20.985 48.3802 20.4423 48.0251 20.0136C48.0114 19.9971 47.9987 19.9803 47.9869 19.963L46.1555 17.6339L44.3123 20.0009ZM51.6207 35.7823C51.8728 35.9144 52.0203 36.1858 51.9942 36.4692C51.9681 36.7529 51.7737 36.9927 51.5018 37.0767L46.6074 38.5896L51.6207 41.2175C51.8728 41.3496 52.0203 41.6207 51.9942 41.9044C51.9684 42.1881 51.7737 42.4279 51.5018 42.5119L38.0213 46.6782L30.0032 49.1562C29.9354 49.1771 29.8653 49.1875 29.7956 49.1875C29.683 49.1875 29.5709 49.1603 29.4693 49.107L28.2317 48.4583V51.2969C28.2317 51.5405 28.1056 51.7668 27.8982 51.8951C27.7853 51.9648 27.6571 52 27.5285 52C27.4209 52 27.3135 51.9753 27.2141 51.9258L22.7141 49.6758C22.4759 49.5566 22.3254 49.3133 22.3254 49.0469V45.3621L16.3741 42.2425C16.1223 42.1107 15.9751 41.8401 16.0001 41.5572C16.0253 41.2743 16.2184 41.0343 16.4895 40.9489L21.354 39.4179L16.3741 36.8076C16.1223 36.6757 15.9751 36.4052 16.0001 36.1223C16.0253 35.8394 16.2184 35.5994 16.4895 35.5139L21.354 33.983L16.3739 31.3724C16.1217 31.2403 15.9742 30.9689 16.0003 30.6855C16.0262 30.4017 16.2209 30.162 16.4928 30.0779L22.3254 28.2753V25H20.4973C20.213 25 19.9568 24.8287 19.8477 24.5661C19.739 24.3032 19.7991 24.0008 20.0002 23.7998L24.7814 19.0186C25.0561 18.7442 25.5013 18.7442 25.776 19.0186L30.5572 23.7998C30.7582 24.0008 30.8184 24.3032 30.7096 24.5661C30.6009 24.8287 30.3443 25 30.0601 25H28.2319V26.45L35.2868 24.2695L37.0339 22.0263C37.2319 21.772 37.5305 21.6259 37.8526 21.6251H37.8548C38.1762 21.6251 38.4742 21.7698 38.6728 22.0222L40.7294 24.6378L51.6207 30.3474C51.8728 30.4795 52.0203 30.7506 51.9945 31.0343C51.9684 31.318 51.7739 31.5578 51.5018 31.6418L46.6074 33.1544L51.6207 35.7823ZM29.8653 47.7269L37.606 45.3346L49.4583 41.6718L44.7021 39.1784L30.0032 43.721C29.9354 43.7421 29.8653 43.7526 29.7956 43.7526C29.683 43.7526 29.5709 43.7254 29.4693 43.6721L28.2317 43.0234V43.8438C28.2317 44.2321 27.9169 44.5469 27.5285 44.5469C27.1405 44.5469 26.8254 44.2321 26.8254 43.8438V42.2862L23.8819 40.7432V42.0041C23.8819 42.3925 23.5672 42.7072 23.1788 42.7072C22.7907 42.7072 22.4757 42.3925 22.4757 42.0041V40.5391L18.5253 41.7825L29.8653 47.7269ZM26.8254 50.1592V47.7211L23.7317 46.0995V48.6124L26.8254 50.1592ZM36.0127 25.626C36.0064 25.6345 36.0001 25.6427 35.9932 25.651C35.6397 26.0838 35.4527 26.6082 35.4527 27.1671C35.4527 28.4923 36.5346 29.5704 37.8645 29.5704C39.1944 29.5704 40.2762 28.4923 40.2762 27.1671C40.2762 26.6101 40.0807 26.0674 39.7255 25.6386C39.7118 25.6221 39.6992 25.6054 39.6874 25.5881L37.8559 23.259L36.0127 25.626ZM22.3254 29.7472L18.5363 30.9184L23.5125 33.5268L23.515 33.5282L26.5156 35.1011L29.8653 36.857L49.4583 30.8016L41.6545 26.7106C41.6729 26.8617 41.6825 27.0141 41.6825 27.1671C41.6825 29.2677 39.9697 30.9766 37.8645 30.9766C35.7592 30.9766 34.0464 29.2677 34.0464 27.1671C34.0464 26.7955 34.1019 26.4274 34.2079 26.0751L28.2317 27.9219V32.6289C28.2317 33.0173 27.9169 33.3321 27.5285 33.3321C27.1405 33.3321 26.8254 33.0173 26.8254 32.6289V27.4052V27.3986V24.2969C26.8254 23.9086 27.1405 23.5938 27.5285 23.5938H28.3624L25.2785 20.5102L22.195 23.5938H23.0286C23.4169 23.5938 23.7317 23.9086 23.7317 24.2969V28.7936V28.7975V30.8599C23.7317 31.2482 23.4169 31.563 23.0286 31.563C22.6405 31.563 22.3254 31.2482 22.3254 30.8599V29.7472ZM44.5606 37.7502L44.5639 37.7491L49.4583 36.2366L44.7021 33.7432L30.0032 38.2861C29.973 38.2954 29.942 38.3017 29.9112 38.3069C29.9038 38.3083 29.8966 38.3094 29.8895 38.3102C29.8587 38.3146 29.8277 38.3171 29.7967 38.3174H29.7956C29.7925 38.3174 29.7898 38.3168 29.7868 38.3168C29.7643 38.3166 29.7417 38.3152 29.7195 38.3127C29.7139 38.3121 29.7084 38.3113 29.7029 38.3105C29.7004 38.3101 29.6978 38.3098 29.6953 38.3094C29.6775 38.3067 29.6596 38.3036 29.642 38.2998C29.6347 38.2982 29.6276 38.2964 29.6203 38.2946L29.6159 38.2935C29.5984 38.2888 29.5811 38.2833 29.5638 38.2773C29.5561 38.2745 29.5484 38.2723 29.541 38.2693C29.5173 38.26 29.494 38.2498 29.4712 38.238L29.4693 38.2372L28.2317 37.5884V38.4119C28.2317 38.8002 27.9169 39.115 27.5285 39.115C27.1405 39.115 26.8254 38.8002 26.8254 38.4119V36.8513L25.7586 36.2921L23.8819 35.3082V36.461C23.8819 36.8493 23.5672 37.1641 23.1788 37.1641C22.7907 37.1641 22.4757 36.8493 22.4757 36.461V35.1042L18.5253 36.3475L29.8653 42.2919L44.5606 37.7502Z"/>
</mask>
<path fill-rule="evenodd" clip-rule="evenodd" d="M49.9821 21.5421C49.9821 23.6426 48.2693 25.3516 46.164 25.3516C44.0588 25.3516 42.346 23.6426 42.346 21.5421C42.346 20.6733 42.6468 19.8241 43.1933 19.1492V19.149L45.3332 16.4013C45.5315 16.1469 45.8298 16.0008 46.1519 16H46.1544C46.4755 16 46.7735 16.1447 46.9723 16.3974L49.1213 19.1303L49.1405 19.1558C49.6835 19.8298 49.9821 20.6752 49.9821 21.5421ZM44.3123 20.0009C44.306 20.0095 44.2997 20.0177 44.2928 20.0259C43.9393 20.4588 43.7523 20.9831 43.7523 21.5423C43.7523 22.8673 44.8341 23.9453 46.164 23.9453C47.4939 23.9453 48.5758 22.8673 48.5758 21.5423C48.5758 20.985 48.3802 20.4423 48.0251 20.0136C48.0114 19.9971 47.9987 19.9803 47.9869 19.963L46.1555 17.6339L44.3123 20.0009ZM51.6207 35.7823C51.8728 35.9144 52.0203 36.1858 51.9942 36.4692C51.9681 36.7529 51.7737 36.9927 51.5018 37.0767L46.6074 38.5896L51.6207 41.2175C51.8728 41.3496 52.0203 41.6207 51.9942 41.9044C51.9684 42.1881 51.7737 42.4279 51.5018 42.5119L38.0213 46.6782L30.0032 49.1562C29.9354 49.1771 29.8653 49.1875 29.7956 49.1875C29.683 49.1875 29.5709 49.1603 29.4693 49.107L28.2317 48.4583V51.2969C28.2317 51.5405 28.1056 51.7668 27.8982 51.8951C27.7853 51.9648 27.6571 52 27.5285 52C27.4209 52 27.3135 51.9753 27.2141 51.9258L22.7141 49.6758C22.4759 49.5566 22.3254 49.3133 22.3254 49.0469V45.3621L16.3741 42.2425C16.1223 42.1107 15.9751 41.8401 16.0001 41.5572C16.0253 41.2743 16.2184 41.0343 16.4895 40.9489L21.354 39.4179L16.3741 36.8076C16.1223 36.6757 15.9751 36.4052 16.0001 36.1223C16.0253 35.8394 16.2184 35.5994 16.4895 35.5139L21.354 33.983L16.3739 31.3724C16.1217 31.2403 15.9742 30.9689 16.0003 30.6855C16.0262 30.4017 16.2209 30.162 16.4928 30.0779L22.3254 28.2753V25H20.4973C20.213 25 19.9568 24.8287 19.8477 24.5661C19.739 24.3032 19.7991 24.0008 20.0002 23.7998L24.7814 19.0186C25.0561 18.7442 25.5013 18.7442 25.776 19.0186L30.5572 23.7998C30.7582 24.0008 30.8184 24.3032 30.7096 24.5661C30.6009 24.8287 30.3443 25 30.0601 25H28.2319V26.45L35.2868 24.2695L37.0339 22.0263C37.2319 21.772 37.5305 21.6259 37.8526 21.6251H37.8548C38.1762 21.6251 38.4742 21.7698 38.6728 22.0222L40.7294 24.6378L51.6207 30.3474C51.8728 30.4795 52.0203 30.7506 51.9945 31.0343C51.9684 31.318 51.7739 31.5578 51.5018 31.6418L46.6074 33.1544L51.6207 35.7823ZM29.8653 47.7269L37.606 45.3346L49.4583 41.6718L44.7021 39.1784L30.0032 43.721C29.9354 43.7421 29.8653 43.7526 29.7956 43.7526C29.683 43.7526 29.5709 43.7254 29.4693 43.6721L28.2317 43.0234V43.8438C28.2317 44.2321 27.9169 44.5469 27.5285 44.5469C27.1405 44.5469 26.8254 44.2321 26.8254 43.8438V42.2862L23.8819 40.7432V42.0041C23.8819 42.3925 23.5672 42.7072 23.1788 42.7072C22.7907 42.7072 22.4757 42.3925 22.4757 42.0041V40.5391L18.5253 41.7825L29.8653 47.7269ZM26.8254 50.1592V47.7211L23.7317 46.0995V48.6124L26.8254 50.1592ZM36.0127 25.626C36.0064 25.6345 36.0001 25.6427 35.9932 25.651C35.6397 26.0838 35.4527 26.6082 35.4527 27.1671C35.4527 28.4923 36.5346 29.5704 37.8645 29.5704C39.1944 29.5704 40.2762 28.4923 40.2762 27.1671C40.2762 26.6101 40.0807 26.0674 39.7255 25.6386C39.7118 25.6221 39.6992 25.6054 39.6874 25.5881L37.8559 23.259L36.0127 25.626ZM22.3254 29.7472L18.5363 30.9184L23.5125 33.5268L23.515 33.5282L26.5156 35.1011L29.8653 36.857L49.4583 30.8016L41.6545 26.7106C41.6729 26.8617 41.6825 27.0141 41.6825 27.1671C41.6825 29.2677 39.9697 30.9766 37.8645 30.9766C35.7592 30.9766 34.0464 29.2677 34.0464 27.1671C34.0464 26.7955 34.1019 26.4274 34.2079 26.0751L28.2317 27.9219V32.6289C28.2317 33.0173 27.9169 33.3321 27.5285 33.3321C27.1405 33.3321 26.8254 33.0173 26.8254 32.6289V27.4052V27.3986V24.2969C26.8254 23.9086 27.1405 23.5938 27.5285 23.5938H28.3624L25.2785 20.5102L22.195 23.5938H23.0286C23.4169 23.5938 23.7317 23.9086 23.7317 24.2969V28.7936V28.7975V30.8599C23.7317 31.2482 23.4169 31.563 23.0286 31.563C22.6405 31.563 22.3254 31.2482 22.3254 30.8599V29.7472ZM44.5606 37.7502L44.5639 37.7491L49.4583 36.2366L44.7021 33.7432L30.0032 38.2861C29.973 38.2954 29.942 38.3017 29.9112 38.3069C29.9038 38.3083 29.8966 38.3094 29.8895 38.3102C29.8587 38.3146 29.8277 38.3171 29.7967 38.3174H29.7956C29.7925 38.3174 29.7898 38.3168 29.7868 38.3168C29.7643 38.3166 29.7417 38.3152 29.7195 38.3127C29.7139 38.3121 29.7084 38.3113 29.7029 38.3105C29.7004 38.3101 29.6978 38.3098 29.6953 38.3094C29.6775 38.3067 29.6596 38.3036 29.642 38.2998C29.6347 38.2982 29.6276 38.2964 29.6203 38.2946L29.6159 38.2935C29.5984 38.2888 29.5811 38.2833 29.5638 38.2773C29.5561 38.2745 29.5484 38.2723 29.541 38.2693C29.5173 38.26 29.494 38.2498 29.4712 38.238L29.4693 38.2372L28.2317 37.5884V38.4119C28.2317 38.8002 27.9169 39.115 27.5285 39.115C27.1405 39.115 26.8254 38.8002 26.8254 38.4119V36.8513L25.7586 36.2921L23.8819 35.3082V36.461C23.8819 36.8493 23.5672 37.1641 23.1788 37.1641C22.7907 37.1641 22.4757 36.8493 22.4757 36.461V35.1042L18.5253 36.3475L29.8653 42.2919L44.5606 37.7502Z" fill="white"/>
<path d="M43.1933 19.1492L43.271 19.2122L43.2933 19.1846V19.1492H43.1933ZM43.1933 19.149L43.1144 19.0875L43.0933 19.1146V19.149H43.1933ZM45.3332 16.4013L45.2543 16.3398L45.2543 16.3398L45.3332 16.4013ZM46.1519 16V15.9L46.1517 15.9L46.1519 16ZM46.9723 16.3974L47.051 16.3356L47.0509 16.3356L46.9723 16.3974ZM49.1213 19.1303L49.2012 19.0701L49.1999 19.0685L49.1213 19.1303ZM49.1405 19.1558L49.0606 19.216L49.0626 19.2186L49.1405 19.1558ZM44.2928 20.0259L44.216 19.9619L44.2153 19.9627L44.2928 20.0259ZM44.3123 20.0009L44.2334 19.9395L44.232 19.9414L44.3123 20.0009ZM48.0251 20.0136L48.1021 19.9498L48.1019 19.9496L48.0251 20.0136ZM47.9869 19.963L48.0697 19.9065L48.0655 19.9012L47.9869 19.963ZM46.1555 17.6339L46.2341 17.5721L46.1551 17.4717L46.0766 17.5725L46.1555 17.6339ZM51.9942 36.4692L51.8946 36.46V36.46L51.9942 36.4692ZM51.6207 35.7823L51.5743 35.8709L51.5743 35.8709L51.6207 35.7823ZM51.5018 37.0767L51.5313 37.1723L51.5018 37.0767ZM46.6074 38.5896L46.5778 38.494L46.3463 38.5656L46.5609 38.6781L46.6074 38.5896ZM51.6207 41.2175L51.5743 41.3061L51.5743 41.3061L51.6207 41.2175ZM51.9942 41.9044L51.8946 41.8952L51.8946 41.8953L51.9942 41.9044ZM51.5018 42.5119L51.5313 42.6075L51.5018 42.5119ZM38.0213 46.6782L38.0508 46.7738L38.0213 46.6782ZM30.0032 49.1562L30.0326 49.2518L30.0327 49.2517L30.0032 49.1562ZM29.4693 49.107L29.5157 49.0185L29.5157 49.0185L29.4693 49.107ZM28.2317 48.4583L28.2781 48.3697L28.1317 48.293V48.4583H28.2317ZM27.8982 51.8951L27.9508 51.9801L27.9508 51.9801L27.8982 51.8951ZM27.2141 51.9258L27.1693 52.0153L27.1695 52.0154L27.2141 51.9258ZM22.7141 49.6758L22.6693 49.7653L22.6693 49.7653L22.7141 49.6758ZM22.3254 45.3621H22.4254V45.3016L22.3719 45.2735L22.3254 45.3621ZM16.3741 42.2425L16.4206 42.1539L16.4205 42.1539L16.3741 42.2425ZM16.0001 41.5572L15.9005 41.5483L15.9004 41.5484L16.0001 41.5572ZM16.4895 40.9489L16.4595 40.8535L16.4594 40.8535L16.4895 40.9489ZM21.354 39.4179L21.384 39.5133L21.6135 39.4411L21.4004 39.3294L21.354 39.4179ZM16.3741 36.8076L16.4206 36.719L16.4205 36.719L16.3741 36.8076ZM16.0001 36.1223L15.9005 36.1134L15.9004 36.1135L16.0001 36.1223ZM16.4895 35.5139L16.4595 35.4186L16.4594 35.4186L16.4895 35.5139ZM21.354 33.983L21.384 34.0784L21.6135 34.0062L21.4004 33.8944L21.354 33.983ZM16.3739 31.3724L16.4203 31.2838L16.4203 31.2838L16.3739 31.3724ZM16.0003 30.6855L16.0999 30.6946L16.0999 30.6945L16.0003 30.6855ZM16.4928 30.0779L16.4633 29.9824L16.4633 29.9824L16.4928 30.0779ZM22.3254 28.2753L22.355 28.3709L22.4254 28.3491V28.2753H22.3254ZM22.3254 25H22.4254V24.9H22.3254V25ZM19.8477 24.5661L19.7553 24.6043L19.7554 24.6044L19.8477 24.5661ZM20.0002 23.7998L19.9295 23.7291L20.0002 23.7998ZM24.7814 19.0186L24.7107 18.9478L24.7107 18.9478L24.7814 19.0186ZM25.776 19.0186L25.8467 18.9478L25.8466 18.9478L25.776 19.0186ZM30.5572 23.7998L30.4865 23.8705L30.5572 23.7998ZM30.7096 24.5661L30.802 24.6044L30.802 24.6043L30.7096 24.5661ZM28.2319 25V24.9H28.1319V25H28.2319ZM28.2319 26.45H28.1319V26.5855L28.2615 26.5455L28.2319 26.45ZM35.2868 24.2695L35.3163 24.365L35.3464 24.3557L35.3657 24.3309L35.2868 24.2695ZM37.0339 22.0263L37.1128 22.0878L37.1128 22.0878L37.0339 22.0263ZM37.8526 21.6251V21.5251L37.8524 21.5251L37.8526 21.6251ZM38.6728 22.0222L38.7514 21.9604L38.7514 21.9604L38.6728 22.0222ZM40.7294 24.6378L40.6508 24.6996L40.664 24.7164L40.683 24.7263L40.7294 24.6378ZM51.6207 30.3474L51.5743 30.4359L51.5743 30.4359L51.6207 30.3474ZM51.9945 31.0343L52.0941 31.0434L52.0941 31.0433L51.9945 31.0343ZM51.5018 31.6418L51.4723 31.5463L51.4722 31.5463L51.5018 31.6418ZM46.6074 33.1544L46.5778 33.0588L46.3462 33.1304L46.5609 33.2429L46.6074 33.1544ZM37.606 45.3346L37.5765 45.2391H37.5765L37.606 45.3346ZM29.8653 47.7269L29.8189 47.8154L29.8554 47.8346L29.8949 47.8224L29.8653 47.7269ZM49.4583 41.6718L49.4878 41.7673L49.7194 41.6957L49.5047 41.5832L49.4583 41.6718ZM44.7021 39.1784L44.7485 39.0899L44.712 39.0707L44.6725 39.0829L44.7021 39.1784ZM30.0032 43.721L29.9737 43.6255L29.9734 43.6255L30.0032 43.721ZM29.4693 43.6721L29.5157 43.5835L29.5157 43.5835L29.4693 43.6721ZM28.2317 43.0234L28.2781 42.9348L28.1317 42.858V43.0234H28.2317ZM26.8254 42.2862H26.9254V42.2257L26.8718 42.1976L26.8254 42.2862ZM23.8819 40.7432L23.9283 40.6546L23.7819 40.5778V40.7432H23.8819ZM22.4757 40.5391H22.5757V40.4028L22.4456 40.4437L22.4757 40.5391ZM18.5253 41.7825L18.4952 41.6871L18.2657 41.7593L18.4788 41.871L18.5253 41.7825ZM26.8254 47.7211H26.9254V47.6606L26.8718 47.6325L26.8254 47.7211ZM26.8254 50.1592L26.7807 50.2487L26.9254 50.321V50.1592H26.8254ZM23.7317 46.0995L23.7781 46.011L23.6317 45.9342V46.0995H23.7317ZM23.7317 48.6124H23.6317V48.6742L23.687 48.7018L23.7317 48.6124ZM35.9932 25.651L35.9164 25.587L35.9158 25.5877L35.9932 25.651ZM36.0127 25.626L35.9338 25.5645L35.9324 25.5664L36.0127 25.626ZM39.7255 25.6386L39.8026 25.5748L39.8024 25.5746L39.7255 25.6386ZM39.6874 25.5881L39.7701 25.5316L39.766 25.5263L39.6874 25.5881ZM37.8559 23.259L37.9346 23.1972L37.8556 23.0967L37.777 23.1976L37.8559 23.259ZM18.5363 30.9184L18.5067 30.8228L18.2751 30.8944L18.4898 31.0069L18.5363 30.9184ZM22.3254 29.7472H22.4254V29.6117L22.2959 29.6517L22.3254 29.7472ZM23.5125 33.5268L23.5611 33.4394L23.5589 33.4382L23.5125 33.5268ZM23.515 33.5282L23.4664 33.6156L23.4685 33.6167L23.515 33.5282ZM26.5156 35.1011L26.4692 35.1897L26.4692 35.1897L26.5156 35.1011ZM29.8653 36.857L29.8189 36.9456L29.8554 36.9647L29.8949 36.9526L29.8653 36.857ZM49.4583 30.8016L49.4878 30.8972L49.7194 30.8256L49.5047 30.7131L49.4583 30.8016ZM41.6545 26.7106L41.7009 26.622L41.5322 26.5336L41.5552 26.7227L41.6545 26.7106ZM34.2079 26.0751L34.3037 26.1039L34.3578 25.9241L34.1784 25.9795L34.2079 26.0751ZM28.2317 27.9219L28.2021 27.8263L28.1317 27.8481V27.9219H28.2317ZM28.3624 23.5938V23.6938H28.6038L28.4331 23.5231L28.3624 23.5938ZM25.2785 20.5102L25.3493 20.4395L25.2785 20.3688L25.2078 20.4395L25.2785 20.5102ZM22.195 23.5938L22.1243 23.5231L21.9535 23.6938H22.195V23.5938ZM44.5639 37.7491L44.5344 37.6535L44.5323 37.6542L44.5639 37.7491ZM44.5606 37.7502L44.5901 37.8458L44.5922 37.8451L44.5606 37.7502ZM49.4583 36.2366L49.4878 36.3321L49.7194 36.2605L49.5047 36.148L49.4583 36.2366ZM44.7021 33.7432L44.7485 33.6547L44.712 33.6355L44.6725 33.6477L44.7021 33.7432ZM30.0032 38.2861L29.9737 38.1905H29.9737L30.0032 38.2861ZM29.9112 38.3069L29.8945 38.2083L29.893 38.2086L29.9112 38.3069ZM29.8895 38.3102L29.878 38.2109L29.8754 38.2112L29.8895 38.3102ZM29.7967 38.3174V38.4174L29.7975 38.4174L29.7967 38.3174ZM29.7868 38.3168L29.7856 38.4168H29.7868V38.3168ZM29.7195 38.3127L29.7305 38.2133L29.7294 38.2132L29.7195 38.3127ZM29.7029 38.3105L29.6881 38.4094L29.6882 38.4094L29.7029 38.3105ZM29.6953 38.3094L29.6801 38.4083L29.6817 38.4085L29.6953 38.3094ZM29.642 38.2998L29.6634 38.2021L29.6634 38.2021L29.642 38.2998ZM29.6203 38.2946L29.6447 38.1976L29.6447 38.1976L29.6203 38.2946ZM29.6159 38.2935L29.5903 38.3901L29.5916 38.3905L29.6159 38.2935ZM29.5638 38.2773L29.5301 38.3715L29.5308 38.3717L29.5638 38.2773ZM29.541 38.2693L29.5787 38.1767L29.5777 38.1763L29.541 38.2693ZM29.4712 38.238L29.5173 38.149L29.5106 38.1461L29.4712 38.238ZM29.4693 38.2372L29.4227 38.326L29.4299 38.3291L29.4693 38.2372ZM28.2317 37.5884L28.2781 37.4999L28.1317 37.4231V37.5884H28.2317ZM26.8254 36.8513H26.9254V36.7908L26.8718 36.7627L26.8254 36.8513ZM25.7586 36.2921L25.7122 36.3806L25.7122 36.3806L25.7586 36.2921ZM23.8819 35.3082L23.9283 35.2197L23.7819 35.1429V35.3082H23.8819ZM22.4757 35.1042H22.5757V34.9678L22.4456 35.0088L22.4757 35.1042ZM18.5253 36.3475L18.4952 36.2521L18.2657 36.3244L18.4788 36.4361L18.5253 36.3475ZM29.8653 42.2919L29.8189 42.3805L29.8554 42.3997L29.8949 42.3875L29.8653 42.2919ZM46.164 25.4516C48.3243 25.4516 50.0821 23.6981 50.0821 21.5421H49.8821C49.8821 23.5872 48.2143 25.2516 46.164 25.2516V25.4516ZM42.246 21.5421C42.246 23.6981 44.0038 25.4516 46.164 25.4516V25.2516C44.1138 25.2516 42.446 23.5872 42.446 21.5421H42.246ZM43.1156 19.0863C42.5546 19.7789 42.246 20.6504 42.246 21.5421H42.446C42.446 20.6962 42.7389 19.8692 43.271 19.2122L43.1156 19.0863ZM43.0933 19.149V19.1492H43.2933V19.149H43.0933ZM45.2543 16.3398L43.1144 19.0875L43.2722 19.2104L45.4121 16.4627L45.2543 16.3398ZM46.1517 15.9C45.7988 15.9009 45.4715 16.0612 45.2543 16.3398L45.4121 16.4628C45.5915 16.2327 45.8608 16.1007 46.1522 16.1L46.1517 15.9ZM46.1544 15.9H46.1519V16.1H46.1544V15.9ZM47.0509 16.3356C46.8331 16.0588 46.5062 15.9 46.1544 15.9V16.1C46.4448 16.1 46.7139 16.2307 46.8938 16.4593L47.0509 16.3356ZM49.1999 19.0685L47.051 16.3356L46.8937 16.4592L49.0427 19.1921L49.1999 19.0685ZM49.2204 19.0957L49.2012 19.0701L49.0414 19.1904L49.0606 19.216L49.2204 19.0957ZM50.0821 21.5421C50.0821 20.6524 49.7757 19.7849 49.2184 19.0931L49.0626 19.2186C49.5913 19.8748 49.8821 20.6981 49.8821 21.5421H50.0821ZM44.3696 20.09C44.3781 20.0797 44.3857 20.0698 44.3926 20.0605L44.232 19.9414C44.2262 19.9491 44.2212 19.9557 44.216 19.9619L44.3696 20.09ZM43.8523 21.5423C43.8523 21.0062 44.0313 20.5042 44.3702 20.0892L44.2153 19.9627C43.8473 20.4134 43.6523 20.9601 43.6523 21.5423H43.8523ZM46.164 23.8453C44.889 23.8453 43.8523 22.8117 43.8523 21.5423H43.6523C43.6523 22.9228 44.7793 24.0453 46.164 24.0453V23.8453ZM48.4758 21.5423C48.4758 22.8117 47.439 23.8453 46.164 23.8453V24.0453C47.5488 24.0453 48.6758 22.9228 48.6758 21.5423H48.4758ZM47.9481 20.0774C48.2884 20.4882 48.4758 21.0083 48.4758 21.5423H48.6758C48.6758 20.9618 48.4721 20.3965 48.1021 19.9498L47.9481 20.0774ZM47.9043 20.0194C47.918 20.0394 47.9325 20.0587 47.9483 20.0776L48.1019 19.9496C48.0903 19.9355 48.0795 19.9213 48.0695 19.9067L47.9043 20.0194ZM46.0769 17.6958L47.9083 20.0249L48.0655 19.9012L46.2341 17.5721L46.0769 17.6958ZM44.3912 20.0624L46.2344 17.6954L46.0766 17.5725L44.2334 19.9395L44.3912 20.0624ZM52.0938 36.4784C52.1236 36.1546 51.9551 35.8446 51.6671 35.6937L51.5743 35.8709C51.7905 35.9842 51.917 36.2169 51.8946 36.46L52.0938 36.4784ZM51.5313 37.1723C51.8419 37.0763 52.064 36.8024 52.0938 36.4784L51.8946 36.46C51.8723 36.7035 51.7054 36.9091 51.4722 36.9812L51.5313 37.1723ZM46.6369 38.6851L51.5313 37.1723L51.4722 36.9812L46.5778 38.494L46.6369 38.6851ZM51.6671 41.1289L46.6538 38.501L46.5609 38.6781L51.5743 41.3061L51.6671 41.1289ZM52.0938 41.9136C52.1236 41.5895 51.9551 41.2798 51.6671 41.1289L51.5743 41.3061C51.7905 41.4194 51.917 41.6518 51.8946 41.8952L52.0938 41.9136ZM51.5313 42.6075C51.8418 42.5115 52.0643 42.2376 52.0938 41.9135L51.8946 41.8953C51.8725 42.1386 51.7055 42.3443 51.4722 42.4164L51.5313 42.6075ZM38.0508 46.7738L51.5313 42.6075L51.4722 42.4164L37.9918 46.5827L38.0508 46.7738ZM30.0327 49.2517L38.0508 46.7738L37.9918 46.5827L29.9737 49.0606L30.0327 49.2517ZM29.7956 49.2875C29.8753 49.2875 29.9552 49.2756 30.0326 49.2518L29.9738 49.0606C29.9155 49.0786 29.8554 49.0875 29.7956 49.0875V49.2875ZM29.4228 49.1956C29.5389 49.2564 29.6669 49.2875 29.7956 49.2875V49.0875C29.699 49.0875 29.6029 49.0642 29.5157 49.0185L29.4228 49.1956ZM28.1852 48.5469L29.4228 49.1956L29.5157 49.0185L28.2781 48.3697L28.1852 48.5469ZM28.3317 51.2969V48.4583H28.1317V51.2969H28.3317ZM27.9508 51.9801C28.1877 51.8336 28.3317 51.5751 28.3317 51.2969H28.1317C28.1317 51.5059 28.0235 51.7 27.8456 51.81L27.9508 51.9801ZM27.5285 52.1C27.6753 52.1 27.8218 52.0599 27.9508 51.9801L27.8457 51.81C27.7489 51.8698 27.6389 51.9 27.5285 51.9V52.1ZM27.1695 52.0154C27.2829 52.0717 27.4055 52.1 27.5285 52.1V51.9C27.4363 51.9 27.3441 51.8788 27.2586 51.8363L27.1695 52.0154ZM22.6693 49.7653L27.1693 52.0153L27.2588 51.8364L22.7588 49.5864L22.6693 49.7653ZM22.2254 49.0469C22.2254 49.3512 22.3974 49.6291 22.6693 49.7653L22.7588 49.5864C22.5545 49.4841 22.4254 49.2754 22.4254 49.0469H22.2254ZM22.2254 45.3621V49.0469H22.4254V45.3621H22.2254ZM16.3277 42.3311L22.279 45.4506L22.3719 45.2735L16.4206 42.1539L16.3277 42.3311ZM15.9004 41.5484C15.8719 41.8714 16.04 42.1805 16.3278 42.3311L16.4205 42.1539C16.2046 42.0409 16.0782 41.8088 16.0997 41.566L15.9004 41.5484ZM16.4594 40.8535C16.1499 40.951 15.9293 41.2252 15.9005 41.5483L16.0997 41.5661C16.1213 41.3235 16.287 41.1175 16.5196 41.0442L16.4594 40.8535ZM21.3239 39.3225L16.4595 40.8535L16.5195 41.0443L21.384 39.5133L21.3239 39.3225ZM16.3277 36.8962L21.3075 39.5065L21.4004 39.3294L16.4206 36.719L16.3277 36.8962ZM15.9004 36.1135C15.8719 36.4365 16.04 36.7455 16.3278 36.8962L16.4205 36.719C16.2046 36.606 16.0782 36.3739 16.0997 36.1311L15.9004 36.1135ZM16.4594 35.4186C16.1499 35.5161 15.9293 35.7903 15.9005 36.1134L16.0997 36.1312C16.1213 35.8886 16.287 35.6826 16.5196 35.6093L16.4594 35.4186ZM21.3239 33.8876L16.4595 35.4186L16.5195 35.6093L21.384 34.0784L21.3239 33.8876ZM16.3274 31.461L21.3075 34.0716L21.4004 33.8944L16.4203 31.2838L16.3274 31.461ZM15.9008 30.6763C15.871 31.0001 16.0394 31.31 16.3275 31.461L16.4203 31.2838C16.2041 31.1705 16.0775 30.9378 16.0999 30.6946L15.9008 30.6763ZM16.4633 29.9824C16.1527 30.0784 15.9302 30.3522 15.9007 30.6764L16.0999 30.6945C16.1221 30.4512 16.2891 30.2456 16.5223 30.1735L16.4633 29.9824ZM22.2959 28.1798L16.4633 29.9824L16.5223 30.1735L22.355 28.3709L22.2959 28.1798ZM22.2254 25V28.2753H22.4254V25H22.2254ZM20.4973 25.1H22.3254V24.9H20.4973V25.1ZM19.7554 24.6044C19.8799 24.9043 20.1725 25.1 20.4973 25.1V24.9C20.2535 24.9 20.0337 24.7531 19.9401 24.5277L19.7554 24.6044ZM19.9295 23.7291C19.6998 23.9587 19.6311 24.3041 19.7553 24.6043L19.9401 24.5279C19.8468 24.3023 19.8984 24.0429 20.0709 23.8705L19.9295 23.7291ZM24.7107 18.9478L19.9295 23.7291L20.0709 23.8705L24.8521 19.0893L24.7107 18.9478ZM25.8466 18.9478C25.5329 18.6344 25.0244 18.6344 24.7107 18.9478L24.8521 19.0893C25.0877 18.8539 25.4697 18.8539 25.7053 19.0893L25.8466 18.9478ZM30.6279 23.7291L25.8467 18.9478L25.7052 19.0893L30.4865 23.8705L30.6279 23.7291ZM30.802 24.6043C30.9262 24.3041 30.8576 23.9587 30.6279 23.7291L30.4865 23.8705C30.6589 24.0429 30.7105 24.3023 30.6172 24.5279L30.802 24.6043ZM30.0601 25.1C30.3848 25.1 30.6778 24.9043 30.802 24.6044L30.6172 24.5278C30.524 24.753 30.3039 24.9 30.0601 24.9V25.1ZM28.2319 25.1H30.0601V24.9H28.2319V25.1ZM28.3319 26.45V25H28.1319V26.45H28.3319ZM35.2573 24.1739L28.2024 26.3544L28.2615 26.5455L35.3163 24.365L35.2573 24.1739ZM36.955 21.9649L35.2079 24.208L35.3657 24.3309L37.1128 22.0878L36.955 21.9649ZM37.8524 21.5251C37.4995 21.526 37.1719 21.6863 36.955 21.9649L37.1128 22.0878C37.2919 21.8577 37.5614 21.7258 37.8529 21.7251L37.8524 21.5251ZM37.8548 21.5251H37.8526V21.7251H37.8548V21.5251ZM38.7514 21.9604C38.5338 21.6839 38.2069 21.5251 37.8548 21.5251V21.7251C38.1455 21.7251 38.4146 21.8557 38.5942 22.084L38.7514 21.9604ZM40.808 24.576L38.7514 21.9604L38.5942 22.084L40.6508 24.6996L40.808 24.576ZM51.6671 30.2588L40.7758 24.5492L40.683 24.7263L51.5743 30.4359L51.6671 30.2588ZM52.0941 31.0433C52.1236 30.7194 51.9551 30.4097 51.6671 30.2588L51.5743 30.4359C51.7905 30.5492 51.9171 30.7817 51.8949 31.0252L52.0941 31.0433ZM51.5313 31.7374C51.8422 31.6414 52.0643 31.3675 52.0941 31.0434L51.8949 31.0251C51.8725 31.2685 51.7057 31.4742 51.4723 31.5463L51.5313 31.7374ZM46.6369 33.2499L51.5313 31.7374L51.4722 31.5463L46.5778 33.0588L46.6369 33.2499ZM51.6671 35.6937L46.6538 33.0658L46.5609 33.2429L51.5743 35.8709L51.6671 35.6937ZM37.5765 45.2391L29.8358 47.6313L29.8949 47.8224L37.6355 45.4301L37.5765 45.2391ZM49.4288 41.5762L37.5765 45.2391L37.6355 45.4301L49.4878 41.7673L49.4288 41.5762ZM44.6556 39.267L49.4119 41.7603L49.5047 41.5832L44.7485 39.0899L44.6556 39.267ZM30.0327 43.8165L44.7316 39.274L44.6725 39.0829L29.9737 43.6255L30.0327 43.8165ZM29.7956 43.8526C29.8753 43.8526 29.9554 43.8406 30.033 43.8165L29.9734 43.6255C29.9154 43.6436 29.8554 43.6526 29.7956 43.6526V43.8526ZM29.4228 43.7607C29.5389 43.8215 29.6669 43.8526 29.7956 43.8526V43.6526C29.699 43.6526 29.6029 43.6293 29.5157 43.5835L29.4228 43.7607ZM28.1852 43.1119L29.4228 43.7607L29.5157 43.5835L28.2781 42.9348L28.1852 43.1119ZM28.3317 43.8438V43.0234H28.1317V43.8438H28.3317ZM27.5285 44.6469C27.9721 44.6469 28.3317 44.2874 28.3317 43.8438H28.1317C28.1317 44.1769 27.8617 44.4469 27.5285 44.4469V44.6469ZM26.7254 43.8438C26.7254 44.2874 27.0852 44.6469 27.5285 44.6469V44.4469C27.1957 44.4469 26.9254 44.1769 26.9254 43.8438H26.7254ZM26.7254 42.2862V43.8438H26.9254V42.2862H26.7254ZM23.8355 40.8317L26.779 42.3747L26.8718 42.1976L23.9283 40.6546L23.8355 40.8317ZM23.9819 42.0041V40.7432H23.7819V42.0041H23.9819ZM23.1788 42.8072C23.6224 42.8072 23.9819 42.4477 23.9819 42.0041H23.7819C23.7819 42.3372 23.5119 42.6072 23.1788 42.6072V42.8072ZM22.3757 42.0041C22.3757 42.4477 22.7355 42.8072 23.1788 42.8072V42.6072C22.8459 42.6072 22.5757 42.3372 22.5757 42.0041H22.3757ZM22.3757 40.5391V42.0041H22.5757V40.5391H22.3757ZM18.5553 41.8778L22.5057 40.6345L22.4456 40.4437L18.4952 41.6871L18.5553 41.8778ZM29.9118 47.6383L18.5717 41.6939L18.4788 41.871L29.8189 47.8154L29.9118 47.6383ZM26.7254 47.7211V50.1592H26.9254V47.7211H26.7254ZM23.6852 46.1881L26.779 47.8097L26.8718 47.6325L23.7781 46.011L23.6852 46.1881ZM23.8317 48.6124V46.0995H23.6317V48.6124H23.8317ZM26.8701 50.0698L23.7764 48.5229L23.687 48.7018L26.7807 50.2487L26.8701 50.0698ZM36.07 25.715C36.0786 25.7048 36.0861 25.6949 36.093 25.6856L35.9324 25.5664C35.9267 25.5741 35.9216 25.5807 35.9164 25.587L36.07 25.715ZM35.5527 27.1671C35.5527 26.6312 35.7318 26.1293 36.0707 25.7142L35.9158 25.5877C35.5477 26.0384 35.3527 26.5851 35.3527 27.1671H35.5527ZM37.8645 29.4704C36.5895 29.4704 35.5527 28.4368 35.5527 27.1671H35.3527C35.3527 28.5479 36.4797 29.6704 37.8645 29.6704V29.4704ZM40.1762 27.1671C40.1762 28.4368 39.1395 29.4704 37.8645 29.4704V29.6704C39.2492 29.6704 40.3762 28.5479 40.3762 27.1671H40.1762ZM39.6485 25.7024C39.9888 26.1132 40.1762 26.6334 40.1762 27.1671H40.3762C40.3762 26.5868 40.1725 26.0215 39.8026 25.5748L39.6485 25.7024ZM39.6048 25.6445C39.6184 25.6644 39.6329 25.6837 39.6487 25.7026L39.8024 25.5746C39.7907 25.5606 39.78 25.5464 39.77 25.5317L39.6048 25.6445ZM37.7773 23.3208L39.6088 25.6499L39.766 25.5263L37.9346 23.1972L37.7773 23.3208ZM36.0916 25.6874L37.9348 23.3204L37.777 23.1976L35.9338 25.5646L36.0916 25.6874ZM18.5658 31.0139L22.355 29.8428L22.2959 29.6517L18.5067 30.8228L18.5658 31.0139ZM23.5589 33.4382L18.5827 30.8298L18.4898 31.0069L23.4661 33.6154L23.5589 33.4382ZM23.5635 33.4408L23.5611 33.4394L23.4639 33.6142L23.4664 33.6156L23.5635 33.4408ZM26.562 35.0126L23.5614 33.4396L23.4685 33.6167L26.4692 35.1897L26.562 35.0126ZM29.9118 36.7685L26.562 35.0126L26.4692 35.1897L29.8189 36.9456L29.9118 36.7685ZM49.4288 30.7061L29.8358 36.7615L29.8949 36.9526L49.4878 30.8972L49.4288 30.7061ZM41.608 26.7992L49.4119 30.8902L49.5047 30.7131L41.7009 26.622L41.608 26.7992ZM41.7825 27.1671C41.7825 27.0099 41.7726 26.8535 41.7537 26.6985L41.5552 26.7227C41.5731 26.8699 41.5825 27.0183 41.5825 27.1671H41.7825ZM37.8645 31.0766C40.0247 31.0766 41.7825 29.3231 41.7825 27.1671H41.5825C41.5825 29.2122 39.9147 30.8766 37.8645 30.8766V31.0766ZM33.9464 27.1671C33.9464 29.3231 35.7042 31.0766 37.8645 31.0766V30.8766C35.8142 30.8766 34.1464 29.2122 34.1464 27.1671H33.9464ZM34.1122 26.0462C34.0034 26.4078 33.9464 26.7855 33.9464 27.1671H34.1464C34.1464 26.8054 34.2004 26.4471 34.3037 26.1039L34.1122 26.0462ZM28.2612 28.0174L34.2375 26.1706L34.1784 25.9795L28.2021 27.8263L28.2612 28.0174ZM28.3317 32.6289V27.9219H28.1317V32.6289H28.3317ZM27.5285 33.4321C27.9721 33.4321 28.3317 33.0725 28.3317 32.6289H28.1317C28.1317 32.9621 27.8617 33.2321 27.5285 33.2321V33.4321ZM26.7254 32.6289C26.7254 33.0726 27.0852 33.4321 27.5285 33.4321V33.2321C27.1957 33.2321 26.9254 32.9621 26.9254 32.6289H26.7254ZM26.7254 27.4052V32.6289H26.9254V27.4052H26.7254ZM26.7254 27.3986V27.4052H26.9254V27.3986H26.7254ZM26.7254 24.2969V27.3986H26.9254V24.2969H26.7254ZM27.5285 23.4938C27.0852 23.4938 26.7254 23.8533 26.7254 24.2969H26.9254C26.9254 23.9638 27.1957 23.6938 27.5285 23.6938V23.4938ZM28.3624 23.4938H27.5285V23.6938H28.3624V23.4938ZM25.2078 20.5809L28.2917 23.6645L28.4331 23.5231L25.3493 20.4395L25.2078 20.5809ZM22.2657 23.6645L25.3493 20.5809L25.2078 20.4395L22.1243 23.5231L22.2657 23.6645ZM23.0286 23.4938H22.195V23.6938H23.0286V23.4938ZM23.8317 24.2969C23.8317 23.8533 23.4721 23.4938 23.0286 23.4938V23.6938C23.3617 23.6938 23.6317 23.9638 23.6317 24.2969H23.8317ZM23.8317 28.7936V24.2969H23.6317V28.7936H23.8317ZM23.8317 28.7975V28.7936H23.6317V28.7975H23.8317ZM23.8317 30.8599V28.7975H23.6317V30.8599H23.8317ZM23.0286 31.663C23.4721 31.663 23.8317 31.3035 23.8317 30.8599H23.6317C23.6317 31.193 23.3617 31.463 23.0286 31.463V31.663ZM22.2254 30.8599C22.2254 31.3035 22.5853 31.663 23.0286 31.663V31.463C22.6957 31.463 22.4254 31.193 22.4254 30.8599H22.2254ZM22.2254 29.7472V30.8599H22.4254V29.7472H22.2254ZM44.5323 37.6542L44.529 37.6553L44.5922 37.8451L44.5955 37.844L44.5323 37.6542ZM49.4288 36.141L44.5344 37.6536L44.5934 37.8447L49.4878 36.3321L49.4288 36.141ZM44.6556 33.8318L49.4119 36.3251L49.5047 36.148L44.7485 33.6547L44.6556 33.8318ZM30.0327 38.3816L44.7316 33.8388L44.6725 33.6477L29.9737 38.1905L30.0327 38.3816ZM29.9279 38.4055C29.9606 38.4 29.9965 38.3928 30.0327 38.3816L29.9737 38.1905C29.9495 38.198 29.9233 38.2035 29.8945 38.2083L29.9279 38.4055ZM29.901 38.4096C29.9106 38.4085 29.9201 38.407 29.9294 38.4053L29.893 38.2086C29.8875 38.2096 29.8826 38.2104 29.878 38.2109L29.901 38.4096ZM29.7975 38.4174C29.8333 38.4171 29.8688 38.4142 29.9036 38.4092L29.8754 38.2112C29.8487 38.215 29.8221 38.2171 29.7958 38.2174L29.7975 38.4174ZM29.7956 38.4174H29.7967V38.2174H29.7956V38.4174ZM29.7868 38.4168C29.7828 38.4168 29.7796 38.4165 29.7817 38.4167C29.7825 38.4167 29.7886 38.4174 29.7956 38.4174V38.2174C29.7995 38.2174 29.8027 38.2177 29.8007 38.2176C29.7999 38.2175 29.7938 38.2168 29.7868 38.2168V38.4168ZM29.7084 38.4121C29.734 38.4149 29.7598 38.4165 29.7856 38.4168L29.788 38.2168C29.7687 38.2166 29.7495 38.2154 29.7305 38.2133L29.7084 38.4121ZM29.6882 38.4094C29.6933 38.4102 29.7011 38.4114 29.7095 38.4122L29.7294 38.2132C29.7266 38.2129 29.7234 38.2125 29.7176 38.2116L29.6882 38.4094ZM29.6817 38.4085C29.6836 38.4087 29.6855 38.409 29.6881 38.4094L29.7176 38.2116C29.7152 38.2112 29.7121 38.2108 29.7089 38.2103L29.6817 38.4085ZM29.6207 38.3975C29.6412 38.402 29.6614 38.4054 29.6801 38.4082L29.7105 38.2106C29.6935 38.208 29.678 38.2053 29.6634 38.2021L29.6207 38.3975ZM29.596 38.3916C29.603 38.3933 29.6116 38.3955 29.6207 38.3975L29.6634 38.2021C29.6578 38.2009 29.6522 38.1995 29.6447 38.1976L29.596 38.3916ZM29.5916 38.3905L29.596 38.3916L29.6447 38.1976L29.6403 38.1965L29.5916 38.3905ZM29.5308 38.3717C29.5498 38.3783 29.5696 38.3847 29.5903 38.3901L29.6416 38.1968C29.6271 38.193 29.6123 38.1883 29.5967 38.1829L29.5308 38.3717ZM29.5032 38.3619C29.5101 38.3647 29.5164 38.3668 29.5206 38.3683C29.5258 38.37 29.5276 38.3706 29.5301 38.3715L29.5974 38.1831C29.5803 38.177 29.5847 38.1791 29.5787 38.1767L29.5032 38.3619ZM29.4252 38.3268C29.4519 38.3406 29.4785 38.3522 29.5042 38.3623L29.5777 38.1763C29.5562 38.1678 29.5361 38.159 29.5172 38.1492L29.4252 38.3268ZM29.4299 38.3291L29.4318 38.3299L29.5106 38.1461L29.5087 38.1453L29.4299 38.3291ZM28.1852 37.677L29.4228 38.3257L29.5157 38.1486L28.2781 37.4999L28.1852 37.677ZM28.3317 38.4119V37.5884H28.1317V38.4119H28.3317ZM27.5285 39.215C27.9721 39.215 28.3317 38.8555 28.3317 38.4119H28.1317C28.1317 38.745 27.8617 39.015 27.5285 39.015V39.215ZM26.7254 38.4119C26.7254 38.8555 27.0852 39.215 27.5285 39.215V39.015C27.1957 39.015 26.9254 38.745 26.9254 38.4119H26.7254ZM26.7254 36.8513V38.4119H26.9254V36.8513H26.7254ZM25.7122 36.3806L26.779 36.9398L26.8718 36.7627L25.8051 36.2035L25.7122 36.3806ZM23.8355 35.3968L25.7122 36.3806L25.8051 36.2035L23.9283 35.2197L23.8355 35.3968ZM23.9819 36.461V35.3082H23.7819V36.461H23.9819ZM23.1788 37.2641C23.6224 37.2641 23.9819 36.9046 23.9819 36.461H23.7819C23.7819 36.7941 23.5119 37.0641 23.1788 37.0641V37.2641ZM22.3757 36.461C22.3757 36.9046 22.7355 37.2641 23.1788 37.2641V37.0641C22.8459 37.0641 22.5757 36.7941 22.5757 36.461H22.3757ZM22.3757 35.1042V36.461H22.5757V35.1042H22.3757ZM18.5553 36.4429L22.5057 35.1995L22.4456 35.0088L18.4952 36.2521L18.5553 36.4429ZM29.9118 42.2034L18.5717 36.259L18.4788 36.4361L29.8189 42.3805L29.9118 42.2034ZM44.5311 37.6547L29.8358 42.1964L29.8949 42.3875L44.5901 37.8457L44.5311 37.6547Z" fill="#849AEF" mask="url(#path-2-inside-1)"/>
</svg>
