<svg width="68" height="68" viewBox="0 0 68 68" fill="none" xmlns="http://www.w3.org/2000/svg">
<circle cx="34" cy="34" r="34" fill="#8E99C5"/>
<path d="M44.5869 51.7091C44.3051 49.0906 43.8718 46.4905 43.2893 43.9221C41.6771 36.7287 39.5045 32.2959 37.9334 29.8137V27.6233L39.7339 19.8209C39.7519 19.7424 39.7529 19.661 39.7369 19.5821L39.1329 16.5564C39.1072 16.4278 39.0376 16.3121 38.9362 16.229C38.8348 16.1459 38.7077 16.1005 38.5765 16.1006H36.7612C36.6867 16.1006 36.6129 16.1153 36.5441 16.1438C36.4753 16.1723 36.4127 16.2141 36.3601 16.2667C36.3074 16.3194 36.2656 16.382 36.2371 16.4508C36.2086 16.5196 36.1939 16.5934 36.1939 16.6679V19.5687C35.21 19.9938 34.3664 20.6884 33.7603 21.5723C33.7548 21.5803 33.7365 21.5803 33.736 21.5803C33.7355 21.5803 33.7172 21.5803 33.7117 21.5723C33.1056 20.6884 32.262 19.9938 31.2781 19.5687V16.6679C31.2781 16.5174 31.2183 16.3731 31.1119 16.2667C31.0055 16.1604 30.8612 16.1006 30.7108 16.1006H28.8959C28.7648 16.1005 28.6377 16.1459 28.5363 16.229C28.4348 16.3121 28.3653 16.4278 28.3395 16.5564L27.7346 19.5816C27.7186 19.6605 27.7196 19.7419 27.7376 19.8204L29.538 27.6233V29.8132C27.967 32.2954 25.7944 36.7282 24.1817 43.9216C23.5993 46.4901 23.1662 49.0901 22.8846 51.7086C22.8775 51.7871 22.8869 51.8662 22.912 51.9408C22.9372 52.0155 22.9776 52.0841 23.0308 52.1423C23.0839 52.2004 23.1486 52.2469 23.2207 52.2787C23.2927 52.3105 23.3707 52.3269 23.4494 52.3269H44.021C44.0998 52.327 44.1778 52.3106 44.2499 52.2788C44.322 52.2471 44.3867 52.2006 44.4399 52.1424C44.493 52.0842 44.5335 52.0156 44.5586 51.9409C44.5837 51.8662 44.593 51.7871 44.5859 51.7086L44.5869 51.7091ZM37.3285 17.2352H38.1113L38.4814 19.0872C38.0939 19.0931 37.7077 19.135 37.328 19.2125V17.2352H37.3285ZM29.3607 17.2352H30.1435V19.2125C29.7637 19.1349 29.3776 19.093 28.9901 19.0872L29.3607 17.2352ZM28.995 20.2232C29.7402 20.2298 30.473 20.4148 31.132 20.7626C31.7911 21.1104 32.3573 21.6109 32.7832 22.2224C32.8916 22.3739 33.0346 22.4973 33.2002 22.5825C33.3659 22.6676 33.5495 22.712 33.7357 22.712C33.922 22.712 34.1056 22.6676 34.2712 22.5825C34.4369 22.4973 34.5799 22.3739 34.6882 22.2224C35.1124 21.6086 35.6782 21.1061 36.3378 20.7575C36.9974 20.4088 37.7314 20.2244 38.4774 20.2198L36.9148 26.9911H30.5562L28.995 20.2232ZM36.7989 28.1257V29.4138H30.6731V28.1257H36.7989ZM24.0826 51.1934C24.3967 48.5179 25.8985 37.7775 30.4189 30.5464H31.2612L30.1514 37.7587C30.1285 37.9074 30.1656 38.0591 30.2545 38.1804C30.3434 38.3018 30.4769 38.3828 30.6255 38.4058C30.6544 38.4101 30.6836 38.4123 30.7127 38.4122C30.8481 38.412 30.979 38.3634 31.0816 38.2752C31.1843 38.187 31.252 38.0649 31.2726 37.9311L32.4087 30.5489H33.1697V42.0795C33.1697 42.23 33.2295 42.3743 33.3358 42.4807C33.4422 42.5871 33.5865 42.6468 33.737 42.6468C33.8874 42.6468 34.0317 42.5871 34.1381 42.4807C34.2445 42.3743 34.3043 42.23 34.3043 42.0795V30.5459H35.0648L36.2008 37.9282C36.2214 38.062 36.2892 38.184 36.3918 38.2722C36.4945 38.3604 36.6253 38.409 36.7607 38.4092C36.7899 38.4093 36.819 38.4071 36.8479 38.4028C36.9966 38.3799 37.1301 38.2988 37.219 38.1775C37.3079 38.0561 37.345 37.9044 37.3221 37.7557L36.2127 30.5435H37.055C41.571 37.7731 43.0747 48.5184 43.3884 51.1934H24.0826Z" fill="white"/>
</svg>
