<svg width="68" height="68" viewBox="0 0 68 68" fill="none" xmlns="http://www.w3.org/2000/svg">
<circle cx="34" cy="34" r="34" fill="#8E99C5"/>
<path d="M29.636 26.9006C29.5449 27.5451 29.36 28.1727 29.087 28.7636C28.3071 30.8035 27.1335 33.8888 28.4673 37.8901C28.5488 38.1351 28.7779 38.3003 29.036 38.3006H32.0612V48.5006H31.4612C29.805 48.5026 28.4632 49.8444 28.4612 51.5006C28.4612 51.8319 28.7298 52.1006 29.0612 52.1006H38.6612C38.9925 52.1006 39.2612 51.8319 39.2612 51.5006C39.2591 49.8444 37.9173 48.5026 36.2612 48.5006H35.6612V38.3006H38.6864C38.9445 38.3003 39.1736 38.1351 39.2553 37.8901C40.5889 33.8888 39.4129 30.8047 38.6354 28.7636C38.3624 28.1727 38.1775 27.5451 38.0864 26.9006C38.0864 23.6287 41.4133 20.7878 41.4464 20.7603C41.5701 20.6574 41.6477 20.5095 41.6612 20.3492C41.7212 19.5764 40.6334 18.9931 38.2299 18.5126C37.5195 18.4496 36.8629 18.1086 36.4027 17.564C36.2776 17.3633 36.2345 17.1219 36.2829 16.8901C36.3438 16.7067 36.3127 16.5049 36.1994 16.3484C36.0857 16.192 35.9038 16.0997 35.7104 16.1006H32.012C31.8233 16.1029 31.6466 16.1938 31.535 16.3461C31.4219 16.4993 31.3868 16.6965 31.4395 16.8793C31.4914 17.1146 31.4483 17.3607 31.3197 17.564C30.8597 18.1083 30.2041 18.449 29.4945 18.5126C27.0907 18.9931 26.0011 19.5764 26.0612 20.3492C26.0741 20.5089 26.1503 20.6571 26.273 20.7603C26.309 20.7878 29.636 23.6287 29.636 26.9006ZM36.2612 49.7006C37.0238 49.7015 37.7035 50.1819 37.9586 50.9006H29.7637C30.0189 50.1819 30.6986 49.7015 31.4612 49.7006H36.2612ZM33.2612 48.5006V38.3006H34.4612V48.5006H33.2612ZM38.2455 37.1006H29.4769C28.4864 33.7077 29.4769 31.1085 30.209 29.1913C30.546 28.4689 30.7581 27.6942 30.836 26.9006C30.8339 26.3404 30.7601 25.7826 30.6163 25.2409C31.0121 25.3446 31.419 25.3991 31.8277 25.4029C32.3032 25.4123 32.7737 25.3089 33.2011 25.1006C33.4528 24.967 33.6769 24.7868 33.8612 24.5697C34.0455 24.7868 34.2696 24.967 34.5212 25.1006C34.9481 25.3077 35.418 25.4103 35.8923 25.4006C36.301 25.3965 36.708 25.3423 37.1035 25.2386C36.9605 25.7812 36.8875 26.3396 36.8864 26.9006C36.9643 27.6942 37.1764 28.4689 37.5133 29.1913C38.2449 31.1085 39.236 33.7077 38.2455 37.1006ZM29.7303 19.6886C31.0405 19.4264 31.9285 18.9087 32.3703 18.1479C32.522 17.8883 32.6172 17.5994 32.6492 17.3006H35.0732C35.1051 17.5994 35.2003 17.8883 35.3521 18.1479C35.7939 18.9087 36.6819 19.4264 37.9923 19.6886C38.7376 19.8134 39.4666 20.0229 40.1647 20.3126C39.0968 21.3541 38.222 22.577 37.5813 23.924C37.4691 23.8968 37.3513 23.9035 37.2429 23.9431C36.5527 24.2322 35.7816 24.2639 35.0703 24.0327C34.7404 23.849 34.5113 23.5265 34.4462 23.1547C34.4363 23.1295 34.4246 23.1052 34.4114 23.0817C34.3973 23.0419 34.3789 23.0035 34.3569 22.9675C34.3352 22.9385 34.3109 22.9115 34.2842 22.8872C34.2573 22.857 34.2271 22.8298 34.1943 22.8061C34.1612 22.7861 34.126 22.7694 34.0897 22.7563C34.0642 22.7416 34.0376 22.729 34.01 22.7185C34.0003 22.7185 33.9907 22.7185 33.9813 22.7185C33.9034 22.7114 33.8251 22.7114 33.7472 22.7185C33.7376 22.7185 33.7279 22.7185 33.7185 22.7185C33.6904 22.729 33.6637 22.7419 33.6379 22.7571C33.5621 22.7809 33.4944 22.826 33.4437 22.8872C33.4173 22.9118 33.3933 22.9385 33.3716 22.9669C33.3497 23.0032 33.3312 23.0416 33.3168 23.0817C33.3037 23.1052 33.2919 23.1295 33.2823 23.1547C33.2172 23.5265 32.9878 23.849 32.6583 24.0327C31.9469 24.2639 31.1761 24.2322 30.4862 23.9431C30.3775 23.9026 30.2591 23.8953 30.1466 23.9229C29.5047 22.5761 28.6291 21.3538 27.5606 20.3126C28.2579 20.0232 28.9856 19.8137 29.7303 19.6886Z" fill="white"/>
</svg>
