<svg width="14" height="14" viewBox="0 0 14 14" fill="none" xmlns="http://www.w3.org/2000/svg">
<path d="M6.99937 8.23814L12.5047 13.7435C12.8464 14.0855 13.4009 14.0855 13.7427 13.7435C14.0847 13.4014 14.0847 12.8475 13.7427 12.5055L8.23737 7.00015L13.7427 1.49453C14.0847 1.15249 14.0847 0.59857 13.7427 0.25653C13.4009 -0.0855099 12.8464 -0.0855098 12.5047 0.25653L6.99937 5.76215L1.49404 0.256532C1.15229 -0.0855082 0.597792 -0.0855081 0.256043 0.256532C0.0853148 0.427552 -0.000195413 0.651687 -0.000195381 0.875531C-0.00019535 1.09937 0.0853149 1.32351 0.256335 1.49453L5.76166 7.00015L0.256337 12.5055C0.0853165 12.6765 -0.000193709 12.9006 -0.000193678 13.1245C-0.000193647 13.3483 0.0853166 13.5725 0.256337 13.7435C0.598085 14.0855 1.15259 14.0855 1.49434 13.7435L6.99937 8.23814Z" fill="#273159"/>
</svg>
