<svg width="41" height="26" viewBox="0 0 41 26" fill="none" xmlns="http://www.w3.org/2000/svg">
<path fill-rule="evenodd" clip-rule="evenodd" d="M1.24721 0.333008H26.2561C26.6201 0.333008 26.9143 0.627855 26.9143 0.991111V4.9399H33.4955C33.7193 4.9399 33.928 5.05374 34.049 5.242L39.9722 14.4558C40.0407 14.5617 40.0769 14.6861 40.0768 14.8118V22.0513C40.0768 22.4152 39.7826 22.7094 39.4187 22.7094H36.0733C35.7592 24.5749 34.1329 26.0001 32.1793 26.0001C30.2257 26.0001 28.5994 24.5748 28.2853 22.7093H26.2652L26.2561 22.7094H13.6969C13.3828 24.5749 11.7565 26.0001 9.80295 26.0001C7.84935 26.0001 6.22308 24.5749 5.90898 22.7094H1.24721C0.883958 22.7094 0.589111 22.4152 0.589111 22.0513V0.991111C0.589111 0.627855 0.883958 0.333008 1.24721 0.333008ZM5.90899 21.3931C6.22313 19.5276 7.84938 18.1025 9.80295 18.1025C11.7564 18.1025 13.3827 19.5276 13.6969 21.3931H25.598L25.598 20.0769H14.4098V18.7606H25.598L25.598 4.28179H3.2216V2.96551H25.598V1.64921H1.9054V18.7606H5.19599V20.0769H1.9054V21.3931H5.90899ZM28.2854 21.393H26.9143V6.25618H33.1362L33.9823 7.57237H28.8887C28.5248 7.57237 28.2306 7.86722 28.2306 8.23048V14.1536C28.2306 14.5176 28.5248 14.8117 28.8887 14.8117H38.6361L38.7606 15.0053V18.7606H36.7862V20.0769H38.7606V21.3932H36.0733C35.7592 19.5277 34.1329 18.1025 32.1793 18.1025C30.2258 18.1025 28.5995 19.5276 28.2854 21.393ZM29.5468 13.4955H37.79L34.8119 8.86284V8.88866H29.5468V13.4955ZM9.80295 24.6838C8.35108 24.6838 7.17045 23.5031 7.17045 22.0513C7.17045 20.5994 8.35115 19.4188 9.80295 19.4188C11.2547 19.4188 12.4354 20.5995 12.4354 22.0513C12.4354 23.5031 11.2547 24.6838 9.80295 24.6838ZM32.1793 24.6838C30.7274 24.6838 29.5468 23.5031 29.5468 22.0513C29.5468 20.5994 30.7275 19.4188 32.1793 19.4188C33.6312 19.4188 34.8118 20.5995 34.8118 22.0513C34.8118 23.5031 33.6312 24.6838 32.1793 24.6838ZM10.461 21.3931C10.0976 21.0296 9.50825 21.0296 9.14476 21.3931C8.78128 21.7566 8.78128 22.3459 9.14476 22.7094C9.50825 23.0728 10.0976 23.0728 10.461 22.7094C10.8245 22.3459 10.8245 21.7566 10.461 21.3931ZM31.5212 21.3931C31.8847 21.0296 32.474 21.0296 32.8375 21.3931C33.201 21.7566 33.201 22.3459 32.8375 22.7094C32.474 23.0728 31.8847 23.0728 31.5212 22.7094C31.1577 22.3459 31.1577 21.7566 31.5212 21.3931Z" fill="white"/>
</svg>
