<svg width="21" height="36" viewBox="0 0 21 36" fill="none" xmlns="http://www.w3.org/2000/svg">
<path fill-rule="evenodd" clip-rule="evenodd" d="M19.9843 6.23096C20.2929 6.82498 20.1881 7.23418 19.9843 7.87186L17.4651 15.7539C16.6785 18.2153 16.7353 20.9069 17.625 23.3327C18.4616 25.5505 18.8461 27.8732 18.7607 30.2178L18.6034 34.015C18.5904 34.3721 18.3286 34.6711 17.9762 34.7309C15.3028 35.1848 12.7218 35.311 10.0295 35.311C7.3373 35.311 4.86753 35.1848 2.19414 34.7309C1.84182 34.671 1.5799 34.3721 1.56694 34.015L1.41763 30.2178C1.33244 27.8731 1.71333 25.5598 2.5499 23.3421L2.55457 23.3297C3.44317 20.9068 3.49994 18.2152 2.7132 15.7539L0.19414 7.87186C-0.00965017 7.23418 -0.11452 6.82498 0.194143 6.23096C0.502956 5.63685 1.02476 5.19972 1.6638 5L6.00099 3.50095C6.46338 3.35642 6.8065 2.95321 6.87496 2.47363L7.02567 1.41857C7.14577 0.577925 7.61262 0 8.4617 0H11.2803C12.1294 0 12.8603 0.633836 12.9804 1.4744L13.1311 2.52954C13.1996 3.00912 13.5427 3.41233 14.005 3.55686L18.1893 5C18.8284 5.19972 19.6755 5.63693 19.9843 6.23096ZM16.267 27.3998C16.5823 27.3424 16.8992 27.2784 17.2145 27.2115C17.0479 26.0457 16.7525 24.8963 16.329 23.7732L16.3185 23.7448C15.9663 22.7847 15.7305 21.7866 15.6106 20.7754C15.2121 20.7554 14.8948 20.4269 14.8948 20.0234C14.8948 19.6517 15.1642 19.3435 15.5182 19.2816C15.5106 17.9009 15.7171 16.5179 16.1402 15.1939L16.8716 12.9053L16.7605 12.9269C16.6859 12.9415 16.6113 12.9561 16.5369 12.9697C16.4913 12.978 16.4459 12.982 16.4011 12.982C16.0438 12.982 15.7264 12.727 15.6602 12.363C15.5857 11.9533 15.8573 11.5608 16.267 11.4862C16.6435 11.4177 17.0226 11.3406 17.3978 11.2588L18.6591 7.31195C18.7397 7.05969 18.7169 6.79136 18.5947 6.55636C18.4726 6.32135 18.2661 6.1484 18.0132 6.06939L14.2936 4.90697C14.2282 5.03325 14.1585 5.15803 14.0823 5.27783C13.9387 5.50363 13.6947 5.6272 13.4455 5.6272C13.307 5.6272 13.167 5.58913 13.0416 5.50929C12.6902 5.28582 12.5867 4.81981 12.8101 4.46848C12.8428 4.41721 12.874 4.36473 12.9038 4.31158C12.3156 3.87663 11.9073 3.21754 11.801 2.47363L11.6503 1.41857C11.6356 1.31603 11.5464 1.23875 11.4429 1.23875H8.62432C8.52081 1.23875 8.43162 1.31603 8.41699 1.41857L8.26628 2.47363C8.16005 3.21762 7.75164 3.87663 7.16341 4.31158C7.19327 4.36481 7.22456 4.41721 7.25713 4.46848C7.4806 4.81981 7.37701 5.28582 7.02567 5.50929C6.90021 5.58913 6.76021 5.6272 6.62178 5.6272C6.37253 5.6272 6.12856 5.50371 5.98493 5.27783C5.90871 5.1581 5.83904 5.03333 5.77368 4.90704L2.05389 6.06939C1.8011 6.14833 1.59459 6.32128 1.47245 6.55636C1.35024 6.79136 1.32747 7.05969 1.40807 7.31195L2.62847 11.1306C3.01886 11.2229 3.41453 11.3098 3.80755 11.3877C4.21596 11.4688 4.48135 11.8656 4.4003 12.274C4.32913 12.6329 4.01406 12.8814 3.66159 12.8814C3.61296 12.8814 3.56358 12.8766 3.51412 12.8668C3.43428 12.851 3.35424 12.834 3.27417 12.817L3.27408 12.817L3.15962 12.7928L3.92698 15.1939C4.34956 16.5161 4.55607 17.8971 4.54883 19.2767C4.91871 19.3249 5.2046 19.6404 5.2046 20.0235C5.2046 20.438 4.86993 20.7742 4.45609 20.7772C4.33592 21.7892 4.09956 22.7887 3.74664 23.751L3.73797 23.7741C3.32812 24.8606 3.03906 25.9722 2.86973 27.0996C3.18148 27.1709 3.49497 27.2394 3.80755 27.3014C4.21596 27.3824 4.48135 27.7793 4.4003 28.1877C4.32913 28.5466 4.01406 28.795 3.66159 28.795C3.61296 28.795 3.56358 28.7902 3.51405 28.7804C3.24828 28.7277 2.98169 28.6705 2.71578 28.6112C2.68984 29.093 2.68441 29.5768 2.70205 30.0621L2.83294 33.6619C7.6145 34.41 12.4526 34.41 17.2343 33.6619L17.3652 30.0621C17.3815 29.6142 17.378 29.1677 17.3571 28.7227C17.0837 28.7792 16.8098 28.8337 16.5369 28.8833C16.4913 28.8916 16.4459 28.8956 16.4011 28.8956C16.0438 28.8956 15.7264 28.6406 15.6602 28.2766C15.5857 27.8669 15.8573 27.4744 16.267 27.3998ZM10.6426 20.7775H9.45691C9.04058 20.7775 8.70297 20.4399 8.70297 20.0235C8.70297 19.6071 9.04058 19.2696 9.45691 19.2696H10.6426C11.059 19.2696 11.3966 19.6071 11.3966 20.0235C11.3966 20.4399 11.059 20.7775 10.6426 20.7775ZM7.54665 19.2696H6.36093C5.9446 19.2696 5.60699 19.6071 5.60699 20.0235C5.60699 20.4399 5.9446 20.7775 6.36093 20.7775H7.54665C7.96297 20.7775 8.30059 20.4399 8.30059 20.0235C8.30059 19.6071 7.96305 19.2696 7.54665 19.2696ZM14.4925 20.0235C14.4925 20.4399 14.1548 20.7775 13.7385 20.7775H12.5528C12.1365 20.7775 11.7989 20.4399 11.7989 20.0235C11.7989 19.6071 12.1365 19.2696 12.5528 19.2696H13.7385C14.1548 19.2696 14.4925 19.6071 14.4925 20.0235ZM7.80132 6.95186C8.11759 7.11833 8.45287 7.24929 8.7978 7.34104C8.86271 7.35831 8.92793 7.36653 8.99209 7.36653C9.32548 7.36653 9.63045 7.14366 9.72017 6.8062C9.82723 6.40382 9.5877 5.99082 9.18532 5.88383C8.94949 5.8211 8.72022 5.73154 8.50384 5.61762C8.13523 5.42363 7.67948 5.56507 7.48541 5.93352C7.29143 6.30189 7.43286 6.75787 7.80132 6.95186ZM11.2679 7.34145C11.203 7.35864 11.1379 7.36685 11.0738 7.36685C10.7403 7.36685 10.4353 7.14384 10.3456 6.8063C10.2386 6.40392 10.4782 5.99099 10.8807 5.88408C11.1165 5.82143 11.3459 5.73194 11.5623 5.61802C11.9309 5.42418 12.3869 5.56569 12.5806 5.93422C12.7746 6.30274 12.633 6.75865 12.2645 6.95249C11.948 7.11896 11.6127 7.24984 11.2679 7.34145ZM12.1375 12.7376C12.1676 13.1334 12.498 13.4343 12.8884 13.4343C12.9076 13.4343 12.9271 13.4335 12.9465 13.4321C13.4053 13.3971 13.8698 13.3523 14.327 13.2991C14.7406 13.2509 15.0369 12.8766 14.9887 12.463C14.9405 12.0494 14.5662 11.7535 14.1527 11.8013C13.7151 11.8523 13.2708 11.8951 12.8318 11.9286C12.4166 11.9602 12.1058 12.3224 12.1375 12.7376ZM7.09691 13.3859C6.63844 13.3436 6.17477 13.2915 5.71864 13.2311C5.30578 13.1764 5.01559 12.7975 5.07025 12.3846C5.12498 11.9718 5.50414 11.6817 5.9167 11.7362C6.35308 11.7941 6.79677 11.8439 7.23534 11.8843C7.64993 11.9225 7.95512 12.2896 7.9169 12.7043C7.88086 13.0954 7.55214 13.3891 7.16703 13.3891C7.14381 13.3891 7.12051 13.388 7.09691 13.3859ZM10.7055 12.0226H10.6962C10.5629 12.0243 10.4296 12.0251 10.2962 12.0251H10.2926C9.98624 12.0251 9.67561 12.0208 9.36936 12.0122C8.94942 12.0012 8.6063 12.3287 8.59476 12.7449C8.58323 13.1612 8.91119 13.508 9.32744 13.5195C9.64757 13.5284 9.97221 13.5329 10.2923 13.5329C10.3491 13.5325 10.4061 13.5323 10.4633 13.5321C10.547 13.5318 10.6309 13.5314 10.7145 13.5305C11.1309 13.5254 11.4643 13.1837 11.4593 12.7674C11.4542 12.3542 11.1176 12.0226 10.7055 12.0226ZM10.6962 27.9363H10.7056C11.1176 27.9363 11.4542 28.2678 11.4593 28.681C11.4643 29.0973 11.1309 29.439 10.7145 29.4441C10.5751 29.4457 10.4357 29.4466 10.2963 29.4466C9.97387 29.4466 9.64794 29.442 9.32744 29.4331C8.91119 29.4215 8.58323 29.0747 8.59476 28.6585C8.60615 28.2494 8.94135 27.9255 9.34803 27.9255C9.35511 27.9255 9.3622 27.9256 9.36936 27.9258C9.80853 27.938 10.2543 27.9418 10.6962 27.9363ZM14.1527 27.715C13.7152 27.7659 13.2709 27.8088 12.8318 27.8422C12.4166 27.8739 12.1057 28.2362 12.1374 28.6513C12.1675 29.047 12.4979 29.3479 12.8883 29.3479C12.9075 29.3479 12.927 29.3472 12.9464 29.3457C13.4053 29.3108 13.8697 29.266 14.327 29.2128C14.7406 29.1646 15.0368 28.7902 14.9886 28.3766C14.9405 27.9631 14.5663 27.667 14.1527 27.715ZM5.91669 27.65C6.35307 27.7078 6.79676 27.7576 7.23533 27.798C7.64992 27.8363 7.95512 28.2034 7.91689 28.6179C7.88085 29.009 7.55214 29.3027 7.16702 29.3027C7.1438 29.3027 7.12051 29.3017 7.09691 29.2996C6.63844 29.2573 6.17477 29.2052 5.71863 29.1448C5.30578 29.0901 5.01551 28.7111 5.07025 28.2984C5.12498 27.8856 5.50414 27.5955 5.91669 27.65Z" fill="#F7F9FF"/>
</svg>
