<svg width="36" height="36" viewBox="0 0 36 36" fill="none" xmlns="http://www.w3.org/2000/svg">
<path d="M22.156 9.00641H19.874C19.3017 8.97401 18.7291 9.06473 18.1949 9.27247C17.6607 9.4802 17.1772 9.80011 16.7771 10.2106C16.3771 10.6211 16.0697 11.1126 15.8758 11.652C15.6819 12.1914 15.6059 12.7661 15.653 13.3374V15.3374H13.359C13.2638 15.3374 13.1725 15.3752 13.1051 15.4426C13.0378 15.5099 13 15.6012 13 15.6964V18.5864C13 18.6816 13.0378 18.7729 13.1051 18.8403C13.1725 18.9076 13.2638 18.9454 13.359 18.9454H15.653V26.2454C15.653 26.3406 15.6908 26.4319 15.7581 26.4993C15.8255 26.5666 15.9168 26.6044 16.012 26.6044H19.006C19.0531 26.6044 19.0998 26.5951 19.1434 26.5771C19.1869 26.559 19.2265 26.5326 19.2599 26.4993C19.2932 26.4659 19.3196 26.4263 19.3377 26.3828C19.3557 26.3392 19.365 26.2926 19.365 26.2454V18.9454H22.048C22.0951 18.9454 22.1418 18.9361 22.1854 18.9181C22.2289 18.9 22.2685 18.8736 22.3019 18.8403C22.3352 18.8069 22.3616 18.7673 22.3797 18.7238C22.3977 18.6802 22.407 18.6336 22.407 18.5864V15.6934C22.407 15.6463 22.3977 15.5996 22.3797 15.556C22.3616 15.5125 22.3352 15.4729 22.3019 15.4396C22.2685 15.4062 22.2289 15.3798 22.1854 15.3617C22.1418 15.3437 22.0951 15.3344 22.048 15.3344H19.365V13.6414C19.365 12.8274 19.559 12.4144 20.619 12.4144H22.156C22.2512 12.4144 22.3425 12.3766 22.4099 12.3093C22.4772 12.2419 22.515 12.1506 22.515 12.0554V9.36841C22.5154 9.32101 22.5064 9.27401 22.4885 9.2301C22.4707 9.1862 22.4443 9.14627 22.4109 9.11262C22.3775 9.07896 22.3378 9.05225 22.2941 9.03402C22.2503 9.01579 22.2034 9.00641 22.156 9.00641Z" fill="#273159"/>
<rect x="0.5" y="0.5" width="35" height="35" rx="17.5" stroke="#273159"/>
</svg>
