<svg width="18" height="18" viewBox="0 0 18 18" fill="none" xmlns="http://www.w3.org/2000/svg">
<path d="M15.9371 6.55804L6.53633 15.9584C6.02813 16.4668 5.35084 16.7469 4.62967 16.7469C3.90864 16.7469 3.23208 16.4667 2.72373 15.9584C2.21552 15.4499 1.93572 14.7725 1.93572 14.0518C1.93572 13.3305 2.21581 12.6533 2.72373 12.145L13.1095 1.75941C13.762 1.10639 14.9046 1.10668 15.5583 1.75941C16.2331 2.43451 16.2333 3.53315 15.5583 4.20824L6.23447 13.5327C5.95891 13.8082 5.47569 13.8091 5.19988 13.5321C5.06213 13.3946 4.98638 13.2112 4.98575 13.0158C4.98575 12.8207 5.06208 12.6361 5.19988 12.4987L11.9211 5.77749C12.0395 5.65917 12.1047 5.50183 12.1053 5.3345C12.1053 5.16645 12.0395 5.00911 11.9211 4.89016C11.6835 4.65327 11.2729 4.65327 11.0353 4.89093L4.31392 11.6124C3.93923 11.9868 3.73318 12.4846 3.73318 13.0158C3.73318 13.547 3.93923 14.0446 4.31392 14.4193C5.06159 15.1675 6.37081 15.1684 7.12078 14.4193L16.4446 5.09489C17.0077 4.53183 17.3174 3.78211 17.318 2.98393C17.318 2.18569 17.008 1.43602 16.4446 0.872912C15.8815 0.309903 15.1321 0 14.3339 0C13.5359 0 12.786 0.309903 12.2223 0.872814L1.83742 11.2584C1.09228 12.0032 0.681885 12.9953 0.681885 14.0518C0.681885 15.1078 1.09228 16.1 1.83742 16.8447C2.58212 17.5897 3.57311 18 4.62996 18C5.68607 18 6.67838 17.5897 7.42352 16.8447L16.8228 7.44464C16.9416 7.32661 17.0068 7.16937 17.0074 7.00161C17.0074 6.83414 16.9416 6.67694 16.8234 6.55862C16.5865 6.3214 16.1752 6.3214 15.9371 6.55804Z" fill="#273159"/>
</svg>
