<svg width="18" height="18" viewBox="0 0 18 18" fill="none" xmlns="http://www.w3.org/2000/svg">
<path fill-rule="evenodd" clip-rule="evenodd" d="M4.11615 2.11614C5.46865 0.76364 7.30228 0.00264121 9.21501 0C11.1288 0.00279502 12.9637 0.763446 14.3181 2.11556C15.6726 3.46767 16.4364 5.30118 16.4425 7.21501C16.4412 7.66954 16.3982 8.12299 16.314 8.56965C16.3102 8.59586 16.2946 8.6751 16.2647 8.81113C16.155 9.30125 15.9931 9.77819 15.7817 10.2338C15.0024 12.0639 13.2889 14.8755 9.54197 17.8868C9.45112 17.9601 9.33794 18 9.22125 18C9.10456 18 8.99138 17.9601 8.90053 17.8868C5.14733 14.8755 3.43826 12.0639 2.66079 10.2338C2.44998 9.77797 2.28809 9.30109 2.17784 8.81113C2.14726 8.6751 2.13229 8.59586 2.12854 8.56965C2.04243 8.12326 1.99939 7.66963 2.00001 7.21501C2.00265 5.30228 2.76364 3.46865 4.11615 2.11614ZM15.2963 8.40368C15.2972 8.39993 15.2981 8.39619 15.2981 8.39244H15.3006C15.474 7.49583 15.447 6.57199 15.2216 5.68702C14.9963 4.80205 14.5781 3.97784 13.9969 3.27338C13.4158 2.56892 12.6862 2.00162 11.8602 1.61208C11.0342 1.22254 10.1324 1.0204 9.21915 1.02012C8.30593 1.01984 7.40395 1.22143 6.57774 1.61045C5.75153 1.99948 5.02153 2.56633 4.43998 3.27044C3.85843 3.97454 3.43971 4.79849 3.21379 5.68332C2.98787 6.56815 2.96033 7.49198 3.13314 8.3887C3.13314 8.39488 3.13427 8.39993 3.13529 8.40447C3.13613 8.40818 3.13688 8.41154 3.13688 8.41491C3.13769 8.41891 3.13866 8.42466 3.13991 8.43207C3.14452 8.45929 3.15292 8.50896 3.17058 8.57714V8.58463C3.26796 9.00795 3.40825 9.42024 3.58927 9.8151C3.59114 9.81698 3.59207 9.81978 3.59301 9.82259C3.59394 9.8254 3.59488 9.82821 3.59675 9.83008C4.30247 11.5017 5.8493 14.0531 9.21564 16.8342C12.5813 14.0525 14.1288 11.5017 14.8345 9.83008C14.8364 9.82821 14.8373 9.8254 14.8383 9.82259C14.8392 9.81978 14.8401 9.81698 14.842 9.8151C15.0258 9.42134 15.1662 9.00876 15.2607 8.58463V8.57714C15.2781 8.49647 15.289 8.44171 15.2935 8.41939L15.2944 8.41491C15.2944 8.41116 15.2953 8.40742 15.2963 8.40368ZM6.66983 3.48511C7.42321 2.98172 8.30894 2.71304 9.21502 2.71304C10.4295 2.71485 11.5937 3.1981 12.4524 4.05685C13.3112 4.9156 13.7944 6.07979 13.7962 7.29425C13.7962 8.20033 13.5276 9.08606 13.0242 9.83944C12.5208 10.5928 11.8053 11.18 10.9682 11.5267C10.1311 11.8735 9.20994 11.9642 8.32127 11.7874C7.4326 11.6107 6.6163 11.1744 5.97561 10.5337C5.33492 9.89296 4.8986 9.07667 4.72183 8.188C4.54506 7.29933 4.63579 6.3782 4.98253 5.54109C5.32927 4.70399 5.91645 3.9885 6.66983 3.48511ZM7.23593 10.2562C7.82174 10.6476 8.51047 10.8565 9.21502 10.8565C10.1594 10.8554 11.0648 10.4797 11.7326 9.81187C12.4005 9.14407 12.7761 8.23866 12.7773 7.29425C12.7773 6.5897 12.5684 5.90097 12.1769 5.31516C11.7855 4.72935 11.2292 4.27277 10.5782 4.00315C9.92732 3.73353 9.21106 3.66298 8.52005 3.80043C7.82904 3.93789 7.19431 4.27715 6.69612 4.77535C6.19793 5.27354 5.85865 5.90827 5.7212 6.59929C5.58375 7.2903 5.6543 8.00655 5.92392 8.65747C6.19354 9.30839 6.65012 9.86474 7.23593 10.2562Z" fill="#273159"/>
</svg>
