<svg width="20" height="19" viewBox="0 0 20 19" fill="none" xmlns="http://www.w3.org/2000/svg">
<path d="M18.2307 2.04351C17.0741 0.886911 15.5266 0.249997 13.8729 0.249998C12.4491 0.249998 11.0846 1.17422 10 2.04351C8.89977 1.17422 7.57289 0.249999 6.16305 0.249999C4.50164 0.249999 2.95008 0.887187 1.79352 2.04352C0.636915 3.19988 7.86388e-07 4.74762 1.07549e-06 6.40109C1.36464e-06 8.0548 0.636916 9.6023 1.79352 10.7586L9.49137 18.4565C9.63164 18.597 9.81582 18.6673 10 18.6673C10.1837 18.6673 10.3674 18.5972 10.5079 18.4574L18.212 10.7768C19.3652 9.59773 20 8.04808 20 6.41308C20 4.76297 19.3736 3.21332 18.2307 2.04351ZM17.1897 9.76414L10.0007 16.9311L2.81078 9.74137C1.92613 8.85648 1.43883 7.67016 1.43883 6.40109C1.43883 5.13203 1.92613 3.9457 2.81078 3.06082C3.69566 2.17617 4.88609 1.68887 6.16305 1.68887C7.41965 1.68887 8.59281 2.63035 9.50145 3.51859C9.78297 3.79414 10.2345 3.79172 10.513 3.51285C11.3979 2.6282 12.6036 1.68886 13.8729 1.68886C15.1422 1.68886 16.3283 2.17617 17.2072 3.05504C18.0803 3.94832 18.5611 5.14089 18.5611 6.41308C18.5611 7.66992 18.072 8.86246 17.1897 9.76414Z" fill="#273159"/>
</svg>
