<svg width="34" height="30" viewBox="0 0 34 30" fill="none" xmlns="http://www.w3.org/2000/svg">
<path fill-rule="evenodd" clip-rule="evenodd" d="M1.24149 0.142349H32.7585C33.4431 0.142349 34 0.69928 34 1.38383V28.061C34 28.7455 33.4431 29.3025 32.7585 29.3025H1.24149C0.556931 29.3025 0 28.7455 0 28.061V1.38383C0 0.69928 0.556931 0.142349 1.24149 0.142349ZM32.0078 17.8998V2.13454H1.99219V21.1005L8.2572 14.8355C8.45512 14.6376 8.71815 14.5286 8.99805 14.5286C9.2782 14.5286 9.54149 14.6378 9.73941 14.836L15.3998 20.4961L24.2611 11.6348C24.6694 11.2265 25.3337 11.2262 25.7423 11.634L32.0078 17.8998ZM1.99219 23.9179V27.3103H32.0081V20.7171L25.002 13.711L16.1404 22.5726C15.9427 22.7705 15.6794 22.8797 15.3998 22.8797C15.1196 22.8797 14.8563 22.7703 14.6581 22.5721L8.99805 16.912L1.99219 23.9179ZM18.7963 9.90199C18.7963 11.7749 17.2724 13.2986 15.3995 13.2986C13.5266 13.2986 12.0029 11.7749 12.0029 9.90199C12.0029 8.02887 13.5266 6.50516 15.3995 6.50516C17.2724 6.50516 18.7963 8.02887 18.7963 9.90199ZM16.8042 9.90199C16.8042 9.12743 16.1741 8.49734 15.3995 8.49734C14.6252 8.49734 13.9951 9.12743 13.9951 9.90199C13.9951 10.6763 14.6252 11.3064 15.3995 11.3064C16.1741 11.3064 16.8042 10.6763 16.8042 9.90199Z" fill="white"/>
</svg>
