<svg width="36" height="36" viewBox="0 0 36 36" fill="none" xmlns="http://www.w3.org/2000/svg">
<path fill-rule="evenodd" clip-rule="evenodd" d="M21.6689 10H14.3311C11.9429 10 10 11.9429 10 14.3311V21.6691C10 24.0571 11.9429 26 14.3311 26H21.6691C24.0571 26 26 24.0571 26 21.6691V14.3311C26 11.9429 24.0571 10 21.6689 10ZM18 22.3749C15.5876 22.3749 13.6251 20.4124 13.6251 18C13.6251 15.5876 15.5876 13.6251 18 13.6251C20.4124 13.6251 22.3749 15.5876 22.3749 18C22.3749 20.4124 20.4124 22.3749 18 22.3749ZM22.4795 14.6569C21.7666 14.6569 21.1868 14.077 21.1868 13.3641C21.1868 12.6512 21.7666 12.0713 22.4795 12.0713C23.1924 12.0713 23.7723 12.6512 23.7723 13.3641C23.7723 14.077 23.1924 14.6569 22.4795 14.6569ZM18 14.5631C16.105 14.5631 14.5631 16.1049 14.5631 18C14.5631 19.895 16.105 21.4369 18 21.4369C19.8951 21.4369 21.4369 19.895 21.4369 18C21.4369 16.1049 19.8951 14.5631 18 14.5631ZM22.1248 13.3641C22.1248 13.1686 22.2839 13.0094 22.4795 13.0094C22.6752 13.0094 22.8343 13.1685 22.8343 13.3641C22.8343 13.5598 22.6752 13.7189 22.4795 13.7189C22.2839 13.7189 22.1248 13.5597 22.1248 13.3641Z" fill="#273159"/>
<rect x="0.5" y="0.5" width="35" height="35" rx="17.5" stroke="#273159"/>
</svg>
