<svg width="28" height="44" viewBox="0 0 28 44" fill="none" xmlns="http://www.w3.org/2000/svg">
<path fill-rule="evenodd" clip-rule="evenodd" d="M18.0111 9.76851L25.0695 12.8747C25.955 13.2644 26.5267 14.1404 26.5268 15.1078C26.5271 16.4558 25.5523 17.5489 24.0868 17.5489H18.6971C18.7756 17.8882 18.8686 18.2763 19.2167 19.0754C19.7681 20.0565 19.9931 20.9021 19.9048 21.6601C19.815 22.4362 19.3976 23.1488 18.799 23.5674C18.6703 24.7381 18.6013 25.5554 18.576 26.1999V26.2021C18.5505 26.8789 18.5726 27.3985 18.6489 27.8667C18.6685 27.9852 18.6911 28.1007 18.7176 28.2144C18.8135 28.623 18.9535 29.0111 19.1618 29.5364L25.2548 39.6697C25.2548 39.6697 25.4481 40.0844 25.4778 40.2812C25.54 40.6938 25 41 25 41C21.5285 42.3886 17.7207 43.1046 14.0111 43.1479C10.0623 43.194 6.22468 42.4781 3.02216 41C3.02216 41 2.6812 40.6422 2.81313 40.2464C2.89658 39.996 3.01072 39.6556 3.01072 39.6556L8.77337 29.5156C9.02635 29.0621 9.17732 28.6958 9.26995 28.3131C9.26913 28.2815 9.27199 28.2497 9.27913 28.218C9.39256 27.7117 9.41725 27.1116 9.36176 26.2117C9.35992 26.1817 9.36176 26.1521 9.36665 26.123C9.3232 25.4464 9.23751 24.6055 9.12224 23.5676C8.52406 23.149 8.10664 22.4364 8.01646 21.6601C7.92833 20.9009 8.15356 20.0555 8.70502 19.0754C8.94607 18.6469 9.12479 18.0944 9.25589 17.5489H7.30719H3.89812C2.93069 17.5488 2.05471 16.9771 1.66493 16.0916C1.12191 14.8579 1.68175 13.4177 2.91539 12.8747L9.97378 9.76846L11.6154 7.79881C12.1098 7.20528 12.809 6.81905 13.5746 6.71663V5.43181C13.5746 5.20106 13.7617 5.01398 13.9925 5.01398C15.1462 5.01398 16.0816 4.07862 16.0816 2.92483C16.0816 1.77105 15.1462 0.835687 13.9925 0.835687C12.8387 0.835687 11.9033 1.77105 11.9033 2.92483H11.0677C11.0678 1.47105 12.1357 0.238034 13.5746 0.0303733C15.1734 -0.200373 16.6565 0.908598 16.8873 2.50737C17.118 4.10614 16.0091 5.58928 14.4103 5.82002V6.71669C15.1759 6.81911 15.8751 7.20534 16.3695 7.79886L18.0111 9.76851ZM9.42535 16.7132C9.47977 16.3923 9.51788 16.1023 9.54352 15.8776H4.47097C4.10641 15.8772 3.77617 15.6626 3.62763 15.3297C3.41955 14.8633 3.62899 14.3166 4.09534 14.1085L11.2268 10.9388L12.9859 8.82756C13.0365 8.76692 13.0925 8.71093 13.1531 8.66037C13.7089 8.1969 14.5351 8.27179 14.9986 8.82756L16.7581 10.9393L23.89 14.1089C24.2237 14.2574 24.4387 14.5885 24.4386 14.9537C24.4383 15.4641 24.0244 15.8778 23.514 15.8776H21.0956H18.4068C18.4462 16.1266 18.495 16.4372 18.5372 16.7132H21.0956H24.0868C24.7218 16.712 25.2963 16.3365 25.5523 15.7554C25.9097 14.9443 25.5418 13.997 24.7307 13.6397L17.5824 10.4943C17.5232 10.4681 17.4708 10.4286 17.4291 10.379L15.7248 8.33368C15.637 8.22829 15.5398 8.13109 15.4344 8.04335C14.4768 7.24602 13.0541 7.37602 12.2568 8.33368L10.5525 10.379C10.5108 10.4286 10.4584 10.468 10.3991 10.4943L3.25174 13.6397C2.66986 13.896 2.29418 14.4718 2.29392 15.1077C2.29355 15.9941 3.01175 16.7129 3.89812 16.7132H9.42535ZM17.9597 15.0424H23.514C23.5492 15.0425 23.581 15.0217 23.5952 14.9895C23.615 14.9447 23.5946 14.8925 23.5499 14.8727L16.3298 11.6638C16.2711 11.6377 16.2193 11.5985 16.1781 11.5493L14.3568 9.36322C14.345 9.35 14.3324 9.33747 14.3192 9.32561C14.1179 9.14506 13.8082 9.16187 13.6277 9.36322L11.8068 11.5489C11.7656 11.5981 11.7137 11.6373 11.6551 11.6634L4.43503 14.8723C4.40286 14.8865 4.38207 14.9184 4.38218 14.9536C4.38228 15.0025 4.42203 15.042 4.47097 15.0419L9.96208 15.0423C9.96793 15.0421 9.97381 15.0419 9.97973 15.0419H17.9413C17.9448 15.0419 17.9483 15.042 17.9517 15.0421C17.9544 15.0421 17.957 15.0422 17.9597 15.0424ZM14.6661 17.5489H13.2397C13.4431 17.6272 13.682 17.6699 13.9605 17.6699C14.234 17.6699 14.4677 17.6268 14.6661 17.5489ZM15.473 16.7132C15.5396 16.5433 15.584 16.3582 15.6094 16.1641H12.2656C12.2956 16.3603 12.3438 16.545 12.4128 16.7132H15.473ZM13.9919 23.2027C13.1496 23.2027 12.126 23.362 12.0829 23.3687C11.8691 23.4024 11.7233 23.6029 11.7567 23.8166C11.7871 24.0098 11.9538 24.1475 12.1431 24.1475C12.1635 24.1475 12.1839 24.1458 12.2045 24.1428C12.2145 24.1411 13.2101 23.9861 13.9919 23.9861C14.7807 23.9861 15.7855 24.0997 15.7957 24.101C16.0105 24.1252 16.2045 23.9712 16.2292 23.7562C16.2539 23.5413 16.0994 23.3471 15.8846 23.3226C15.8418 23.3177 14.8262 23.2027 13.9919 23.2027ZM4.14452 40.2464C7.92815 41.7135 9.9416 42.0168 13.9996 42.0445C18.1717 42.0731 20.272 41.6287 24.167 40.1334C21.7414 36.156 17.5 29.0713 17.5 29.0713H10.4375C10.4375 29.0713 6.39745 36.2825 4.14452 40.2464ZM18.2633 19.4593C17.6708 18.0973 17.5621 17.2998 17.5621 17.2998C17.5459 17.1858 17.4865 16.936 17.4297 16.6969L17.4297 16.6969C17.3742 16.4636 17.3211 16.2405 17.3132 16.1641H16.663C16.5962 16.752 16.248 17.3227 15.9193 17.7729C15.4397 18.4301 14.744 18.792 13.9605 18.792C12.4818 18.792 11.4412 17.5149 11.288 16.1641H10.6894C10.6106 16.9228 10.3683 18.3413 9.73926 19.4593C9.27818 20.2789 9.07865 20.9886 9.14598 21.5697C9.21657 22.1766 9.55789 22.7238 10.0367 22.9978C10.1453 23.06 10.2177 23.1702 10.2316 23.2945C10.2803 23.7313 10.3281 24.0781 10.3706 24.3874C10.4251 24.7832 10.4711 25.1175 10.5 25.5H17.5608C17.5977 24.8622 17.651 24.3654 17.7706 23.2945C17.7842 23.17 17.8567 23.0598 17.9654 22.9978C18.4446 22.7238 18.786 22.1766 18.8562 21.5697C18.9237 20.9895 18.7241 20.2795 18.2633 19.4593ZM17.5 27.9108C17.4572 27.5 17.4534 27.0928 17.4572 26.6511H10.6586C10.6616 26.7374 10.6649 26.819 10.668 26.897L10.6681 26.8974C10.684 27.2941 10.6961 27.5944 10.6586 27.9108H17.5ZM3.67454 24.5053L4.72116 25.057C4.98516 25.1961 5.29914 25.1737 5.5407 24.9986C5.78287 24.823 5.90201 24.5304 5.85142 24.2354L5.65046 23.0696L6.49714 22.2421C6.71095 22.0332 6.78623 21.7268 6.69361 21.4424C6.60119 21.1584 6.36044 20.9554 6.06543 20.9124L4.89886 20.7442L4.37575 19.6811C4.24355 19.4128 3.97588 19.2461 3.6772 19.2461C3.37831 19.2461 3.11084 19.4128 2.97864 19.6811L2.459 20.7418L1.28896 20.9124C0.993949 20.9554 0.753208 21.1584 0.660788 21.4424C0.568163 21.7268 0.643446 22.0332 0.857257 22.2421L1.70291 23.067L1.50297 24.2354C1.45258 24.5304 1.57152 24.823 1.81369 24.9986C1.94998 25.0974 2.10932 25.1476 2.26988 25.1476C2.39372 25.1476 2.51837 25.1176 2.63324 25.057L3.67454 24.5053ZM2.25131 22.5094L1.40953 21.6864L2.57183 21.5171C2.82583 21.4801 3.04494 21.3206 3.15838 21.0903L3.6772 20.0361L4.19601 21.0903C4.30945 21.3206 4.52877 21.4801 4.78257 21.5171L5.94486 21.6866L5.10308 22.5094C4.91987 22.6883 4.83622 22.9462 4.87948 23.199L5.07778 24.3594L4.03994 23.8123C3.9263 23.7525 3.80185 23.7225 3.6772 23.7225C3.55254 23.7225 3.42809 23.7525 3.31445 23.8123L2.27641 24.3594L2.47492 23.199C2.51817 22.9462 2.43452 22.6885 2.25131 22.5094ZM26.7657 30.462C27.0305 30.5002 27.246 30.6815 27.328 30.9353C27.4098 31.1881 27.3417 31.4599 27.1503 31.6447L26.5211 32.2529L26.6694 33.1106C26.7145 33.3713 26.6094 33.6304 26.3954 33.7869C26.273 33.8763 26.1296 33.9218 25.9849 33.9218C25.875 33.9218 25.7644 33.8952 25.662 33.842L24.881 33.435L24.1 33.842C23.8632 33.9654 23.582 33.9442 23.3666 33.7869C23.1524 33.6304 23.0475 33.3713 23.0926 33.1106L23.2409 32.2529L22.6117 31.6447C22.4205 31.4599 22.3524 31.1881 22.434 30.9353C22.516 30.6815 22.7315 30.5002 22.9965 30.462L23.8687 30.3363L24.2581 29.5539C24.3765 29.3165 24.615 29.1689 24.881 29.1689C25.147 29.1692 25.3857 29.3165 25.5039 29.5539L25.8935 30.3363L26.7657 30.462ZM25.7407 32.338C25.7018 32.1125 25.7771 31.8826 25.9419 31.7233L26.4715 31.211L25.7362 31.1051C25.51 31.0726 25.3143 30.9313 25.2129 30.7272L24.881 30.0605L24.5491 30.7274C24.4475 30.9313 24.252 31.0726 24.0258 31.1053L23.2903 31.2112L23.8201 31.7231C23.9852 31.8826 24.0602 32.1123 24.0213 32.338L23.8954 33.0653L24.5587 32.7195C24.7606 32.6142 25.0016 32.6144 25.2034 32.7195L25.8666 33.0653L25.7407 32.338Z" fill="white"/>
</svg>
