<svg width="34" height="34" viewBox="0 0 34 34" fill="none" xmlns="http://www.w3.org/2000/svg">
<rect x="0.5" y="0.5" width="33" height="33" rx="16.5" fill="#F7F9FF" stroke="#849AEF"/>
<path d="M24.4076 10.7392C23.3667 9.69822 21.974 9.125 20.4856 9.125C19.2042 9.125 17.9762 9.9568 17 10.7392C16.0098 9.9568 14.8156 9.125 13.5467 9.125C12.0515 9.125 10.6551 9.69847 9.61416 10.7392C8.57322 11.7799 8 13.1729 8 14.661C8 16.1493 8.57322 17.5421 9.61416 18.5828L16.5422 25.5108C16.6685 25.6373 16.8342 25.7005 17 25.7005C17.1653 25.7005 17.3306 25.6375 17.4571 25.5117L24.3908 18.5992C25.4287 17.538 26 16.1433 26 14.6718C26 13.1867 25.4363 11.792 24.4076 10.7392ZM23.4707 17.6877L17.0006 24.1379L10.5297 17.6672C9.73352 16.8708 9.29495 15.8031 9.29495 14.661C9.29495 13.5188 9.73352 12.4511 10.5297 11.6547C11.3261 10.8586 12.3975 10.42 13.5467 10.42C14.6777 10.42 15.7335 11.2673 16.5513 12.0667C16.8047 12.3147 17.2111 12.3125 17.4617 12.0616C18.2581 11.2654 19.3432 10.42 20.4856 10.42C21.628 10.42 22.6955 10.8586 23.4865 11.6495C24.2723 12.4535 24.705 13.5268 24.705 14.6718C24.705 15.8029 24.2648 16.8762 23.4707 17.6877Z" fill="#849AEF"/>
</svg>
