<svg width="18" height="14" viewBox="0 0 18 14" fill="none" xmlns="http://www.w3.org/2000/svg">
<path fill-rule="evenodd" clip-rule="evenodd" d="M2.20132 0H15.8022C16.0914 0.000367268 16.3777 0.057744 16.6448 0.168851C16.9118 0.279957 17.1543 0.442613 17.3584 0.647517C17.5625 0.852421 17.7243 1.09555 17.8344 1.36301C17.9444 1.63047 18.0007 1.917 18 2.20623V11.4969C17.9996 12.0806 17.7676 12.6403 17.3548 13.053C16.9421 13.4658 16.3824 13.6978 15.7987 13.6982H2.20132C1.61761 13.6978 1.05791 13.4658 0.645162 13.053C0.232415 12.6403 0.000371083 12.0806 0 11.4969V2.20132C0.000371083 1.61761 0.232415 1.05791 0.645162 0.645163C1.05791 0.232416 1.61761 0.000371083 2.20132 0ZM16.6472 12.3419C16.8713 12.1177 16.9974 11.8139 16.9977 11.4969H16.9942V2.20623C16.9939 1.88926 16.8678 1.58537 16.6437 1.36124C16.4195 1.13711 16.1156 1.01103 15.7987 1.01066H2.20132C1.88435 1.01103 1.58047 1.13711 1.35634 1.36124C1.13221 1.58537 1.00613 1.88926 1.00576 2.20623V11.4969C1.00613 11.8139 1.13221 12.1177 1.35634 12.3419C1.58047 12.566 1.88435 12.6921 2.20132 12.6924H15.8022C16.1191 12.6921 16.423 12.566 16.6472 12.3419ZM15.7566 2.78825L11.3547 6.73634L15.7749 10.9345C15.8713 11.0265 15.9275 11.1531 15.931 11.2864C15.9346 11.4197 15.8852 11.549 15.7938 11.6461C15.7018 11.7427 15.5753 11.799 15.4419 11.8025C15.3085 11.8061 15.1792 11.7566 15.0822 11.665L10.6053 7.41152L9.35019 8.53634C9.25858 8.61951 9.13946 8.66588 9.01573 8.66653C8.89199 8.66717 8.77239 8.62205 8.67992 8.53984L7.45844 7.44864L2.95564 11.6608C2.86242 11.7469 2.74009 11.7947 2.61315 11.7946C2.54412 11.7939 2.47592 11.7794 2.41263 11.7518C2.34933 11.7243 2.29224 11.6843 2.24474 11.6342C2.15374 11.5366 2.10502 11.4071 2.10921 11.2737C2.11341 11.1404 2.17019 11.0142 2.26716 10.9226L6.70272 6.76996L2.24825 2.78895C2.1485 2.70007 2.08814 2.5752 2.08046 2.44181C2.07277 2.30843 2.11839 2.17745 2.20727 2.0777C2.29616 1.97795 2.42103 1.9176 2.55441 1.90992C2.68779 1.90223 2.81877 1.94785 2.91852 2.03673L7.73789 6.34973C7.76687 6.37106 7.79425 6.39447 7.81984 6.41976C7.81984 6.42326 7.82404 6.42746 7.82754 6.43096L7.82754 6.43097L9.0119 7.48856L15.0829 2.03954C15.1822 1.95019 15.3129 1.90394 15.4463 1.91096C15.5123 1.91444 15.577 1.9309 15.6367 1.95939C15.6964 1.98788 15.7499 2.02784 15.7941 2.077C15.8835 2.17629 15.9297 2.307 15.9227 2.44039C15.9157 2.57377 15.8559 2.6989 15.7566 2.78825Z" fill="#273159"/>
</svg>
