<svg width="46" height="22" viewBox="0 0 46 22" fill="none" xmlns="http://www.w3.org/2000/svg">
<path fill-rule="evenodd" clip-rule="evenodd" d="M44.3159 10.268H32.0853H27.8951H26.887V5.80741C26.887 4.1425 25.4088 2.63136 22.7245 1.55247C20.2347 0.551352 16.9385 0 13.4437 0C10.8677 0 8.37186 0.302298 6.226 0.873616C4.58538 1.23063 3.04346 2.02513 2.47758 2.37775C0.430153 3.60726 0.000350287 4.92118 0 5.80706V13.9961C0 17.5116 2.55464 20.44 5.90444 21.0277C5.93316 21.0347 5.96224 21.0403 5.99201 21.0435C6.36682 21.1044 6.75038 21.1374 7.14235 21.1374H44.3159C45.1965 21.1374 45.9128 20.421 45.9128 19.5404V11.8649C45.9128 10.9843 45.1965 10.268 44.3159 10.268ZM27.8951 11.6148H13.443C11.2081 11.6148 8.95894 11.4011 6.78296 10.8813C4.8746 10.4252 2.85904 9.74954 1.34966 8.4167L1.34685 8.4146V13.9961C1.34685 15.262 1.75634 16.4337 2.44816 17.3883V16.385C2.44816 16.013 2.74975 15.7114 3.12141 15.7114C3.49341 15.7114 3.79501 16.013 3.79501 16.385V18.7218C4.27736 19.0644 4.8133 19.3355 5.38882 19.5187V17.3956C5.38882 17.0236 5.69041 16.722 6.06242 16.722C6.43442 16.722 6.73567 17.0236 6.73567 17.3956V19.7748C6.87018 19.7839 7.00539 19.7905 7.14235 19.7905H8.32983V17.3956C8.32983 17.0236 8.63107 16.722 9.00308 16.722C9.37508 16.722 9.67668 17.0236 9.67668 17.3956V19.7905H11.2705V17.3956C11.2705 17.0236 11.5721 16.722 11.9441 16.722C12.3157 16.722 12.6173 17.0236 12.6173 17.3956V19.7905H14.2112V17.3956C14.2112 17.0236 14.5127 16.722 14.8848 16.722C15.2568 16.722 15.5584 17.0236 15.5584 17.3956V19.7905H17.1522V16.385C17.1522 16.013 17.4538 15.7114 17.8254 15.7114C18.1974 15.7114 18.499 16.013 18.499 16.385V19.7905H20.0928V17.3956C20.0928 17.0236 20.3944 16.722 20.7664 16.722C21.1384 16.722 21.4397 17.0236 21.4397 17.3956V19.7905H23.0338V17.3956C23.0338 17.0236 23.3354 16.722 23.7071 16.722C24.0791 16.722 24.3807 17.0236 24.3807 17.3956V19.7905H25.9745V17.3956C25.9745 17.0236 26.2761 16.722 26.6481 16.722C27.0198 16.722 27.3213 17.0236 27.3213 17.3956V19.7905H28.9155V17.3956C28.9155 17.0236 29.2168 16.722 29.5888 16.722C29.9608 16.722 30.2624 17.0236 30.2624 17.3956V19.7905H31.8562V16.385C31.8562 16.013 32.1578 15.7114 32.5294 15.7114C32.9014 15.7114 33.203 16.013 33.203 16.385V19.7905H34.7968V11.6148H32.0853H27.8951ZM3.17115 3.5323C4.47437 2.77765 5.92105 2.3281 6.52745 2.18571L6.57279 2.17528C8.60726 1.63339 10.9829 1.34685 13.4437 1.34685C20.5724 1.34685 25.5401 3.69763 25.5401 5.80741C25.5401 6.99033 24.235 7.82086 23.3225 8.30566C21.9665 9.02585 20.4932 9.46791 18.9905 9.78247C17.8787 10.0154 16.7483 10.158 15.6148 10.2284C13.3694 10.3678 11.1125 10.2259 8.88573 9.92363C7.00855 9.66863 5.03713 9.12953 3.37922 8.19392C2.53223 7.71577 1.35526 6.91782 1.3472 5.81652L1.34703 5.81179L1.34685 5.80706C1.34685 5.26902 1.66351 4.43744 3.17115 3.5323ZM22.7245 10.0627C23.9036 9.58876 24.8497 9.03145 25.5401 8.41425V10.268H22.1823C22.3665 10.2018 22.548 10.1335 22.7245 10.0627ZM44.566 19.5404C44.566 19.6784 44.4539 19.7905 44.3159 19.7905H36.1437V11.6148H44.3159C44.4539 11.6148 44.566 11.7269 44.566 11.8649V19.5404ZM13.4437 9.08397C17.6146 9.08397 21.8373 7.9585 21.8373 5.80738C21.8373 3.65626 17.6149 2.53079 13.4437 2.53079C9.27247 2.53079 5.0501 3.65626 5.0501 5.80738C5.0501 7.9585 9.27247 9.08397 13.4437 9.08397ZM8.19989 4.60519C9.59054 4.13616 11.4527 3.87799 13.4437 3.87799C15.4344 3.87799 17.2965 4.13616 18.6872 4.60519C20.1132 5.08579 20.4901 5.60176 20.4901 5.80738C20.4901 6.01335 20.1132 6.52932 18.6872 7.00992C17.2965 7.47895 15.4344 7.73711 13.4437 7.73711C11.4527 7.73711 9.59019 7.47895 8.19954 7.00992C6.77352 6.52932 6.39696 6.013 6.39696 5.80738C6.39696 5.60176 6.77387 5.08579 8.19989 4.60519ZM40.3548 13.0951C38.9173 13.0951 37.7473 14.2651 37.7473 15.7027C37.7473 17.1406 38.9173 18.3102 40.3548 18.3102C41.7928 18.3102 42.9624 17.1406 42.9624 15.7027C42.9624 14.2651 41.7928 13.0951 40.3548 13.0951ZM40.3548 16.9633C39.6599 16.9633 39.0945 16.398 39.0945 15.7027C39.0945 15.0077 39.6599 14.442 40.3548 14.442C41.0502 14.442 41.6155 15.0077 41.6155 15.7027C41.6155 16.398 41.0502 16.9633 40.3548 16.9633Z" fill="#F7F9FF"/>
</svg>
