<svg width="20" height="20" viewBox="0 0 20 20" fill="none" xmlns="http://www.w3.org/2000/svg">
<g clip-path="url(#clip0)">
<path fill-rule="evenodd" clip-rule="evenodd" d="M18.0469 0H1.95312C0.876172 0 0 0.876172 0 1.95312V3.82812C0 4.90508 0.876172 5.78125 1.95312 5.78125H18.0469C19.1238 5.78125 20 4.90508 20 3.82812V1.95312C20 0.876172 19.1238 0 18.0469 0ZM18.4375 3.82812C18.4375 4.04352 18.2623 4.21875 18.0469 4.21875H1.95312C1.73773 4.21875 1.5625 4.04352 1.5625 3.82812V1.95312C1.5625 1.73773 1.73773 1.5625 1.95312 1.5625H18.0469C18.2623 1.5625 18.4375 1.73773 18.4375 1.95312V3.82812ZM18.0469 14.2188H1.95312C0.876172 14.2188 0 15.0949 0 16.1719V18.0469C0 19.1238 0.876172 20 1.95312 20H18.0469C19.1238 20 20 19.1238 20 18.0469V16.1719C20 15.0949 19.1238 14.2188 18.0469 14.2188ZM18.4375 18.0469C18.4375 18.2623 18.2623 18.4375 18.0469 18.4375H1.95312C1.73773 18.4375 1.5625 18.2623 1.5625 18.0469V16.1719C1.5625 15.9565 1.73773 15.7812 1.95312 15.7812H18.0469C18.2623 15.7812 18.4375 15.9565 18.4375 16.1719V18.0469ZM1.95312 7.10938H18.0469C19.1238 7.10938 20 7.98555 20 9.0625V10.9375C20 12.0145 19.1238 12.8906 18.0469 12.8906H1.95312C0.876172 12.8906 0 12.0145 0 10.9375V9.0625C0 7.98555 0.876172 7.10938 1.95312 7.10938ZM18.0469 11.3281C18.2623 11.3281 18.4375 11.1529 18.4375 10.9375V9.0625C18.4375 8.84711 18.2623 8.67188 18.0469 8.67188H1.95312C1.73773 8.67188 1.5625 8.84711 1.5625 9.0625V10.9375C1.5625 11.1529 1.73773 11.3281 1.95312 11.3281H18.0469Z" fill="#273159"/>
</g>
<defs>
<clipPath id="clip0">
<rect width="20" height="20" fill="white"/>
</clipPath>
</defs>
</svg>
