<svg width="19" height="20" viewBox="0 0 19 20" fill="none" xmlns="http://www.w3.org/2000/svg">
<path fill-rule="evenodd" clip-rule="evenodd" d="M15.774 3.20233C17.4667 4.89517 18.5683 7.02242 18.9668 9.36015C19.0251 9.68708 18.8011 10.0006 18.4742 10.0498C18.4706 10.0503 18.4671 10.0507 18.4635 10.0512C18.432 10.0552 18.4035 10.0588 18.3712 10.0588C18.0802 10.0588 17.8249 9.85278 17.7757 9.5572C17.4219 7.47026 16.4367 5.56693 14.9231 4.05323C13.4095 2.544 11.5063 1.55427 9.41953 1.20048C9.08815 1.14226 8.86873 0.833246 8.92247 0.501843C8.98068 0.174919 9.28967 -0.0490022 9.61657 0.00921724C11.9541 0.407796 14.0812 1.50949 15.774 3.20233ZM15.1078 11.724C14.7161 11.3163 14.2436 11.0984 13.7428 11.0984C13.2461 11.0984 12.7696 11.3123 12.3617 11.72L11.0856 12.9914C11.0162 12.9541 10.9468 12.9185 10.8786 12.8835C10.8436 12.8655 10.8089 12.8477 10.7747 12.8299C10.6293 12.7573 10.492 12.6887 10.3749 12.616C9.17954 11.8572 8.09323 10.8683 7.05135 9.5888C6.54656 8.95106 6.20734 8.41423 5.96101 7.86933C6.2602 7.59582 6.53961 7.31241 6.81116 7.03699L6.81117 7.03698L6.89789 6.94905C6.95443 6.89255 7.01096 6.83504 7.06749 6.77752C7.12403 6.72 7.18057 6.66248 7.23711 6.60597C8.08516 5.75834 8.08516 4.66047 7.23711 3.81285L6.13465 2.71094L6.13465 2.71093L6.1346 2.71089C6.00943 2.58578 5.88022 2.45663 5.75909 2.32749C5.51679 2.07724 5.26238 1.81891 4.99989 1.57674C4.60817 1.18925 4.13973 0.983398 3.64706 0.983398C3.15438 0.983398 2.67786 1.18925 2.27403 1.57674L2.26595 1.58481L0.89293 2.96926C0.376026 3.48591 0.08123 4.11557 0.016617 4.84614C-0.0803024 6.02474 0.266992 7.12262 0.53352 7.84108C1.18773 9.60494 2.165 11.2396 3.62283 12.9914C5.3916 15.1024 7.51979 16.7694 9.95085 17.9439C10.8797 18.3839 12.1194 18.9046 13.5046 18.9934C13.5894 18.9974 13.6782 19.0015 13.759 19.0015C14.6918 19.0015 15.4753 18.6664 16.0891 18.0005C16.0911 17.9964 16.0941 17.9934 16.0972 17.9904C16.1002 17.9873 16.1032 17.9843 16.1052 17.9803C16.2997 17.7448 16.5218 17.5301 16.7556 17.3042L16.7556 17.3042L16.8119 17.2497C16.9856 17.0842 17.1633 16.9107 17.3369 16.729C17.7367 16.3133 17.9467 15.8289 17.9467 15.3325C17.9467 14.832 17.7327 14.3516 17.3248 13.948L15.1078 11.724ZM16.5535 15.9742C16.4242 16.1134 16.2921 16.2417 16.1529 16.377L16.0608 16.4667C15.7983 16.7169 15.5318 16.9793 15.2814 17.2739C14.8736 17.7098 14.393 17.9157 13.763 17.9157C13.7024 17.9157 13.6378 17.9157 13.5773 17.9117C12.3779 17.835 11.2633 17.3668 10.4274 16.9672C8.14169 15.8612 6.13465 14.2911 4.46683 12.3012C3.08977 10.6423 2.16904 9.10848 1.55925 7.46167C1.18369 6.45663 1.04639 5.67358 1.10696 4.93494C1.14734 4.46269 1.32907 4.07117 1.66425 3.73616L3.04131 2.35978C3.23919 2.17411 3.44918 2.0732 3.65513 2.0732C3.90955 2.0732 4.1155 2.22658 4.24473 2.35574L4.25684 2.36785C4.50318 2.59792 4.7374 2.83606 4.98374 3.09035C5.04682 3.15543 5.11092 3.22052 5.17554 3.28612L5.17566 3.28624C5.23923 3.35078 5.30331 3.41583 5.36737 3.48187L6.46983 4.58378C6.89789 5.01163 6.89789 5.40719 6.46983 5.83504C6.43065 5.8742 6.39192 5.91336 6.35333 5.95238C6.2766 6.02997 6.20046 6.10695 6.12254 6.18216C5.78332 6.52928 5.46026 6.85218 5.10892 7.16702C5.10606 7.16987 5.1032 7.17223 5.10052 7.17443L5.10052 7.17444C5.09563 7.17846 5.09134 7.18198 5.08873 7.1872C4.74144 7.53432 4.80605 7.87337 4.87874 8.10344L4.89085 8.13976C5.17757 8.83401 5.58141 9.48789 6.19523 10.2669L6.19927 10.2709C7.31384 11.6433 8.48899 12.7129 9.78528 13.5323C9.95085 13.6372 10.1205 13.722 10.282 13.8027L10.282 13.8027L10.282 13.8027C10.4274 13.8754 10.5647 13.944 10.6818 14.0166C10.6899 14.0207 10.6979 14.0257 10.706 14.0308C10.7141 14.0358 10.7222 14.0408 10.7302 14.0449C10.8675 14.1135 10.9968 14.1458 11.13 14.1458C11.4652 14.1458 11.6752 13.9359 11.7439 13.8673L13.125 12.4869C13.2623 12.3496 13.4803 12.1841 13.7347 12.1841C13.9851 12.1841 14.1911 12.3416 14.3163 12.4788L14.3243 12.4869L16.5494 14.7109C16.9654 15.1226 16.9654 15.5464 16.5535 15.9742ZM9.33123 4.41926C10.6382 4.63876 11.8255 5.25736 12.7734 6.20522C13.7212 7.15307 14.3348 8.34039 14.5593 9.64743C14.6142 9.97669 14.8985 10.2062 15.2228 10.2062C15.2586 10.2062 15.2905 10.2021 15.3255 10.1977L15.3375 10.1962C15.7067 10.1363 15.9511 9.78712 15.8912 9.41795C15.6219 7.83653 14.8736 6.39479 13.7312 5.25237C12.5888 4.10996 11.1471 3.36165 9.56569 3.09226C9.19653 3.03239 8.85232 3.27684 8.78747 3.64102C8.72262 4.00519 8.96207 4.35939 9.33123 4.41926Z" fill="#273159"/>
</svg>
