<svg width="18" height="18" viewBox="0 0 18 18" fill="none" xmlns="http://www.w3.org/2000/svg">
<g clip-path="url(#clip0)">
<path fill-rule="evenodd" clip-rule="evenodd" d="M15.4104 2.56561C16.7667 3.92186 17.6493 5.62614 17.9687 7.49906C18.0153 7.76098 17.8359 8.01214 17.574 8.05161C17.5711 8.05197 17.5682 8.05233 17.5654 8.05269C17.5402 8.05588 17.5173 8.05878 17.4915 8.05878C17.2582 8.05878 17.0537 7.89374 17.0143 7.65693C16.7308 5.98494 15.9415 4.46005 14.7287 3.24732C13.516 2.03817 11.9911 1.24523 10.3191 0.961784C10.0536 0.91514 9.8778 0.667571 9.92086 0.402061C9.9675 0.140139 10.2151 -0.039259 10.477 0.00738457C12.3499 0.326714 14.0542 1.20935 15.4104 2.56561ZM14.4241 10.5318C14.0761 10.1694 13.6563 9.97561 13.2113 9.97561C12.77 9.97561 12.3465 10.1658 11.9841 10.5282L10.8502 11.6585C10.7886 11.6253 10.7269 11.5937 10.6663 11.5626C10.6352 11.5466 10.6043 11.5308 10.5739 11.515C10.4448 11.4504 10.3228 11.3894 10.2187 11.3248C9.15656 10.6502 8.19131 9.77108 7.26554 8.6336C6.81701 8.06665 6.51559 7.58941 6.29671 7.10499C6.56255 6.86184 6.81083 6.6099 7.05211 6.36505L7.05214 6.36502L7.12919 6.28687C7.17943 6.23663 7.22966 6.18549 7.2799 6.13436C7.33014 6.08323 7.38037 6.0321 7.4306 5.98186C8.18414 5.22833 8.18414 4.25232 7.4306 3.49878L6.451 2.51918C6.33977 2.40794 6.22494 2.29312 6.11729 2.17829C5.902 1.95582 5.67593 1.72617 5.4427 1.51087C5.09463 1.1664 4.67839 0.983398 4.24062 0.983398C3.80285 0.983398 3.37944 1.1664 3.02061 1.51087L3.01343 1.51805L1.79342 2.74883C1.33412 3.20813 1.07218 3.7679 1.01477 4.41738C0.928647 5.46515 1.23724 6.44116 1.47406 7.07988C2.05536 8.64795 2.92373 10.1012 4.21909 11.6585C5.79076 13.5352 7.68178 15.0171 9.84192 16.0613C10.6672 16.4524 11.7688 16.9153 12.9996 16.9943C13.075 16.9979 13.1539 17.0015 13.2257 17.0015C14.0546 17.0015 14.7507 16.7036 15.2961 16.1116C15.2979 16.108 15.3006 16.1053 15.3033 16.1026C15.306 16.0999 15.3087 16.0972 15.3105 16.0936C15.4832 15.8843 15.6806 15.6935 15.8883 15.4926L15.8883 15.4926L15.9384 15.4441C16.0927 15.297 16.2506 15.1427 16.4049 14.9813C16.7601 14.6117 16.9467 14.1811 16.9467 13.7397C16.9467 13.2948 16.7565 12.8678 16.3941 12.5089L14.4241 10.5318ZM15.7088 14.3102C15.5938 14.434 15.4765 14.5481 15.3528 14.6683L15.271 14.748C15.0377 14.9705 14.8009 15.2037 14.5784 15.4657C14.216 15.8532 13.789 16.0362 13.2293 16.0362C13.1754 16.0362 13.118 16.0362 13.0642 16.0326C11.9985 15.9644 11.0081 15.5482 10.2653 15.193C8.23437 14.2098 6.451 12.8139 4.96904 11.0449C3.74544 9.57014 2.92732 8.2066 2.38549 6.74258C2.05178 5.8491 1.92978 5.15297 1.9836 4.49632C2.01948 4.07649 2.18095 3.72843 2.47878 3.4306L3.70238 2.207C3.87821 2.04194 4.0648 1.95223 4.2478 1.95223C4.47386 1.95223 4.65686 2.08859 4.77169 2.20341L4.78245 2.21418C5.00134 2.41871 5.20946 2.63042 5.42834 2.85648C5.48439 2.91433 5.54135 2.97219 5.59876 3.03051L5.59877 3.03051C5.6553 3.08793 5.71226 3.14579 5.76923 3.20454L6.74883 4.18414C7.12919 4.5645 7.12919 4.91615 6.74883 5.2965C6.71402 5.33132 6.6796 5.36613 6.64533 5.40081L6.64527 5.40087C6.5771 5.46983 6.50946 5.53825 6.44024 5.6051C6.13882 5.91369 5.85176 6.20075 5.53958 6.48063C5.53704 6.48318 5.53449 6.48527 5.53211 6.48723C5.52777 6.4908 5.52396 6.49394 5.52164 6.49858C5.21305 6.80717 5.27046 7.10858 5.33505 7.31311L5.34581 7.34541C5.60058 7.96259 5.95941 8.54389 6.50483 9.23643L6.50841 9.24002C7.49878 10.46 8.54297 11.4109 9.6948 12.1393C9.84192 12.2326 9.99263 12.308 10.1362 12.3798C10.2653 12.4443 10.3873 12.5053 10.4914 12.5699C10.4986 12.5735 10.5057 12.578 10.5129 12.5825L10.5129 12.5825L10.513 12.5825C10.5201 12.587 10.5273 12.5915 10.5345 12.5951C10.6565 12.6561 10.7713 12.6848 10.8897 12.6848C11.1875 12.6848 11.3741 12.4982 11.4351 12.4372L12.6623 11.21C12.7843 11.088 12.9781 10.9409 13.2041 10.9409C13.4266 10.9409 13.6096 11.0808 13.7208 11.2028L13.728 11.21L15.7052 13.1871C16.0748 13.5531 16.0748 13.9299 15.7088 14.3102ZM10.1756 4.04413C11.1156 4.202 11.9696 4.64691 12.6513 5.32862C13.333 6.01033 13.7743 6.86427 13.9358 7.80432C13.9752 8.04112 14.1798 8.20617 14.413 8.20617C14.4388 8.20617 14.4617 8.20327 14.4869 8.20008L14.4869 8.20008L14.4955 8.19899C14.761 8.15594 14.9368 7.90478 14.8938 7.63927C14.7 6.50189 14.1618 5.46496 13.3402 4.64332C12.5185 3.82167 11.4816 3.28348 10.3442 3.08973C10.0787 3.04667 9.83114 3.22248 9.7845 3.4844C9.73785 3.74633 9.91007 4.00107 10.1756 4.04413Z" fill="#273159"/>
</g>
<defs>
<clipPath id="clip0">
<rect width="18" height="18" fill="white"/>
</clipPath>
</defs>
</svg>
