<svg width="32" height="38" viewBox="0 0 32 38" fill="none" xmlns="http://www.w3.org/2000/svg">
<path fill-rule="evenodd" clip-rule="evenodd" d="M17.1042 7.92502C17.1042 11.9333 13.8432 15.1943 9.83492 15.1943H5.13126V17.7599H9.83492C10.5434 17.7599 11.1177 18.3343 11.1177 19.0428C11.1177 19.7512 10.5434 20.3256 9.83492 20.3256H5.13126V26.1838C5.13126 26.8922 4.5569 27.4666 3.84845 27.4666C3.13999 27.4666 2.56563 26.8922 2.56563 26.1838V20.3256H1.28282C0.574359 20.3256 0 19.7512 0 19.0428C0 18.3343 0.574359 17.7599 1.28282 17.7599H2.56572V15.1943H1.28282C1.28282 15.1943 0 15.1943 0 13.9115C0 12.6287 1.28282 12.6287 1.28282 12.6287H2.56572V1.9394V1.93932C2.56572 1.23086 3.14008 0.656501 3.84853 0.656501L3.85016 0.656586H9.78823C9.8037 0.655988 9.81927 0.655731 9.83492 0.655731C13.8432 0.655731 17.1042 3.91673 17.1042 7.92502ZM9.87631 3.22153C9.86263 3.22196 9.84877 3.22222 9.83492 3.22222H5.13126V12.6287H9.83492C12.4285 12.6287 14.5386 10.5186 14.5386 7.92502C14.5386 5.34519 12.451 3.24377 9.87631 3.22153ZM21.3803 17.5034C15.9101 17.5034 11.4598 21.9537 11.4598 27.4238C11.4598 32.8939 15.9101 37.3443 21.3803 37.3443C26.8504 37.3443 31.3007 32.8939 31.3007 27.4238C31.3007 21.9537 26.8504 17.5034 21.3803 17.5034ZM21.3803 35.2334C17.0741 35.2334 13.5705 31.7302 13.5705 27.4238C13.5705 23.1175 17.0741 19.6143 21.3803 19.6143C25.6864 19.6143 29.19 23.1175 29.19 27.4238C29.19 31.7302 25.6864 35.2334 21.3803 35.2334ZM26.5477 27.1466H22.0776V21.747C22.0776 21.2926 21.7109 20.9242 21.2586 20.9242C20.8063 20.9242 20.4395 21.2926 20.4395 21.747V27.9694C20.4395 28.4237 20.8063 28.7921 21.2586 28.7921H26.5477C27 28.7921 27.3667 28.4237 27.3667 27.9694C27.3667 27.515 27 27.1466 26.5477 27.1466Z" fill="white"/>
</svg>
