<svg width="17" height="16" viewBox="0 0 17 16" fill="none" xmlns="http://www.w3.org/2000/svg">
<path fill-rule="evenodd" clip-rule="evenodd" d="M14.699 6.01379L16.7801 7.56442C16.9186 7.66754 17 7.82882 17 7.99999C17 8.17115 16.9186 8.33243 16.78 8.43563L14.699 9.9863L15.4585 12.4475C15.509 12.6113 15.4786 12.789 15.3765 12.9275C15.2745 13.066 15.1124 13.1492 14.9388 13.1524L12.33 13.1994L11.4795 15.632C11.4229 15.7939 11.2924 15.9203 11.1271 15.9733C11.0712 15.9912 11.0134 16 10.9561 16C10.8438 16 10.7327 15.9663 10.6386 15.9013L8.49996 14.4259L6.36144 15.9013C6.21904 15.9996 6.03805 16.0263 5.87287 15.9733C5.70761 15.9204 5.57712 15.794 5.52049 15.632L4.66994 13.1994L2.06123 13.1524C1.88772 13.1493 1.72558 13.066 1.6235 12.9275C1.52142 12.789 1.49105 12.6114 1.54159 12.4475L2.30097 9.9863L0.219924 8.43567C0.0813775 8.33247 0 8.17119 0 8.00003C0 7.8289 0.0813775 7.66758 0.219924 7.56442L2.30093 6.01367L1.54147 3.55244C1.49093 3.38865 1.52131 3.21095 1.62339 3.07244C1.72547 2.93393 1.88757 2.85072 2.06111 2.84756L4.66982 2.80058L5.52037 0.368015C5.57708 0.206049 5.70749 0.0796618 5.87283 0.0267121C6.03809 -0.0262375 6.21904 0.00044635 6.3614 0.0986294L8.49992 1.57407L10.6384 0.0987054C10.7809 0.00048435 10.9619 -0.0261615 11.1271 0.0267882C11.2924 0.0796998 11.4229 0.206087 11.4795 0.368091L12.3301 2.8007L14.9388 2.84764C15.1124 2.8508 15.2745 2.93404 15.3766 3.07251C15.4787 3.21103 15.509 3.38869 15.4584 3.55252L14.699 6.01379ZM7.83649 5.94312C7.83649 4.99056 7.19962 4.2184 6.41398 4.2184C5.62835 4.2184 4.99144 4.99056 4.99148 5.94312C4.99148 6.89572 5.62835 7.66788 6.41398 7.66788C7.19962 7.66788 7.83649 6.89572 7.83649 5.94312ZM5.93786 11.9838C6.09044 11.9838 6.23461 11.911 6.32355 11.789L11.4467 4.75657C11.5993 4.54716 11.5506 4.25444 11.3383 4.10403C11.2572 4.04655 11.1616 4.01614 11.0622 4.01614C10.9096 4.01614 10.7654 4.08897 10.6765 4.21095L5.55329 11.2434C5.40072 11.4528 5.44936 11.7455 5.66173 11.896C5.74284 11.9534 5.83837 11.9838 5.93786 11.9838ZM9.16351 10.0569C9.16351 11.0095 9.80038 11.7816 10.586 11.7816C11.3717 11.7816 12.0086 11.0095 12.0085 10.0569C12.0085 9.10433 11.3717 8.33217 10.586 8.33217C9.80038 8.33217 9.16351 9.10433 9.16351 10.0569ZM6.41406 6.90961C6.60851 6.90961 6.75391 6.76844 6.82338 6.68428C6.97858 6.49605 7.06763 6.2259 7.06763 5.94306C7.06763 5.66022 6.97858 5.39011 6.82338 5.20188C6.75391 5.11772 6.60851 4.97655 6.41406 4.97655C6.21962 4.97655 6.07421 5.11772 6.00475 5.20188C5.84955 5.39011 5.7605 5.66022 5.7605 5.94306C5.7605 6.2259 5.84955 6.49605 6.00475 6.68428C6.07417 6.76847 6.21962 6.90961 6.41406 6.90961ZM10.5859 9.09042C10.3915 9.09042 10.2461 9.2316 10.1766 9.31579C10.0215 9.50398 9.93237 9.77417 9.93237 10.057C9.93237 10.3398 10.0215 10.61 10.1766 10.7982C10.2461 10.8823 10.3915 11.0235 10.5859 11.0235C10.7804 11.0235 10.9258 10.8823 10.9953 10.7982C11.1504 10.61 11.2395 10.3398 11.2395 10.057C11.2395 9.77417 11.1504 9.50398 10.9953 9.31579C10.9259 9.23156 10.7804 9.09042 10.5859 9.09042Z" fill="#273159"/>
</svg>
