<svg width="32" height="32" viewBox="0 0 32 32" fill="none" xmlns="http://www.w3.org/2000/svg">
<path fill-rule="evenodd" clip-rule="evenodd" d="M28.1875 7.625H32V15.125H28.1875V24.5H29.1875C30.7383 24.5 32 25.7617 32 27.3125V32H0V27.3125C0 25.7617 1.26172 24.5 2.8125 24.5H15.0625V15.125H10.8918L9.01685 18.875H5.625V20.75H3.75V18.875H0V6.6875C0 5.13672 1.26172 3.875 2.8125 3.875H3.75V2H5.625V3.875H20.6875V1.875H18.8125V0H24.4375V1.875H22.5625V3.875H25.375C26.9258 3.875 28.1875 5.13672 28.1875 6.6875V7.625ZM28.1875 13.25H30.125V9.5H28.1875V13.25ZM30.125 30.125V27.3125C30.125 26.7957 29.7043 26.375 29.1875 26.375H2.8125C2.29565 26.375 1.875 26.7957 1.875 27.3125V30.125H30.125ZM26.3125 24.5V6.6875C26.3125 6.17065 25.8918 5.75 25.375 5.75H2.8125C2.29565 5.75 1.875 6.17065 1.875 6.6875V17H7.85815L9.73315 13.25H16.9375V24.5H26.3125ZM18.8125 10.4375C18.8125 8.88672 20.0742 7.625 21.625 7.625C23.1758 7.625 24.4375 8.88672 24.4375 10.4375C24.4375 11.9883 23.1758 13.25 21.625 13.25C20.0742 13.25 18.8125 11.9883 18.8125 10.4375ZM20.6875 10.4375C20.6875 10.9543 21.1082 11.375 21.625 11.375C22.1418 11.375 22.5625 10.9543 22.5625 10.4375C22.5625 9.92065 22.1418 9.5 21.625 9.5C21.1082 9.5 20.6875 9.92065 20.6875 10.4375ZM24.4375 15.125V17H18.8125V15.125H24.4375ZM24.4375 20.75V18.875H18.8125V20.75H24.4375Z" fill="white"/>
</svg>
