<svg width="36" height="36" viewBox="0 0 36 36" fill="none" xmlns="http://www.w3.org/2000/svg">
<path d="M28.8822 23.7432C28.86 23.6927 28.8352 23.6435 28.8079 23.5958C28.2073 22.6176 27.4702 21.7363 26.6206 20.9804L26.5981 20.9571L26.5864 20.946L26.5746 20.9339H26.5629C26.0742 20.4526 25.7651 20.1291 25.6354 19.9635C25.5236 19.8358 25.4491 19.678 25.4208 19.5084C25.3924 19.3387 25.4112 19.1642 25.4751 19.0052C25.7651 18.4525 26.1107 17.9329 26.5062 17.4551C26.8196 17.0371 27.0679 16.7005 27.251 16.4453C28.5717 14.6277 29.1445 13.4681 28.9692 12.9665L28.9008 12.8484C28.8046 12.7474 28.6808 12.6794 28.546 12.6535C28.3062 12.5919 28.0567 12.582 27.813 12.6242L24.5144 12.6474C24.439 12.628 24.3599 12.6301 24.2857 12.6535L24.1371 12.6888L24.0794 12.7181L24.0335 12.7535C23.9849 12.7871 23.9422 12.8291 23.9074 12.8777C23.8596 12.9404 23.8211 13.0102 23.7931 13.0847C23.4508 14.0033 23.041 14.8935 22.5674 15.7475C22.2847 16.237 22.024 16.6611 21.7856 17.0199C21.6085 17.3005 21.4094 17.5656 21.1903 17.8126C21.0547 17.9576 20.9094 18.0926 20.7554 18.2165C20.6251 18.3195 20.5274 18.3629 20.4622 18.3468L20.2667 18.2993C20.1583 18.2269 20.0695 18.1272 20.0087 18.0095C19.9503 17.8605 19.9061 17.7059 19.8768 17.548C19.8768 17.548 19.8406 17.2027 19.8367 17.0684C19.8328 16.9341 19.8367 16.7452 19.8426 16.4998C19.8484 16.2545 19.8543 16.0899 19.8543 16.003C19.8543 15.7034 19.8598 15.378 19.8709 15.0265C19.882 14.6751 19.8914 14.3971 19.8992 14.1924C19.9071 13.9905 19.911 13.7734 19.911 13.5411C19.9148 13.3608 19.9014 13.1805 19.8709 13.0029C19.8442 12.8725 19.8039 12.7456 19.7507 12.6242C19.7016 12.5076 19.62 12.4087 19.5161 12.3405C19.397 12.2668 19.2673 12.2129 19.132 12.1809C18.623 12.0755 18.1049 12.024 17.5858 12.0274C16.6645 11.9472 15.7367 12.0434 14.8492 12.3112C14.6847 12.4012 14.5373 12.5213 14.4143 12.6656C14.2768 12.8393 14.2576 12.9339 14.3566 12.9494C14.5439 12.9617 14.7269 13.0128 14.8948 13.0995C15.0627 13.1862 15.212 13.3069 15.334 13.4543L15.4024 13.5966C15.4778 13.7704 15.5316 13.9533 15.5627 14.1409C15.6189 14.4255 15.6532 14.7142 15.6653 15.0043C15.7037 15.4967 15.7037 15.9914 15.6653 16.4837C15.6268 16.8943 15.5907 17.2138 15.5568 17.442C15.5329 17.6345 15.4808 17.8221 15.4024 17.9984C15.3618 18.0882 15.3158 18.1752 15.2646 18.2589C15.2499 18.2827 15.2306 18.303 15.2079 18.3185C15.1094 18.3578 15.0047 18.378 14.899 18.3781C14.7557 18.3641 14.6196 18.3065 14.5081 18.2125C14.3329 18.0806 14.1735 17.9277 14.0331 17.7571C13.8271 17.5038 13.6414 17.2336 13.4779 16.9492C13.272 16.6018 13.0583 16.1915 12.8368 15.7183L12.654 15.3749C12.5393 15.1541 12.383 14.8327 12.1849 14.4106C11.9868 13.9885 11.8089 13.5835 11.6512 13.1958C11.5999 13.0432 11.5039 12.9109 11.3766 12.8171L11.3189 12.7817C11.2626 12.7398 11.2012 12.7059 11.1362 12.6808C11.0513 12.645 10.9628 12.6192 10.8723 12.604L7.73396 12.6272C7.61576 12.612 7.49577 12.6243 7.38279 12.6633C7.26982 12.7023 7.16672 12.7669 7.08108 12.8524L7.03514 12.9231C7.00822 12.9823 6.99644 13.0477 7.00093 13.113C7.00557 13.2226 7.02872 13.3306 7.06935 13.4321C7.52545 14.5442 8.02358 15.6169 8.56374 16.6503C9.1039 17.6837 9.57141 18.5158 9.96626 19.1466C10.3631 19.778 10.7677 20.3735 11.1802 20.9329C11.5926 21.4923 11.8656 21.8512 11.9992 22.0094C12.1328 22.1676 12.2377 22.2861 12.3139 22.3648L12.6003 22.6486C12.8521 22.8965 13.122 23.124 13.4076 23.3292C13.7877 23.6102 14.1814 23.8711 14.5873 24.1108C15.0615 24.385 15.5676 24.5958 16.0934 24.7379C16.6368 24.8964 17.2016 24.9626 17.7656 24.9338H19.0831C19.3098 24.9279 19.5261 24.835 19.6901 24.6732L19.736 24.6137C19.7752 24.5455 19.8042 24.4717 19.822 24.3945C19.8497 24.2886 19.8632 24.1791 19.8621 24.0694C19.8517 23.7618 19.8767 23.454 19.9364 23.1525C19.9745 22.9393 20.0402 22.7325 20.1319 22.5375C20.1974 22.4095 20.2803 22.2918 20.3781 22.1881C20.4359 22.1224 20.5016 22.0647 20.5736 22.0164C20.603 22.0006 20.6334 21.9867 20.6645 21.975C20.7787 21.9497 20.8971 21.9532 21.0098 21.9852C21.1224 22.0172 21.2259 22.0767 21.3115 22.1588C21.5717 22.3561 21.8066 22.5869 22.0103 22.8455C22.228 23.1148 22.4886 23.4204 22.7922 23.7624C23.034 24.0421 23.3025 24.2958 23.5937 24.5197L23.8224 24.6621C24.0107 24.7726 24.2107 24.86 24.4186 24.9227C24.6239 24.9985 24.8446 25.019 25.0597 24.9822L27.9918 24.9348C28.2257 24.9477 28.4587 24.8965 28.6672 24.7863C28.7998 24.7204 28.9025 24.6038 28.9536 24.4612C28.9846 24.3287 28.9866 24.1907 28.9594 24.0573C28.9448 23.95 28.919 23.8447 28.8822 23.7432Z" fill="#273159"/>
<rect x="0.5" y="0.5" width="35" height="35" rx="17.5" stroke="#273159"/>
</svg>
